<svg xmlns="http://www.w3.org/2000/svg" id="Layer_1" data-name="Layer 1" viewBox="0 0 378.33 197.19"><defs><style>.cls-1{fill:#0d3a5c}</style></defs><path class="cls-1" d="M361.94 197.19H16.39A16.41 16.41 0 0 1 0 180.8V16.39A16.41 16.41 0 0 1 16.39 0h345.55a16.41 16.41 0 0 1 16.39 16.39V180.8a16.41 16.41 0 0 1-16.39 16.39ZM16.39 2A14.41 14.41 0 0 0 2 16.39V180.8a14.4 14.4 0 0 0 14.39 14.39h345.55a14.4 14.4 0 0 0 14.39-14.39V16.39A14.41 14.41 0 0 0 361.94 2Z"></path><path class="cls-1" d="M143.59 39.15a2 2 0 0 0-1.85 1.27l-9.9 25.76a1.73 1.73 0 0 0-.14.71v7.93a11.93 11.93 0 0 0 7.92 11v60.36h-7.92a2 2 0 0 0-2 2v7.92a2 2 0 0 0 2 2h114.93a2 2 0 0 0 2-2v-7.92a2 2 0 0 0-2-2h-7.92V85.8a11.89 11.89 0 0 0 7.92-11v-7.91a1.73 1.73 0 0 0-.14-.71l-9.9-25.76a2 2 0 0 0-1.85-1.27m-1.36 4 9.29 24.16v7.55a9 9 0 0 1-17.84 0v-7.97a1.62 1.62 0 0 0 0-.44l-5.43-23.34Zm-12.51 24v7.71a8.95 8.95 0 0 1-17.83 0v-8.13l-1.83-23.62h14.11Zm-39.77-24h16.13l1.84 23.78v7.93c0 4.38-4.44 7.92-9.9 7.92s-9.91-3.54-9.91-7.92v-7.81Zm-4 0-1.85 23.78v7.93a8.95 8.95 0 0 1-17.83 0v-7.75l5.55-24Zm-41.44 31.67v-7.55L145 43.11h13.87l-5.37 23.34a1.62 1.62 0 0 0 0 .44v7.93a9 9 0 0 1-17.84 0Zm7.93 11.89h1a13.18 13.18 0 0 0 10.9-5.59 13.44 13.44 0 0 0 21.8-.1 15.1 15.1 0 0 0 23.62 0 13.43 13.43 0 0 0 21.79.1 13.16 13.16 0 0 0 11.06 5.59h1v59.45h-57.48V96.62a2 2 0 0 0-2-2h-25.75a2 2 0 0 0-2 2v49.54h-4Zm29.72 59.45h-21.8V98.6h21.8Zm71.34 7.92h-111v-4h111Zm-79.26-33.69v-5.94a2 2 0 1 1 4 0v5.94a2 2 0 1 1-4 0m17.83 13.88h45.58a2 2 0 0 0 1.4-.58 2 2 0 0 0 .58-1.41V96.62a2 2 0 0 0-.58-1.41 2 2 0 0 0-1.4-.58h-45.58a2 2 0 0 0-2 2v35.66a2 2 0 0 0 .58 1.41 2 2 0 0 0 1.4.58m2-35.67h41.62v31.7H185.2Zm28.4 14.76a2 2 0 0 1-.56 2.73l-11.89 7.9a1.89 1.89 0 0 1-1.08.34 2 2 0 0 1-1-3.63l11.93-7.9a2 2 0 0 1 2.6.55Zm0-7.93a2 2 0 0 1-.56 2.74l-11.89 7.92a1.76 1.76 0 0 1-1.08.34 2 2 0 0 1-1-3.62l11.93-7.94a2 2 0 0 1 2.6.55Z"></path></svg>