<svg xmlns="http://www.w3.org/2000/svg" xmlns:xlink="http://www.w3.org/1999/xlink" id="Layer_1" x="0px" y="0px" viewBox="0 0 378.3 197.2" style="enable-background:new 0 0 378.3 197.2;" xml:space="preserve"> <style type="text/css"> .st0{fill:#0D3A5C;} </style> <path class="st0" d="M361.9,197.2H16.4c-9,0-16.4-7.3-16.4-16.4V16.4C0,7.4,7.3,0,16.4,0c0,0,0,0,0,0h345.5c9,0,16.4,7.3,16.4,16.4 v164.4C378.3,189.9,371,197.2,361.9,197.2z M16.4,2C8.4,2,2,8.5,2,16.4c0,0,0,0,0,0v164.4c0,7.9,6.4,14.4,14.4,14.4h345.5 c7.9,0,14.4-6.4,14.4-14.4V16.4c0-8-6.4-14.4-14.4-14.4c0,0,0,0,0,0H16.4z"></path> <g id="Bank_transfer" transform="translate(-1105.307 -573.906)"> <g id="Group_311"> <g id="Group_306"> <path id="Path_2771" class="st0" d="M1354.4,657.1l-118.3,0l0-1.4v-12.5l59.2-25.7l0.5,0.2l58.7,25.7L1354.4,657.1z M1238.6,654.6l113.3,0V645l-56.7-24.8l-56.7,24.6V654.6z"></path> </g> <g id="Group_307"> <path id="Path_2772" class="st0" d="M1340.2,710.1h-14.7v-55.4h14.7V710.1z M1328,707.6h9.7v-50.4h-9.7V707.6z"></path> </g> <g id="Group_308"> <path id="Path_2773" class="st0" d="M1265.6,710.1h-14.7v-55.4h14.7V710.1z M1253.4,707.6h9.7v-50.4h-9.7V707.6z"></path> </g> <g id="Group_309"> <path id="Path_2774" class="st0" d="M1354.4,719.4h-118.3v-11.6l118.3,0V719.4z M1238.6,716.9h113.3v-6.7l-113.3,0V716.9z"></path> </g> <g id="Group_310"> <path id="Path_2775" class="st0" d="M1366.3,728.6l-142,0V717l142,0V728.6z M1226.7,726.1l137.1,0v-6.7l-137.1,0V726.1z"></path> </g> </g> <g id="Group_316"> <g id="Group_312"> <path id="Path_2776" class="st0" d="M1295.3,696.1L1295.3,696.1c-7.2,0-13.1-5.9-13.1-13.1c0-7.2,5.9-13.1,13.1-13.1 c7.2,0,13.1,5.9,13.1,13.1c0,3.5-1.4,6.8-3.8,9.2C1302.1,694.7,1298.8,696.1,1295.3,696.1L1295.3,696.1z M1295.3,671.2 c-6.5,0.1-11.7,5.5-11.6,12.1c0.1,6.3,5.2,11.5,11.6,11.6l0,0c6.5-0.1,11.7-5.5,11.6-12.1 C1306.7,676.4,1301.6,671.3,1295.3,671.2L1295.3,671.2z"></path> </g> <g id="Group_313"> <path id="Path_2777" class="st0" d="M1295.3,690.5c-2.3,0-4.2-1.9-4.2-4.2c0,0,0,0,0-0.1l1.2,0c0,0.8,0.3,1.5,0.9,2.1 c1.2,1.1,3,1.1,4.1,0c1.1-1.1,1.1-3,0-4.1c0,0,0,0,0,0c-0.7-0.4-1.5-0.7-2.2-0.9c-1-0.2-1.9-0.6-2.7-1.2c-1.6-1.6-1.6-4.3,0-5.9 c1.6-1.6,4.3-1.6,5.9,0c0.6,0.6,1.1,1.5,1.2,2.4l-1.2,0.2c-0.1-0.6-0.4-1.2-0.8-1.7c-1.1-1.1-3-1.1-4.1,0c-1.1,1.1-1.1,3,0,4.1 l0,0c0.7,0.4,1.5,0.7,2.2,0.9c1,0.2,1.9,0.6,2.7,1.2c1.6,1.6,1.6,4.3,0,5.9C1297.4,690,1296.4,690.5,1295.3,690.5L1295.3,690.5z"></path> </g> <g id="Group_314"> <path id="Path_2778" class="st0" d="M1295.3,676.3c-0.3,0-0.6-0.3-0.6-0.6v-1.5c0-0.3,0.3-0.6,0.6-0.6l0,0l0,0 c0.3,0,0.6,0.3,0.6,0.6v1.5C1295.9,676,1295.6,676.3,1295.3,676.3L1295.3,676.3z"></path> </g> <g id="Group_315"> <path id="Path_2779" class="st0" d="M1295.3,692c-0.3,0-0.6-0.3-0.6-0.6l-0.1-1.5c0-0.3,0.3-0.6,0.6-0.6c0,0,0,0,0,0h0 c0.3,0,0.6,0.3,0.6,0.6l0.1,1.5C1295.9,691.7,1295.6,692,1295.3,692C1295.3,692,1295.3,692,1295.3,692L1295.3,692z"></path> </g> </g> </g> </svg>