<svg xmlns="http://www.w3.org/2000/svg" id="Layer_1" data-name="Layer 1" viewBox="0 0 378.33 197.19"><defs><style>.cls-1{fill:#0d3a5c}</style></defs><path class="cls-1" d="M241.79 125.77a2.81 2.81 0 0 0-.9-.59 3 3 0 0 0-1.14-.21 4.18 4.18 0 0 0-.68.06 3.59 3.59 0 0 0-.69.2 3 3 0 0 0-.64.39 2.42 2.42 0 0 0-.53.64 2.53 2.53 0 0 0-1-.94 2.9 2.9 0 0 0-1.42-.35 3.64 3.64 0 0 0-.56 0 3.08 3.08 0 0 0-.57.17 2.18 2.18 0 0 0-.54.33 2.15 2.15 0 0 0-.47.52v-.88h-1.51v7.2h1.52v-4a2.1 2.1 0 0 1 .15-.82 1.6 1.6 0 0 1 .39-.59 1.7 1.7 0 0 1 .57-.37 2 2 0 0 1 .7-.12 1.48 1.48 0 0 1 1.19.49 2.06 2.06 0 0 1 .43 1.39v4h1.52v-4a2.1 2.1 0 0 1 .15-.82 1.6 1.6 0 0 1 .39-.59 1.7 1.7 0 0 1 .57-.37 2 2 0 0 1 .69-.12 1.48 1.48 0 0 1 1.2.49 2.06 2.06 0 0 1 .43 1.39v4h1.52v-4.52a3.11 3.11 0 0 0-.21-1.16 2.62 2.62 0 0 0-.58-.91m8.07.32a2.72 2.72 0 0 0-2.26-1.06 3.45 3.45 0 0 0-1.41.29 3.5 3.5 0 0 0-1.17.77 3.72 3.72 0 0 0-.76 1.2 4.27 4.27 0 0 0 0 3 3.72 3.72 0 0 0 .76 1.2 3.66 3.66 0 0 0 1.15.78 3.45 3.45 0 0 0 1.41.28 2.9 2.9 0 0 0 1.33-.28 2.78 2.78 0 0 0 .93-.77v.87h1.57v-7.2h-1.57Zm-.06 3.65a2.18 2.18 0 0 1-.44.72 2 2 0 0 1-.69.49 2.09 2.09 0 0 1-.88.17 2.08 2.08 0 0 1-1.6-.67 2.34 2.34 0 0 1-.42-.74 2.64 2.64 0 0 1-.15-.89 2.6 2.6 0 0 1 .15-.89 2.34 2.34 0 0 1 .42-.74 2.23 2.23 0 0 1 .68-.49 2.26 2.26 0 0 1 .92-.19 2.1 2.1 0 0 1 .88.18 2.14 2.14 0 0 1 .69.48 2.33 2.33 0 0 1 .44.73 2.72 2.72 0 0 1 0 1.84m8.84-.9a3.94 3.94 0 0 0-1.84-.69L256 128c-.17 0-.32 0-.47-.09a1.24 1.24 0 0 1-.37-.13.58.58 0 0 1-.25-.21.46.46 0 0 1-.1-.31.7.7 0 0 1 .36-.62 1.78 1.78 0 0 1 1-.24 3.71 3.71 0 0 1 .67.06 6.23 6.23 0 0 1 .62.15 5.36 5.36 0 0 1 .53.2c.16.07.29.14.4.2l.68-1.22a4.47 4.47 0 0 0-1.31-.56 6.38 6.38 0 0 0-1.6-.2 4.66 4.66 0 0 0-1.24.16 2.85 2.85 0 0 0-.94.46 2 2 0 0 0-.59.73 2.12 2.12 0 0 0-.21 1 1.79 1.79 0 0 0 .62 1.41 3.55 3.55 0 0 0 1.82.7l.75.1a2.39 2.39 0 0 1 .95.28.61.61 0 0 1 .3.51.71.71 0 0 1-.41.64 2.53 2.53 0 0 1-1.23.24 4.7 4.7 0 0 1-.79-.06 4 4 0 0 1-.64-.16 4.08 4.08 0 0 1-.51-.23 3.58 3.58 0 0 1-.43-.29l-.73 1.18a3.82 3.82 0 0 0 .82.48 6.36 6.36 0 0 0 .84.28 4.87 4.87 0 0 0 .78.13 5.36 5.36 0 0 0 .65 0 4.86 4.86 0 0 0 1.38-.18 2.89 2.89 0 0 0 1-.48 2.24 2.24 0 0 0 .64-.74 2 2 0 0 0 .22-.95 1.71 1.71 0 0 0-.66-1.44m14.77-2.8a3.09 3.09 0 0 0-1.08-.77 3.39 3.39 0 0 0-1.37-.28 3.84 3.84 0 0 0-1.46.28 3.29 3.29 0 0 0-1.13.77 3.55 3.55 0 0 0-.73 1.2 4.56 4.56 0 0 0 0 3.09 3.52 3.52 0 0 0 .76 1.2 3.43 3.43 0 0 0 1.17.76 3.94 3.94 0 0 0 1.48.27 5.3 5.3 0 0 0 1.56-.22 3.87 3.87 0 0 0 1.4-.79l-.78-1.12a3.47 3.47 0 0 1-1 .56 3.27 3.27 0 0 1-1.09.2 2.53 2.53 0 0 1-.73-.11 1.83 1.83 0 0 1-.64-.32 2 2 0 0 1-.49-.57 2.26 2.26 0 0 1-.28-.83h5.32a2.64 2.64 0 0 0 0-.29v-.3a4.63 4.63 0 0 0-.25-1.53 3.65 3.65 0 0 0-.7-1.2m-4.39 2.12a2.56 2.56 0 0 1 .21-.71 1.92 1.92 0 0 1 .39-.57 1.54 1.54 0 0 1 .56-.36 2 2 0 0 1 .75-.13 1.67 1.67 0 0 1 1.22.47 2.17 2.17 0 0 1 .6 1.3Zm25.28-2.12a2.72 2.72 0 0 0-2.26-1.06 3.45 3.45 0 0 0-1.41.29 3.36 3.36 0 0 0-1.14.78 3.58 3.58 0 0 0-.77 1.2 4.27 4.27 0 0 0 0 3 3.58 3.58 0 0 0 .77 1.2 3.5 3.5 0 0 0 1.14.78 3.45 3.45 0 0 0 1.41.28 2.9 2.9 0 0 0 1.33-.28 2.78 2.78 0 0 0 .93-.77v.87h1.57v-7.2h-1.57Zm-.06 3.65a2.18 2.18 0 0 1-.44.72 2 2 0 0 1-.69.49 2.09 2.09 0 0 1-.88.17 2.08 2.08 0 0 1-1.6-.67 2.34 2.34 0 0 1-.42-.74 2.64 2.64 0 0 1-.15-.89 2.6 2.6 0 0 1 .15-.89 2.34 2.34 0 0 1 .42-.74 2.23 2.23 0 0 1 .68-.49 2.26 2.26 0 0 1 .92-.19 2.1 2.1 0 0 1 .88.18 2.14 2.14 0 0 1 .69.48 2.33 2.33 0 0 1 .44.73 2.72 2.72 0 0 1 0 1.84m-28.76 1.27a2 2 0 0 1-.74.15 1.29 1.29 0 0 1-.45-.08.88.88 0 0 1-.36-.24 1.1 1.1 0 0 1-.25-.41 1.89 1.89 0 0 1-.09-.62v-3.13H266v-1.43h-2.52V123h-1.57v2.18h-1.44v1.43h1.44v3.16a2.83 2.83 0 0 0 .68 2.11 2.53 2.53 0 0 0 1.9.68 3.41 3.41 0 0 0 1.23-.21 4.57 4.57 0 0 0 .67-.31l-.54-1.32a2.62 2.62 0 0 1-.48.22m14.15-5.94a2.84 2.84 0 0 0-1.19.24 2.67 2.67 0 0 0-.9.9v-1H276v7.2h1.44v-4a2.31 2.31 0 0 1 .13-.82 1.74 1.74 0 0 1 .35-.61 1.45 1.45 0 0 1 .54-.37 1.73 1.73 0 0 1 .69-.13 2.81 2.81 0 0 1 .62.07l.31.08.47-1.5-.39-.1a4.19 4.19 0 0 0-.65 0m21.83.04a2.84 2.84 0 0 0-1.19.24 2.58 2.58 0 0 0-.9.9v-1h-1.42v7.2h1.44v-4a2.57 2.57 0 0 1 .12-.82 1.93 1.93 0 0 1 .36-.61 1.45 1.45 0 0 1 .54-.37 1.73 1.73 0 0 1 .69-.13 2.72 2.72 0 0 1 .61.07 2.49 2.49 0 0 1 .32.08l.46-1.5-.37-.06a4.19 4.19 0 0 0-.65 0m7.32-2.76V126a2.91 2.91 0 0 0-.93-.77 2.87 2.87 0 0 0-1.33-.29 3.45 3.45 0 0 0-1.41.29 3.36 3.36 0 0 0-1.14.78 3.74 3.74 0 0 0-.77 1.2 4.27 4.27 0 0 0 0 3 3.74 3.74 0 0 0 .77 1.2 3.5 3.5 0 0 0 1.14.78 3.45 3.45 0 0 0 1.41.28 2.87 2.87 0 0 0 1.33-.28 2.78 2.78 0 0 0 .93-.77v.87h1.57v-10.05Zm-.06 7.44a2.1 2.1 0 0 1-1.13 1.21 2.09 2.09 0 0 1-.88.17 2.17 2.17 0 0 1-.91-.18 2 2 0 0 1-.68-.49 2.18 2.18 0 0 1-.43-.74 2.64 2.64 0 0 1-.15-.89 2.6 2.6 0 0 1 .15-.89 2.18 2.18 0 0 1 .43-.74 2 2 0 0 1 .68-.49 2.17 2.17 0 0 1 .91-.19 2.1 2.1 0 0 1 .88.18 2.14 2.14 0 0 1 .69.48 2.16 2.16 0 0 1 .44.73 2.72 2.72 0 0 1 0 1.84m-25.33-2.58a2.17 2.17 0 0 1 .71-.48 2.44 2.44 0 0 1 .9-.17 2.84 2.84 0 0 1 1 .17 2.34 2.34 0 0 1 .76.46l.76-1.26a4.16 4.16 0 0 0-1-.56 4.09 4.09 0 0 0-1.54-.28 4.15 4.15 0 0 0-1.55.28 3.8 3.8 0 0 0-1.22.8 3.85 3.85 0 0 0-.81 1.2 4 4 0 0 0 0 3 3.85 3.85 0 0 0 .81 1.2 3.8 3.8 0 0 0 1.22.8 4.15 4.15 0 0 0 1.55.28 4.09 4.09 0 0 0 1.54-.28 4.16 4.16 0 0 0 1-.56l-.76-1.26a2.34 2.34 0 0 1-.76.46 2.84 2.84 0 0 1-1 .17 2.44 2.44 0 0 1-.9-.17 2.17 2.17 0 0 1-.71-.48 2 2 0 0 1-.47-.73 2.34 2.34 0 0 1-.18-.93 2.42 2.42 0 0 1 .18-.94 2.09 2.09 0 0 1 .47-.72m30.27 4.2a.72.72 0 0 1 .29.06.78.78 0 0 1 .24.16.63.63 0 0 1 .16.23.68.68 0 0 1 .06.29.67.67 0 0 1-.06.28.63.63 0 0 1-.16.23.78.78 0 0 1-.24.16.72.72 0 0 1-.29.06.73.73 0 0 1-.3-.06.6.6 0 0 1-.24-.16.63.63 0 0 1-.16-.23.67.67 0 0 1-.06-.28.68.68 0 0 1 .06-.29.63.63 0 0 1 .16-.23.6.6 0 0 1 .24-.16.73.73 0 0 1 .3-.06m0 1.27a.65.65 0 0 0 .2 0 .52.52 0 0 0 .17-.12.5.5 0 0 0 .11-.17.45.45 0 0 0 0-.2.46.46 0 0 0 0-.21.48.48 0 0 0-.28-.28.45.45 0 0 0-.2 0 .46.46 0 0 0-.21 0 .5.5 0 0 0-.17.11.52.52 0 0 0-.12.17.65.65 0 0 0 0 .21.65.65 0 0 0 0 .2.61.61 0 0 0 .29.29.65.65 0 0 0 .21 0m0-.86a.28.28 0 0 1 .2.06.19.19 0 0 1 .07.16.15.15 0 0 1-.05.13.26.26 0 0 1-.14.07l.2.23h-.22l-.18-.23v.23h-.18v-.65Zm-.14.16v.13h.2v-.05h-.2Zm-.67-25.67v-.79h-.32v-.22h.88v.22h-.3v.79Zm1.7 0v-.7l-.23.6H314l-.23-.6v.7h-.23v-1h.34l.25.65.25-.65h.34v1Z"></path><path class="cls-1" d="M287.47 119.65a28.12 28.12 0 0 1 0-56.23 28.12 28.12 0 0 1 0 56.23Zm0-54.23a26.12 26.12 0 0 0 0 52.23 26.12 26.12 0 0 0 0-52.23Z"></path><path class="cls-1" d="M253.83 119.65a28.12 28.12 0 0 1 0-56.23 27.81 27.81 0 0 1 17.44 6.07 28.12 28.12 0 0 1-17.44 50.16Zm0-54.23a26.12 26.12 0 0 0 0 52.23A26.11 26.11 0 0 0 270 71.06a25.85 25.85 0 0 0-16.17-5.64ZM101 78l-10.4 28.11-1.13-5.68-3.71-19c-.65-2.58-2.53-3.38-4.83-3.43H63.74l-.09.71a42.48 42.48 0 0 1 11.12 4.53l9.49 35.89h11.27L112.29 78ZM88.79 98.75l-.15-.34Zm59.93-4.14c-3.71-1.93-6-3.2-6-5.12 0-1.69 1.92-3.52 6.1-3.52a18.85 18.85 0 0 1 8 1.59l.94.47 1.46-8.92a24.33 24.33 0 0 0-9.58-1.83c-10.52 0-17.93 5.59-18 13.62-.05 5.91 5.31 9.25 9.3 11.22 4.17 2 5.54 3.28 5.54 5.11-.05 2.77-3.34 4-6.39 4a21 21 0 0 1-10-2.16l-1.36-.65-1.5 9.24a32.52 32.52 0 0 0 11.87 2.21c11.18 0 18.46-5.54 18.55-14.08.09-4.66-2.78-8.23-8.93-11.18Zm-32.11-16.63-6.67 41.23h10.66l6.67-41.23h-10.66zm69.91.02h-8.27c-2.53 0-4.46.71-5.58 3.43l-15.83 37.79H168s1.83-5.07 2.25-6.19h13.62c.33 1.45 1.31 6.19 1.31 6.19h9.91Zm-13.15 26.58c.89-2.35 4.23-11.51 4.23-11.51s.89-2.39 1.4-3.94l.71 3.57s2.06 9.86 2.49 11.88Z"></path><path class="cls-1" d="M361.94 197.19H16.39A16.41 16.41 0 0 1 0 180.8V16.39A16.41 16.41 0 0 1 16.39 0h345.55a16.41 16.41 0 0 1 16.39 16.39V180.8a16.41 16.41 0 0 1-16.39 16.39ZM16.39 2A14.41 14.41 0 0 0 2 16.39V180.8a14.4 14.4 0 0 0 14.39 14.39h345.55a14.41 14.41 0 0 0 14.39-14.39V16.39A14.41 14.41 0 0 0 361.94 2Z"></path></svg>