<svg xmlns="http://www.w3.org/2000/svg" xmlns:xlink="http://www.w3.org/1999/xlink" id="Layer_1" x="0px" y="0px" viewBox="0 0 378.3 197.2" style="enable-background:new 0 0 378.3 197.2;" xml:space="preserve"> <style type="text/css"> .st0{fill:#0D3A5C;} </style> <path class="st0" d="M361.9,197.2H16.4c-9,0-16.4-7.3-16.4-16.4V16.4C0,7.4,7.3,0,16.4,0l0,0h345.5c9,0,16.4,7.3,16.4,16.4v164.4 C378.3,189.9,371,197.2,361.9,197.2z M16.4,2C8.4,2,2,8.5,2,16.4l0,0v164.4c0,7.9,6.4,14.4,14.4,14.4h345.5 c7.9,0,14.4-6.4,14.4-14.4V16.4c0-8-6.4-14.4-14.4-14.4l0,0H16.4z"></path> <g id="Prepaid_card" transform="translate(-1105.909 -254.493)"> <g id="Group_237"> <path id="Path_2709" class="st0" d="M1345.4,394.1h-101c-5,0-9.1-4.1-9.1-9.1v-61.3c0-5,4.1-9.1,9.1-9.1h101c5,0,9.1,4.1,9.1,9.1 V385C1354.5,390,1350.4,394.1,1345.4,394.1z M1244.5,316.7c-3.9,0-7,3.1-7,7V385c0,3.9,3.1,7,7,7h101c3.9,0,7-3.1,7-7v-61.3 c0-3.9-3.1-7-7-7H1244.5z"></path> </g> <g id="Group_238"> <path id="Path_2710" class="st0" d="M1354.4,346.3h-119v-12.7h119V346.3z M1237.3,344.2h115v-8.4h-115V344.2z"></path> </g> <g id="Group_239"> <path id="Path_2711" class="st0" d="M1263.4,377.4h-16.8c-0.6,0-1.1-0.5-1.1-1.1s0.5-1.1,1.1-1.1h16.8c0.6,0,1.1,0.5,1.1,1.1 S1264,377.4,1263.4,377.4z"></path> </g> <g id="Group_240"> <path id="Path_2712" class="st0" d="M1289.7,377.4h-16.8c-0.6,0-1.1-0.5-1.1-1.1s0.5-1.1,1.1-1.1h16.8c0.6,0,1.1,0.5,1.1,1.1 C1290.7,376.9,1290.3,377.4,1289.7,377.4z"></path> </g> <g id="Group_241"> <path id="Path_2713" class="st0" d="M1334.5,383.2c-3.8,0-6.8-3.1-6.8-6.8c0-3.8,3.1-6.8,6.8-6.8c3.8,0,6.8,3.1,6.8,6.8l0,0 C1341.3,380.1,1338.3,383.2,1334.5,383.2z M1334.5,371.6c-2.6,0-4.7,2.1-4.7,4.7s2.1,4.7,4.7,4.7s4.7-2.1,4.7-4.7l0,0 C1339.2,373.8,1337.1,371.7,1334.5,371.6z"></path> </g> </g> </svg>