<svg xmlns="http://www.w3.org/2000/svg" id="Layer_1" data-name="Layer 1" viewBox="0 0 482.2 113.65"><defs><style>.cls-1{fill:#00517f}.cls-2{fill:#255080}.cls-7{fill:#e20613;fill-rule:evenodd}</style></defs><path class="cls-1" d="M243.11 0h4.71v100.53h-4.71z"></path><path class="cls-2" d="M278.49 103.15h1.9l-.17.76a5 5 0 0 1 1.14-.72 3 3 0 0 1 1.14-.21 2.37 2.37 0 0 1 1.87.8 3.52 3.52 0 0 1 .7 2.39 4.9 4.9 0 0 1-1.22 3.38 3.2 3.2 0 0 1-2.47 1.17 2.44 2.44 0 0 1-2.22-1.19l-.8 3.84h-2Zm1.21 4.24a2 2 0 0 0 .42 1.35 1.3 1.3 0 0 0 1 .47 1.51 1.51 0 0 0 .95-.36 2.61 2.61 0 0 0 .77-1.19 4.55 4.55 0 0 0 .3-1.54 1.81 1.81 0 0 0-.4-1.27 1.27 1.27 0 0 0-1-.44 1.54 1.54 0 0 0-1 .4A2.61 2.61 0 0 0 280 106a4.6 4.6 0 0 0-.25 1.38m6.25.1a4.59 4.59 0 0 1 1.16-3.28 4 4 0 0 1 3.05-1.22 3.51 3.51 0 0 1 2.56.9 3.26 3.26 0 0 1 .92 2.43 4.6 4.6 0 0 1-1.15 3.11 4.33 4.33 0 0 1-4.93.89 2.78 2.78 0 0 1-1.21-1.19 3.58 3.58 0 0 1-.4-1.64m5.7-1.43a1.61 1.61 0 0 0-.41-1.14 1.46 1.46 0 0 0-1.07-.43 1.83 1.83 0 0 0-1.15.4 2.52 2.52 0 0 0-.78 1.17 4 4 0 0 0-.28 1.4 1.77 1.77 0 0 0 .43 1.26 1.43 1.43 0 0 0 1.09.47 1.7 1.7 0 0 0 1.38-.71 3.75 3.75 0 0 0 .79-2.42m10.47 4.5h-1.88l-.36-4.71-2.26 4.71h-1.85l-.93-7.4h1.78l.51 4.96 2.31-4.96h1.82l.25 4.96 2.29-4.96h2.01l-3.69 7.4zm10.57-3.08h-5v.18a1.64 1.64 0 0 0 .43 1.19 1.32 1.32 0 0 0 1 .46 1.72 1.72 0 0 0 1.56-1l1.79.3a3.77 3.77 0 0 1-1.4 1.61 3.66 3.66 0 0 1-2 .54 3.25 3.25 0 0 1-2.42-.94 3.37 3.37 0 0 1-.94-2.5 4.55 4.55 0 0 1 .84-2.7 3.8 3.8 0 0 1 3.29-1.6 2.86 2.86 0 0 1 2.16.84 3.28 3.28 0 0 1 .8 2.35 5.69 5.69 0 0 1-.14 1.3m-1.69-1.22a1.64 1.64 0 0 0 0-.2 1.76 1.76 0 0 0-.37-1.23 1.26 1.26 0 0 0-1-.41 1.58 1.58 0 0 0-1.11.46 2.49 2.49 0 0 0-.67 1.38Zm3.88-3.13h1.87l-.3 1.44a2.85 2.85 0 0 1 2.27-1.61 2.38 2.38 0 0 1 .92.21l-.76 1.64a1.91 1.91 0 0 0-.58-.1 1.76 1.76 0 0 0-1.05.39 2.56 2.56 0 0 0-.83 1 10.47 10.47 0 0 0-.6 2.06l-.48 2.32h-2Zm11.32 4.32h-5a1.36 1.36 0 0 0 0 .18 1.68 1.68 0 0 0 .42 1.19 1.34 1.34 0 0 0 1 .46 1.72 1.72 0 0 0 1.55-1l1.79.3a3.58 3.58 0 0 1-3.35 2.15 3.25 3.25 0 0 1-2.43-.94 3.4 3.4 0 0 1-.93-2.5 4.55 4.55 0 0 1 .84-2.7 3.79 3.79 0 0 1 3.28-1.6 2.83 2.83 0 0 1 2.16.84 3.24 3.24 0 0 1 .8 2.35 5.18 5.18 0 0 1-.14 1.3m-1.68-1.22v-.2a1.81 1.81 0 0 0-.37-1.23 1.26 1.26 0 0 0-1-.41 1.54 1.54 0 0 0-1.11.46 2.49 2.49 0 0 0-.67 1.38Zm9.26 4.27h-1.89l.16-.8a3.61 3.61 0 0 1-1.07.75 3 3 0 0 1-1.18.22 2.42 2.42 0 0 1-1.87-.78 3.35 3.35 0 0 1-.71-2.32 5.48 5.48 0 0 1 1-3.21 3.1 3.1 0 0 1 2.66-1.43 2.46 2.46 0 0 1 2.23 1.18l.8-3.82h2Zm-4.62-3a1.83 1.83 0 0 0 .4 1.24 1.28 1.28 0 0 0 1 .45 1.59 1.59 0 0 0 1-.38 2.4 2.4 0 0 0 .75-1.14 4.22 4.22 0 0 0 .29-1.47 1.89 1.89 0 0 0-.44-1.29 1.28 1.28 0 0 0-1-.5 1.65 1.65 0 0 0-1.44 1 4.1 4.1 0 0 0-.57 2.11m10.42 2.98 2.13-10.21h2l-.72 3.41a3.83 3.83 0 0 1 1-.59 2.91 2.91 0 0 1 1-.18 2.39 2.39 0 0 1 1.87.78 3.31 3.31 0 0 1 .71 2.28 5.89 5.89 0 0 1-.33 2 4.45 4.45 0 0 1-.89 1.55 4.05 4.05 0 0 1-1.16.89 3 3 0 0 1-1.28.28 2.45 2.45 0 0 1-2.33-1.39l-.26 1.22Zm2.7-3a1.76 1.76 0 0 0 .42 1.22 1.29 1.29 0 0 0 1 .46 1.55 1.55 0 0 0 1-.36 2.75 2.75 0 0 0 .76-1.16 4.45 4.45 0 0 0 .3-1.6 1.77 1.77 0 0 0-.41-1.23 1.28 1.28 0 0 0-1-.45 1.62 1.62 0 0 0-1.3.69 3.82 3.82 0 0 0-.74 2.43m6.69-4.4h2l.5 3.69c.13.94.2 1.61.21 2a15.44 15.44 0 0 1 1.08-2.4l1.77-3.28h2.11l-4.57 8.13a11.68 11.68 0 0 1-.88 1.41 2.3 2.3 0 0 1-1.88.86 5.25 5.25 0 0 1-1.43-.22l.17-1.49a2.59 2.59 0 0 0 .71.1c.61 0 1.11-.46 1.51-1.39Z"></path><path class="cls-1" d="M349.25 30.61c-.18-4.16-3.8-8.69-8.33-10.87s-7.07-2.17-7.07-2.17H296l-18.66 66.48h21l5.07-18.48c4.89 1.45 18.66.18 24.27-1.63S338.2 60.5 344 50.81s5.43-16 5.25-20.2m-24.44 17c-2.83 3-4 3.5-5.63 3.7-3 .37-12.13 0-12.13 0l5.25-17.29s7.77-.39 10.32 0a6.07 6.07 0 0 1 4.9 4c.91 2.72.43 6.25-2.71 9.6m85.48-29.52 13.4 42.93-6.7 22.82h21.92l6.16-22.82L482.2 18.1h-24.09l-17.75 22.64-7.06-22.64h-23.01zm-13.04-.53h-21.56l-45.64 65.75h22.46l6.34-9.42h24.27l.88 10.15h22.28ZM367.72 60.5l11.6-17.8 2.53 17.8Z"></path><path class="cls-2" d="m372.13 107.07 1.46.36a5 5 0 0 1-1.65 2.75 4.56 4.56 0 0 1-2.92.94 5.26 5.26 0 0 1-2.9-.72 4.57 4.57 0 0 1-1.71-2.11 7.48 7.48 0 0 1-.58-3 6.51 6.51 0 0 1 .66-3 4.58 4.58 0 0 1 1.87-1.95 5.57 5.57 0 0 1 2.68-.66 4.53 4.53 0 0 1 2.79.84 4.34 4.34 0 0 1 1.57 2.37l-1.44.34a3.32 3.32 0 0 0-1.11-1.75A3 3 0 0 0 369 101a3.55 3.55 0 0 0-2.13.61 3.17 3.17 0 0 0-1.2 1.64 7.16 7.16 0 0 0 .07 4.57 3 3 0 0 0 1.27 1.57 3.58 3.58 0 0 0 1.88.52 3.15 3.15 0 0 0 2.08-.7 3.71 3.71 0 0 0 1.15-2.1m2.88-1.55a6 6 0 0 1 1.47-4.31 5.06 5.06 0 0 1 3.81-1.55 5.27 5.27 0 0 1 2.76.73 4.79 4.79 0 0 1 1.87 2 7 7 0 0 1 0 6 4.59 4.59 0 0 1-1.92 2 5.42 5.42 0 0 1-2.68.68 5.25 5.25 0 0 1-2.79-.75 4.85 4.85 0 0 1-1.86-2.05 6.27 6.27 0 0 1-.63-2.76m1.5 0a4.43 4.43 0 0 0 1.08 3.15 3.53 3.53 0 0 0 2.69 1.14 3.49 3.49 0 0 0 2.71-1.16 4.69 4.69 0 0 0 1.07-3.29 5.54 5.54 0 0 0-.46-2.35 3.45 3.45 0 0 0-1.33-1.56 3.59 3.59 0 0 0-2-.55 3.75 3.75 0 0 0-2.67 1.06 4.79 4.79 0 0 0-1.12 3.56m10.87 5.39V99.89h1.5l5.8 8.67v-8.67h1.4v11.05h-1.5l-5.8-8.68v8.68h-1.4zm11.19 0V99.89h7.98v1.31h-6.52v3.38h6.11v1.3h-6.11v3.75h6.78v1.31h-8.24zm10.2 0V99.89h1.46v5.48l5.48-5.48h1.98l-4.63 4.48 4.83 6.57h-1.92l-3.94-5.59-1.8 1.76v3.83h-1.46zm13.16 0v-9.74h-3.64v-1.31h8.75v1.31h-3.65v9.74h-1.46zm4.25 0 4.24-11H432l4.52 11h-1.66l-1.29-3.35h-4.62l-1.21 3.35Zm3.19-4.54h3.74l-1.1-3.06c-.35-.92-.62-1.69-.79-2.29a14.39 14.39 0 0 1-.59 2.11Z"></path><path style="fill:#0596a5" d="m443.85 96.94 6.59 8.55-6.59 8.16h5.7l5.98-8.16-6.79-8.55h-4.89z"></path><path style="fill:#e7573a" d="m446.27 100.07-4.69 5.42 4.77 5.06 2.11-2.77-2.17-2.29 2.15-2.6-2.17-2.82z"></path><rect width="218.12" height="100.53" rx="6.79" style="fill:#eea616"></rect><path style="fill:#fff" d="M0 9.87h218.12v80.79H0z"></path><path class="cls-7" d="M184.85 30.85A18.12 18.12 0 1 0 203 49a18.16 18.16 0 0 0-18.11-18.12m-149.35-.03A18.12 18.12 0 1 0 53.66 49a18.15 18.15 0 0 0-18.12-18.15"></path><path class="cls-7" d="M183.43 14.91c-16.77-.39-24.66 10.37-36.1 23.63l-10.79 12.51 17.09 20.46c4.07 6.29-3.7 12.52-8.52 6.77l-15.8-18.85-15.4 17.85c-4.9 5.68-12.59-.66-8.43-6.89L122.2 51l-11-13.06 7-8.73 11.14 13.38L139 31.37c4.71-5.47 9.51-12.73 15.74-16.46H0v70.71h36.19c16.77 0 24.38-10 35.51-23.55l10.51-12.76-17.57-20c-4.21-6.2 3.41-12.61 8.37-7l16.23 18.46 15-18.2c4.77-5.8 12.59.37 8.58 6.7L96.54 49.09l11.25 12.8-7.08 8.4-11.2-12.63L80.17 69c-4.58 5.59-9.23 12.71-15.37 16.58h153.32V14.91ZM64.16 49a28.62 28.62 0 1 1-28.62-28.65A28.67 28.67 0 0 1 64.16 49m120.69 28.59A28.62 28.62 0 1 1 213.47 49a28.68 28.68 0 0 1-28.62 28.62"></path></svg>