<svg xmlns="http://www.w3.org/2000/svg" xmlns:xlink="http://www.w3.org/1999/xlink" id="Capa_2" x="0px" y="0px" viewBox="0 0 491 172" style="enable-background:new 0 0 491 172;" xml:space="preserve"> <style type="text/css"> .st0{fill:#F3921A;} .st1{fill:#323184;} </style> <polygon class="st0" points="277,20.2 277,151 388,151 388,122.7 318.5,122.7 318.5,92.5 381.5,92.5 381.5,66 318.5,66 318.5,52.5 388,52.5 388,20.2 "></polygon> <polygon class="st1" points="403,62 418,62 418,34 445,70 445,18 403,18 "></polygon> <polygon class="st1" points="403,90 418,90 418,117 445,81 445,149 403,149 "></polygon> <path class="st1" d="M460.1,31V20.2h4.6c1.1,0,2,0.1,2.5,0.3c0.5,0.2,0.9,0.5,1.2,1s0.5,1.1,0.5,1.7c0,0.8-0.2,1.5-0.7,2 s-1.2,0.9-2.1,1c0.5,0.3,0.9,0.6,1.2,0.9s0.7,0.9,1.2,1.8l1.3,2.1h-2.6l-1.6-2.3c-0.6-0.8-0.9-1.4-1.1-1.6s-0.4-0.4-0.6-0.5 c-0.2-0.1-0.6-0.1-1.1-0.1h-0.4V31H460.1z M462.2,24.8h1.6c1,0,1.7,0,2-0.1c0.3-0.1,0.5-0.2,0.6-0.5s0.2-0.5,0.2-0.8 c0-0.4-0.1-0.6-0.3-0.9c-0.2-0.2-0.5-0.4-0.8-0.4c-0.2,0-0.7,0-1.6,0h-1.7L462.2,24.8L462.2,24.8z"></path> <path class="st1" d="M464.9,36c-5.7,0-10.4-4.7-10.4-10.4s4.7-10.4,10.4-10.4c5.7,0,10.4,4.7,10.4,10.4S470.6,36,464.9,36z M464.9,17.2c-4.6,0-8.4,3.8-8.4,8.4s3.8,8.4,8.4,8.4s8.4-3.8,8.4-8.4S469.5,17.2,464.9,17.2z"></path> <path class="st1" d="M154.7,150V18h50.4c17.2,0,28.4,0.7,33.7,2c8,2,14.8,6.4,20.2,13.2s8.1,15.5,8.1,26.3c0,8.3-1.6,15.3-4.7,20.9 c-3.1,5.7-7.1,10.1-11.9,13.3c-4.8,3.2-9.7,5.4-14.7,6.4c-6.8,1.3-16.5,1.9-29.4,1.9H196V150H154.7z M195,45v29h10.2 c7.4,0,12.3-0.5,14.8-1.6c2.5-1.1,4.4-2.7,5.9-5c1.4-2.3,2.1-4.9,2.1-8c0-3.7-1-6.8-3-9.2c-2-2.4-4.5-3.9-7.5-4.5 c-2.2-0.5-6.7-0.7-13.5-0.7C204,45,195,45,195,45z"></path> <path class="st1" d="M25,106l38-2c1.5,6.9,3.5,13.7,8.1,17.3c4.6,3.6,7,5.3,15.2,5.3c9.1,0,9.9-1.7,14.5-5c3.1-2.3,4.6-5.5,4.6-9.4 c0-2.7-0.8-4.9-2.5-6.7c-1.8-1.7-5.7-5.2-11.7-6.7c-28.3-6.3-40.2-12-47.8-17.2c-10.5-7.2-12.7-15.2-12.7-28 c0-11.6,5.5-19.3,14.6-27.1c9.1-7.9,21.1-9.8,40.2-9.8c18.1,0,31.6,3,40.5,8.9c8.8,5.9,11.2,18.2,14.6,29.9l-38,2 C101.1,52.3,100,47,96,44.2c-3.9-2.8-8.5-4.7-13.5-4.7s-7.3,0.9-11.3,3.5c-2.7,1.8-4,4.2-4,7.2c0,2.5,1.2,4.7,3.5,6.4 c3.2,2.3,7.1,3.7,25.8,7.9c18.7,4.3,29.7,10.5,37.1,16.7c7.3,6.3,11,15,11,26.3c0,12.2-5.1,22.7-15.2,31.5 c-10.2,8.8-23.2,13.2-43.1,13.2c-18.1,0-34.4-3.7-44.9-11.1C30.9,133.7,28.2,118.6,25,106z"></path> </svg>