<svg xmlns="http://www.w3.org/2000/svg" id="Layer_1" data-name="Layer 1" viewBox="0 0 187.35 145.58"><defs><style>.cls-4{fill:#f59e00}</style></defs><path d="M32.1 130.68a5.51 5.51 0 0 0-1.91-1.25 6.39 6.39 0 0 0-2.42-.45 9.15 9.15 0 0 0-1.45.12 6.47 6.47 0 0 0-1.47.42 5.32 5.32 0 0 0-1.37.84 5 5 0 0 0-1.13 1.35 5.53 5.53 0 0 0-2.1-2 6.12 6.12 0 0 0-3-.73 7 7 0 0 0-1.18.1 5.64 5.64 0 0 0-1.22.36 4.79 4.79 0 0 0-1.15.7 4.7 4.7 0 0 0-1 1.11v-1.87H9.45v15.32h3.25v-8.49a4.73 4.73 0 0 1 .31-1.74 3.94 3.94 0 0 1 .83-1.27 3.54 3.54 0 0 1 1.22-.78 4.27 4.27 0 0 1 1.48-.26 3.2 3.2 0 0 1 2.55 1 4.42 4.42 0 0 1 .9 3v8.52h3.26v-8.49a4.54 4.54 0 0 1 .31-1.74 3.76 3.76 0 0 1 .82-1.27 3.54 3.54 0 0 1 1.22-.78 4.27 4.27 0 0 1 1.48-.26 3.2 3.2 0 0 1 2.55 1 4.37 4.37 0 0 1 .91 3v8.52h3.25v-9.63a6.77 6.77 0 0 0-.44-2.46 5.64 5.64 0 0 0-1.25-1.93m17.14.59a6 6 0 0 0-2-1.64 6.06 6.06 0 0 0-2.83-.61 7.52 7.52 0 0 0-3 .6 7.43 7.43 0 0 0-2.41 1.67 7.64 7.64 0 0 0-1.63 2.55 9.19 9.19 0 0 0 0 6.48 7.74 7.74 0 0 0 1.63 2.55 7.47 7.47 0 0 0 5.44 2.27 6.06 6.06 0 0 0 2.83-.61 5.82 5.82 0 0 0 2-1.63v1.84h3.35v-15.32h-3.38Zm-.12 7.77a4.69 4.69 0 0 1-.95 1.55 4.31 4.31 0 0 1-1.45 1 4.66 4.66 0 0 1-1.89.38 4.6 4.6 0 0 1-1.94-.39 4.32 4.32 0 0 1-1.45-1.06 4.49 4.49 0 0 1-.91-1.56 5.8 5.8 0 0 1 0-3.8 4.49 4.49 0 0 1 .91-1.56 4.19 4.19 0 0 1 1.45-1.06 4.6 4.6 0 0 1 1.94-.39 4.65 4.65 0 0 1 1.89.37 4.48 4.48 0 0 1 1.45 1 4.59 4.59 0 0 1 .95 1.55 5.93 5.93 0 0 1 0 3.9M68 137a8.3 8.3 0 0 0-4-1.45l-1.58-.24q-.53-.08-1-.18a3.12 3.12 0 0 1-.8-.28 1.71 1.71 0 0 1-.54-.45 1.11 1.11 0 0 1-.2-.67 1.52 1.52 0 0 1 .76-1.32 3.83 3.83 0 0 1 2.14-.5 8.21 8.21 0 0 1 1.41.12 11.6 11.6 0 0 1 1.32.32 8.79 8.79 0 0 1 1.14.43 7.51 7.51 0 0 1 .86.44l1.49-2.61a9.77 9.77 0 0 0-2.8-1.19 13.3 13.3 0 0 0-3.4-.43 9.32 9.32 0 0 0-2.64.35 6.06 6.06 0 0 0-2 1 4.32 4.32 0 0 0-1.27 1.55 4.66 4.66 0 0 0-.44 2 3.77 3.77 0 0 0 1.32 3 7.37 7.37 0 0 0 3.88 1.5l1.6.21a5.14 5.14 0 0 1 2 .61 1.29 1.29 0 0 1 .64 1.08 1.54 1.54 0 0 1-.88 1.37 5.34 5.34 0 0 1-2.61.5 10.73 10.73 0 0 1-1.69-.12 8.43 8.43 0 0 1-1.36-.35 6.61 6.61 0 0 1-1.1-.49 9 9 0 0 1-.91-.6l-1.55 2.51a8.81 8.81 0 0 0 1.75 1 13 13 0 0 0 1.79.6A10.66 10.66 0 0 0 61 145c.52.05 1 .08 1.38.08a11.07 11.07 0 0 0 3-.37 6.74 6.74 0 0 0 2.19-1 4.68 4.68 0 0 0 1.36-1.59 4.42 4.42 0 0 0 .47-2A3.65 3.65 0 0 0 68 137m31.25-5.79a6.49 6.49 0 0 0-2.25-1.65 7.24 7.24 0 0 0-3-.56 7.91 7.91 0 0 0-3.09.58 6.9 6.9 0 0 0-2.41 1.65 7.66 7.66 0 0 0-1.5 2.53 9.29 9.29 0 0 0-.6 3.24 9 9 0 0 0 .58 3.31 7.3 7.3 0 0 0 1.61 2.54 7.09 7.09 0 0 0 2.48 1.63 8.36 8.36 0 0 0 3.17.58 11.34 11.34 0 0 0 3.32-.48 8.34 8.34 0 0 0 3-1.68l-1.66-2.38a7.51 7.51 0 0 1-2.12 1.19 6.72 6.72 0 0 1-2.31.42 5.42 5.42 0 0 1-1.57-.22 4.09 4.09 0 0 1-1.36-.7 4.22 4.22 0 0 1-1-1.2 5 5 0 0 1-.59-1.78h11.32a5.58 5.58 0 0 0 .05-.61v-.64a9.51 9.51 0 0 0-.54-3.27 7.54 7.54 0 0 0-1.49-2.54m-9.34 4.52a5.56 5.56 0 0 1 .44-1.53 4.28 4.28 0 0 1 .83-1.2 3.42 3.42 0 0 1 1.2-.78A4.34 4.34 0 0 1 94 132a3.59 3.59 0 0 1 2.61 1 4.88 4.88 0 0 1 1.28 2.79Zm53.72-4.46a6.1 6.1 0 0 0-2-1.64 6 6 0 0 0-2.83-.61 7.48 7.48 0 0 0-3 .6 7.33 7.33 0 0 0-2.43 1.67 7.66 7.66 0 0 0-1.64 2.55 9.19 9.19 0 0 0 0 6.48 7.76 7.76 0 0 0 1.64 2.55 7.47 7.47 0 0 0 5.43 2.27 6 6 0 0 0 2.83-.61 6 6 0 0 0 2-1.63v1.84H147v-15.32h-3.34Zm-.13 7.76a4.67 4.67 0 0 1-.94 1.55 4.35 4.35 0 0 1-1.46 1 4.59 4.59 0 0 1-1.89.38 4.64 4.64 0 0 1-1.94-.39 4.42 4.42 0 0 1-1.45-1.06 4.65 4.65 0 0 1-.91-1.56 5.8 5.8 0 0 1 0-3.8 4.65 4.65 0 0 1 .91-1.56 4.29 4.29 0 0 1 1.45-1.06 4.64 4.64 0 0 1 1.94-.39 4.59 4.59 0 0 1 1.89.37 4.52 4.52 0 0 1 1.46 1 4.57 4.57 0 0 1 .94 1.55 5.76 5.76 0 0 1 0 3.9m-61.25 2.73a4.56 4.56 0 0 1-1.59.3 2.67 2.67 0 0 1-1-.16 2 2 0 0 1-.77-.5 2.49 2.49 0 0 1-.52-.89 3.9 3.9 0 0 1-.19-1.31v-6.67h5.36v-3h-5.31v-4.64h-3.36v4.64h-3.06v3h3.06v6.73a6.14 6.14 0 0 0 1.44 4.5 5.48 5.48 0 0 0 4.06 1.45 7.14 7.14 0 0 0 2.61-.45 9.43 9.43 0 0 0 1.43-.67l-1.14-2.8a7.93 7.93 0 0 1-1 .47M112.47 129a6.1 6.1 0 0 0-2.54.51 5.34 5.34 0 0 0-1.91 1.9v-2h-3v15.29h3.06v-8.43a5.2 5.2 0 0 1 .28-1.74 3.76 3.76 0 0 1 .75-1.3 3.1 3.1 0 0 1 1.15-.8 3.92 3.92 0 0 1 1.47-.27 7 7 0 0 1 1.31.14 5.4 5.4 0 0 1 .67.18l1-3.19a5.47 5.47 0 0 0-.82-.21 8.28 8.28 0 0 0-1.38-.1m46.43.02a6.13 6.13 0 0 0-2.54.51 5.42 5.42 0 0 0-1.91 1.9v-2h-3v15.29h3.07v-8.43a5.21 5.21 0 0 1 .27-1.74 3.76 3.76 0 0 1 .75-1.3 3.1 3.1 0 0 1 1.15-.8 3.92 3.92 0 0 1 1.47-.27 7.07 7.07 0 0 1 1.32.14 6.55 6.55 0 0 1 .67.18l1-3.19a5.8 5.8 0 0 0-.82-.21 8.48 8.48 0 0 0-1.39-.1m15.58-5.83v8.08a5.79 5.79 0 0 0-4.82-2.25 7.47 7.47 0 0 0-5.44 2.27 7.8 7.8 0 0 0-1.63 2.55 9.19 9.19 0 0 0 0 6.48 7.9 7.9 0 0 0 1.63 2.55 7.7 7.7 0 0 0 2.43 1.67 7.52 7.52 0 0 0 3 .6 6.06 6.06 0 0 0 2.83-.61 6 6 0 0 0 2-1.63v1.84h3.34v-21.55Zm-.13 15.85a4.69 4.69 0 0 1-1 1.55 4.31 4.31 0 0 1-1.45 1 5 5 0 0 1-3.83 0 4.32 4.32 0 0 1-1.45-1.06 4.65 4.65 0 0 1-.91-1.56 5.8 5.8 0 0 1 0-3.8 4.65 4.65 0 0 1 .91-1.56 4.19 4.19 0 0 1 1.45-1.06 5 5 0 0 1 3.83 0 4.48 4.48 0 0 1 1.45 1 4.59 4.59 0 0 1 1 1.55 5.93 5.93 0 0 1 0 3.9m-53.96-5.46a4.4 4.4 0 0 1 1.52-1 5 5 0 0 1 1.9-.36 6 6 0 0 1 2.1.36 4.89 4.89 0 0 1 1.62 1l1.61-2.68a8.21 8.21 0 0 0-2-1.19 9.15 9.15 0 0 0-6.57 0 7.79 7.79 0 0 0-4.33 4.25 8.57 8.57 0 0 0 0 6.4 7.91 7.91 0 0 0 1.72 2.55 8.07 8.07 0 0 0 2.61 1.7 9.15 9.15 0 0 0 6.57 0 8.21 8.21 0 0 0 2-1.19l-1.61-2.68a5.07 5.07 0 0 1-1.62 1 6 6 0 0 1-2.1.36 5 5 0 0 1-1.9-.36 4.54 4.54 0 0 1-1.52-1 4.73 4.73 0 0 1-1-1.55 5.54 5.54 0 0 1 0-4 4.73 4.73 0 0 1 1-1.55m64.47 8.9a1.68 1.68 0 0 1 .63.12 1.57 1.57 0 0 1 .51.34 1.5 1.5 0 0 1 .34 1.7 1.59 1.59 0 0 1-.85.84 1.74 1.74 0 0 1-1.27 0 1.59 1.59 0 0 1-.85-.84 1.52 1.52 0 0 1 .34-1.7 1.57 1.57 0 0 1 .51-.34 1.69 1.69 0 0 1 .64-.12m0 2.69a1.08 1.08 0 0 0 .44-.09 1.13 1.13 0 0 0 .36-.24 1 1 0 0 0 .23-.36 1.12 1.12 0 0 0 0-.88 1 1 0 0 0-.23-.36 1.13 1.13 0 0 0-.36-.24 1.08 1.08 0 0 0-.44-.09 1.13 1.13 0 0 0-.45.09 1.41 1.41 0 0 0-.36.24 1.13 1.13 0 0 0-.24.36 1.25 1.25 0 0 0 0 .88 1.13 1.13 0 0 0 .24.36 1.41 1.41 0 0 0 .36.24 1.13 1.13 0 0 0 .45.09m.09-1.82a.65.65 0 0 1 .43.12.43.43 0 0 1 .15.34.39.39 0 0 1-.1.28.56.56 0 0 1-.31.14l.43.5h-.47l-.38-.48h-.05v.48h-.39v-1.38Zm-.3.33v.26h.27a.24.24 0 0 0 .14 0s.05 0 .05-.1a.11.11 0 0 0-.05-.1.24.24 0 0 0-.14 0Z" style="fill:#1d1d1b"></path><path d="M71.64 57.75a57.64 57.64 0 0 1 21.93-45.28 57.75 57.75 0 1 0 0 90.56 57.64 57.64 0 0 1-21.93-45.28" style="fill:#e20d17"></path><path d="M71.64 57.75A57.64 57.64 0 0 0 93.57 103a57.71 57.71 0 0 0 0-90.56 57.64 57.64 0 0 0-21.93 45.31" style="fill:#ea610a"></path><path class="cls-4" d="M183.23 89v-1.7h-.69v-.47h1.87v.47h-.68V89Zm3.62 0v-1.5l-.49 1.29h-.53l-.49-1.29V89h-.5v-2.17h.72l.53 1.38.54-1.38h.72V89Z"></path><path class="cls-4" d="M129.39 0a57.48 57.48 0 0 0-35.82 12.47 57.71 57.71 0 0 1 0 90.56A57.74 57.74 0 1 0 129.39 0"></path></svg>