<?xml version="1.0" encoding="utf-8"?>
<!-- Generator: Adobe Illustrator 26.3.1, SVG Export Plug-In . SVG Version: 6.00 Build 0)  -->
<svg version="1.1" id="Layer_1" xmlns="http://www.w3.org/2000/svg" xmlns:xlink="http://www.w3.org/1999/xlink" x="0px" y="0px"
	 viewBox="0 0 140 160" style="enable-background:new 0 0 140 160;" xml:space="preserve">
<style type="text/css">
	.st0{fill:#7597AC;}
</style>
<g>
	<path class="st0" d="M72,106.6c0,0.3-0.1,0.7-0.1,1c-0.4,2.1-1.5,4-3.1,5.5c-2.6,2.6-5.9,4.4-9.5,5.4c-1.9,0.5-3.9,0.9-5.8,1.1
		c-1.1,0.1-2.4,0.1-3.5,0.3c-1.2,0.1-2.5,0.2-3.8,0.1c-2.3-0.1-4.6-0.2-6.8-0.6c-2.5-0.6-4.9-0.8-7-1.8c-4.1-1.7-6.9-5.4-7.4-9.8
		c-0.1-1.3-0.2-2.6-0.1-3.9c0-0.1,0.1-0.3,0.1-0.6l3.8,0.4c1.7,0.1,3.5,0.4,5.1,0.6c0.8,0.1,1.8,0.1,2.8,0.3
		c1.3,0.1,2.5,0.3,3.9,0.6c0.1,0,0.3,0.1,0.3,0.3c0.5,2.1,2.2,3.6,4.3,3.9c1.7,0.4,3.5,0.3,5.1-0.3c2.2-0.7,3.3-2.4,3.8-4.5
		c0.2-1.1,0.2-2.1,0.3-3.2c0.1-2.2,0-4.3,0-6.4v-0.4L54,95c-2.4,2.9-5.7,4.9-9.4,5.4c-1.5,0.3-3,0.4-4.4,0.3
		c-6-0.7-10.4-3.9-13.5-9.2c-1.3-2.4-2.2-5-2.5-7.6c-0.3-2.2-0.4-4.3-0.3-6.5c0.1-4.2,0.8-8.1,3.2-11.5c2.3-3.8,6.2-6.3,10.6-7.1
		c1.3-0.2,2.6-0.3,3.9-0.3c2.4-0.1,4.8,0.3,7.1,1.3c2.5,1.2,4.6,2.9,6.1,5.1c0.2,0.3,0.4,0.6,0.7,0.8v-7h30v-18h21.7v18.1h10v11h-10
		c0,0.4-0.1,0.7-0.1,1V74c0,1.8-0.1,3.5-0.1,5.1c0,1.4-0.1,2.8-0.1,4.2c0,1.7-0.1,3.3-0.1,5c0,2.2-0.1,4.2-0.1,6.4
		c0,1.8,0.8,2.8,2.6,3.2c0.4,0.1,0.7,0.2,1.1,0.1h6.8v15.4h-1.7c-4.9,0-9.7,0.1-14.7,0c-3.2-0.1-6.5-0.6-9.4-2.1
		c-1.5-0.8-2.8-2-3.8-3.5c-1.1-2.1-2.1-4.2-2.1-6.7c-0.1-2.9-0.1-6-0.1-8.9c0-7.4-0.1-14.7-0.1-22.1V70H71.5v1
		C72,82.7,72,94.7,72,106.6z M40,80.2c0.1,1.1,0.2,2.2,0.4,3.3c0.6,3.2,2.9,6.4,7.6,6c1-0.1,2-0.4,2.9-1c2.5-1.7,3.3-4.2,3.5-6.9
		v-2.5c0-1.2-0.2-2.4-0.6-3.5c-1.1-3.2-4-5.7-8.2-5.1c-2.1,0.2-3.9,1.6-4.7,3.6C40.4,76.1,40.1,78.2,40,80.2z"/>
	<path class="st0" d="M72,106.6V70.4c3.3,1,6.8,2.1,10.1,3.1c0.3,0.1,0.3,0.3,0.3,0.6v27.4c0,0.3-0.1,0.6-0.4,0.6l-9.6,4.6
		C72.3,106.5,72.1,106.5,72,106.6z"/>
</g>
</svg>
