<?xml version="1.0" encoding="utf-8"?>
<!-- Generator: Adobe Illustrator 26.3.1, SVG Export Plug-In . SVG Version: 6.00 Build 0)  -->
<svg version="1.1" id="Layer_1" xmlns="http://www.w3.org/2000/svg" xmlns:xlink="http://www.w3.org/1999/xlink" x="0px" y="0px"
	 viewBox="0 0 200 160" style="enable-background:new 0 0 200 160;" xml:space="preserve">
<style type="text/css">
	.st0{fill:#7597AC;}
</style>
<path class="st0" d="M4.4,91c-0.1,0-0.2,0-0.3-0.1c-1.2-1.3-2.9-2.3-2.9-4.6c0.2,0.3,0.5,0.6,0.6,0.9c0.2,0.2,0.3,0.3,0.5,0.5
	c0.4-0.3,0.8-0.5,1.3-0.5c0.3,0,0.7,0.1,0.9,0.4c0.8,0.7,1.2,1.8,1,2.9C5.3,91.2,4.8,91.3,4.4,91z"/>
<path class="st0" d="M11.1,97.4L11.1,97.4c0.2,0.2,0.8,0,1-0.2c0.2-0.3,0.2-0.7,0-1c-0.4-1.4-1.8-2.2-3.2-1.9c-0.1,0-0.2,0-0.3,0
	c-0.2,0-0.4,0.1-0.5,0.1c-0.6,0-1.2-0.2-1.7-0.7c-0.6-0.5-1.2-1-1.9-1.5c0.1,1.3,0.8,2.5,1.9,3.2l0.1,0.1h0.1c0.1,0,0.1,0.1,0.2,0.1
	c1.1,0.2,2.2,0.7,3.1,1.5c0.3,0.2,0.7,0.3,1,0.4L11.1,97.4z"/>
<path class="st0" d="M8.1,65.8c0.2,0,0.4,0,0.6,0.1C8.8,66,9.1,66,9.3,66c1.3,0,2.5-0.6,3.1-1.8c0.2-0.3,0.2-0.7,0-1
	c-0.3-0.3-0.8-0.5-1.2-0.4c-0.6,0.2-1.3,0.6-2,0.8C8.6,64,8,64.3,7.4,64.4c-1.5,0.4-2.7,1.7-2.7,3.3l1.9-1.2
	C7,66.1,7.5,65.9,8.1,65.8z"/>
<path class="st0" d="M32.8,94.6h-0.2c-1,0-2,0.5-2.5,1.5c-0.2,0.3-0.3,0.6-0.2,0.9c0,0.5,0.4,0.8,1.3,0.8c1.1,0,2.1-0.6,2.7-1.4
	C34.5,95.3,33.9,94.4,32.8,94.6L32.8,94.6z"/>
<path class="st0" d="M35.1,75L35.1,75c0-0.1-0.1-0.2-0.1-0.2c-0.4-0.6-1.2-1-1.9-1c-0.8,0-1.6,0.2-2.3,0.6c-1.2,0.8-2.8,0.8-4,0
	c-0.5-0.2-1-0.5-1.5-0.6c-0.9-0.2-1.8,0.2-2.3,1c-0.2,0.3-0.4,0.7-0.5,1.1c-0.2,0.7-0.1,1.4,0.3,2c0.4,0.8,1.2,1.2,2,1
	c0.4-0.2,1-0.4,1.5-0.6c1.2-1,3-1,4.2,0c0.6,0.4,1.3,0.6,2,0.8c1.4,0,2.6-1,2.9-2.4v-0.1C35.5,76.1,35.4,75.5,35.1,75L35.1,75z"/>
<path class="st0" d="M34.8,82L34.8,82c-0.7-0.9-1.8-1.2-2.8-0.7L30.7,82c-1,0.6-2.3,0.6-3.3,0c-0.6-0.4-1.2-0.6-1.9-0.8
	c-1.6-0.1-3,1-3.1,2.6c0,0.1,0,0.2,0,0.3c0,1,0.6,2,1.5,2.4c0.4,0.2,0.8,0.3,1.2,0.3c0.9-0.1,1.7-0.4,2.5-0.8c1.1-0.7,2.5-0.7,3.5,0
	c0.5,0.3,0.9,0.5,1.5,0.6c1,0.1,2-0.4,2.5-1.2c0.6-1,0.5-2.2-0.2-3.1C34.8,82.1,34.8,82.1,34.8,82z"/>
<path class="st0" d="M14.1,78.2c0.5,0.4,1.1,0.6,1.7,0.8c1.5,0.3,3-0.6,3.3-2.2v-0.1c0.2-0.5,0.1-1.1-0.2-1.6
	c-0.3-0.9-1-1.5-1.9-1.5c-0.8,0-1.6,0.2-2.3,0.6c-1.1,1-2.8,1.1-4,0.2c-0.5-0.3-1-0.4-1.5-0.4c-1.4,0-2.5,1.1-2.5,2.4
	c0,0.1,0,0.1,0,0.2c-0.1,1.1,0.7,2.1,1.8,2.3c0.1,0,0.1,0,0.2,0c0.4,0,0.8-0.1,1.2-0.2c0.4-0.2,0.6-0.4,1-0.6
	C11.9,77.5,13.1,77.5,14.1,78.2z"/>
<path class="st0" d="M16.1,71.3c0.8,0.2,1.6,0,2.3-0.4c0.7-0.4,1.5-0.6,2.3-0.7c0.8,0,1.6,0.3,2.3,0.7c0.6,0.3,1.2,0.5,1.9,0.6
	c0.7,0,1.5-0.3,2-0.8c0.3-0.3,0.5-0.6,0.5-1c0.3-1.2-0.5-2.4-1.7-2.7c-0.7-0.3-1.6-0.3-2.3,0c-1.7,0.9-3.7,0.9-5.4,0
	c-1.2-0.6-2.6-0.1-3.3,1c-0.7,0.9-0.5,2.3,0.5,2.9C15.4,71.1,15.8,71.3,16.1,71.3L16.1,71.3z"/>
<path class="st0" d="M25.5,88.8h-0.2c-0.9,0-1.7,0.2-2.5,0.6c-0.6,0.4-1.3,0.6-2,0.6s-1.4-0.2-2-0.6c-0.5-0.4-1.2-0.6-1.9-0.6
	c-0.3-0.1-0.7-0.1-1,0h-0.2l0,0c-0.6,0.2-1.2,0.6-1.5,1.2c-0.3,1,0,2.1,0.8,2.7c0.2,0.1,0.4,0.2,0.6,0.3c1,0.6,2.2,0.5,3.1-0.1
	c0.2-0.1,0.5-0.3,0.8-0.4c1-0.2,2.1-0.1,3,0.4c0.4,0.2,0.6,0.4,1,0.4c0.3,0.1,0.6,0.1,0.9,0.1c1.4,0.2,2.7-0.8,2.9-2.1
	c0-0.1,0-0.2,0-0.2c0.2-1.1-0.6-2.1-1.7-2.2C25.6,88.8,25.6,88.8,25.5,88.8L25.5,88.8z"/>
<path class="st0" d="M4.9,85.1c0.2-0.2,0.4-0.3,0.7-0.4c0.5,0,1,0.1,1.4,0.4c0.2,0.2,0.6,0.4,0.8,0.6c1.5,0.9,3,0.4,3.3-1.2
	c0-0.2,0.1-0.4,0.1-0.7c0-0.1,0-0.3,0-0.4c0-0.9-0.5-1.6-1.2-2c-0.8-0.3-1.7-0.3-2.5,0.2c-1.3,0.8-1.7,0.8-2.7,0
	c-0.4-0.4-1.5-0.6-1.7-0.4c0,0-0.1,0.1-0.1,0.2H2.9c-0.6,0.2-0.6,1-0.8,1.7c0,0.5,0.2,1,0.4,1.5C2.8,85.5,3.6,85.7,4.9,85.1z"/>
<path class="st0" d="M16.6,86.6c1.3,0.2,2.6-0.8,2.7-2.1c0-0.1,0-0.3,0-0.4c0-1.5-1.2-2.7-2.7-2.7c-1.3-0.1-2.4,0.8-2.5,2.1
	c0,0.1,0,0.3,0,0.4C14,85.2,15.1,86.4,16.6,86.6C16.6,86.5,16.6,86.5,16.6,86.6L16.6,86.6z"/>
<path class="st0" d="M11.6,69.3c0-1-0.4-1.7-1.5-1.7c-1.4,0.1-2.5,1.3-2.5,2.7C7.6,71.6,8,72,9.1,72C10.5,71.9,11.6,70.7,11.6,69.3
	L11.6,69.3z"/>
<path class="st0" d="M10.1,92.6c0.8,0,1.5-0.7,1.5-1.5c0-0.1,0-0.1,0-0.2c0-1.4-1.1-2.6-2.5-2.7c-0.7-0.1-1.4,0.4-1.5,1.1
	c0,0.2,0,0.4,0,0.6C7.6,91.3,8.7,92.4,10.1,92.6z"/>
<path class="st0" d="M22.4,62.9c0,0.4,0.2,0.8,0.5,1.1c0.5,0.6,1.3,1,2,1c1.2,0,2.3-0.6,2.3-1.7s-1.2-1.9-2.5-1.9
	S22.4,62.1,22.4,62.9L22.4,62.9z"/>
<path class="st0" d="M19.1,98c0.1,0,0.1-0.1,0.2-0.2c0-0.1,0.1-0.2,0.1-0.2c0.1-0.5-0.1-1-0.5-1.4l0,0c-0.8-0.9-2-1.2-3.2-0.8
	c-0.7,0.2-1.1,1-0.8,1.7c0,0.1,0.1,0.2,0.2,0.3c0.7,0.8,1.6,1.4,2.7,1.5C18.3,98.6,18.7,98.3,19.1,98z"/>
<path class="st0" d="M32.8,65.7c0.2,0,0.4-0.1,0.6-0.2c0.1,0,0.2-0.1,0.2-0.2c0.2-0.4,0.2-0.9,0-1.2c-0.6-1.1-1.7-1.6-2.9-1.5
	l-0.2,0.1c-0.6,0.1-0.8,0.7-0.6,1.2C30.4,65,31.6,65.8,32.8,65.7z"/>
<path class="st0" d="M3,73.2c0.4,0,0.7-0.2,1-0.4v-0.1l0.2-0.1l0.2-0.3c0.3-0.4,0.6-0.9,0.8-1.4L5.5,70c0-0.4-0.2-0.7-0.4-1
	c-0.4-0.1-0.7,0-1,0.2l-0.2,0.2l0,0c-0.3,0.2-0.5,0.6-0.8,0.8c-0.1,0.1-0.2,0.2-0.3,0.2c-0.2,0.1-0.4,0.3-0.6,0.5
	c-0.8,0.7-0.7,1.7-1.1,2.7C1.8,72.6,2.2,72.1,3,73.2z"/>
<path class="st0" d="M3,79c0.4,0,0.8-0.2,1-0.6c0.4-0.4,0.4-1,0.6-1.5v-1c-0.2-0.4-0.4-1-0.8-1c-0.4-0.2-1,0.2-1.3,0.6
	c-0.6,0.8-0.8,1.8-0.4,2.7C2.4,78.6,2.6,79,3,79L3,79z"/>
<path class="st0" d="M22.8,59.9c0.4,0.4,1,0.4,1.7,0.6c0.5-0.1,1-0.2,1.5-0.2c0.2-0.1,0.3-0.2,0.4-0.4c0.2-0.2,0.1-0.5-0.4-0.8
	c-0.9-0.6-2.1-0.8-3.1-0.4c-0.3,0.1-0.5,0.4-0.5,0.6C22.4,59.4,22.5,59.6,22.8,59.9z"/>
<path class="st0" d="M25.1,99.9h-0.2c-0.8,0-1.5,0.2-1.9,0.2c-0.2,0-0.4,0.4-0.4,0.6v0.1v0.1c0,0.2,0.4,0.4,0.4,0.6
	c0.8,0.1,1.5,0.1,2.3,0c0.4,0,0.8-0.6,1-0.8l-0.2-0.1c0.1,0,0.1-0.1,0.2-0.1L25.1,99.9z"/>
<path class="st0" d="M16.3,60.3c0.2,0.2,0.5,0.2,0.8,0.2c0.6,0,1.2-0.2,1.7-0.4l0.6-0.2c0.2,0,0.4-0.4,0.4-0.6
	c0-0.2-0.2-0.4-0.4-0.4h-0.3c-1.1-0.3-2.2,0-3.1,0.7C15.7,59.6,15.9,60.1,16.3,60.3z"/>
<path class="st0" d="M19.5,100.5c-0.6-0.3-1.2-0.6-1.9-0.8c-0.6,0-1,0-1.3,0.2c-0.4,0.2-0.6,0.6-0.2,0.8c0.3,0.2,0.5,0.4,0.8,0.5
	c0.8,0.4,1.6,0.5,2.5,0.3c0,0,0.4-0.2,0.4-0.4S19.7,100.5,19.5,100.5z"/>
<path class="st0" d="M10.8,98.4c-0.2,0-0.3,0-0.5,0c0.8,1.1,2,1.8,3.3,1.9C13.1,99.1,12,98.4,10.8,98.4z"/>
<path class="st0" d="M10.9,61.8c1.2,0.1,2.4-0.7,2.8-1.9c-1.3,0.2-2.5,0.9-3.3,1.9C10.5,61.8,10.7,61.8,10.9,61.8L10.9,61.8z"/>
<path class="st0" d="M0.5,84.4c0.6-1.1,0.5-2.6-0.4-3.5C0.3,82.1,0.3,83.4,0.5,84.4z"/>
<g>
	<rect x="46.3" y="62.6" class="st0" width="1.3" height="1.7"/>
	<path class="st0" d="M47.7,64.5h-1.5v-2h1.5V64.5z M46.5,64.2h1v-1.4h-1V64.2z"/>
</g>
<g>
	<rect x="46.3" y="66" class="st0" width="1.3" height="8.3"/>
	<path class="st0" d="M47.7,74.5h-1.5v-8.6h1.5V74.5z M46.5,74.2h1v-8.1h-1V74.2z"/>
</g>
<g>
	<path class="st0" d="M49.7,74.7H51v-5c-0.1-1.5,1-2.8,2.5-2.9c0.1,0,0.3,0,0.4,0c1.2-0.2,2.3,0.7,2.5,1.9c0,0.2,0,0.4,0,0.6v5.2
		h1.2V69c0-2-0.8-3.3-3.5-3.3c-1.3-0.1-2.5,0.5-3.1,1.7l0,0V66h-1.3C49.7,66,49.7,74.7,49.7,74.7z"/>
	<path class="st0" d="M51.1,74.9h-1.5v-9h1.5V67c0.7-0.9,1.8-1.5,3-1.4l0,0c2.5,0,3.7,1.1,3.7,3.5v5.6h-1.5v-5.3c0-0.2,0-0.4,0-0.6
		c-0.1-0.5-0.4-1-0.8-1.4c-0.4-0.3-1-0.5-1.5-0.4c-0.1,0-0.3,0-0.4,0c-1.4,0.1-2.5,1.4-2.4,2.8L51.1,74.9z M49.8,74.6h1v-4.8
		c-0.1-1.6,1.1-2.9,2.7-3c0.1,0,0.3,0,0.4,0c0.6-0.1,1.2,0.1,1.7,0.4c0.5,0.4,0.8,0.9,0.9,1.5c0,0.2,0,0.4,0,0.7v5.1h1v-5.3
		c0-2.2-1.1-3.2-3.4-3.2c-1.2-0.1-2.4,0.5-3,1.6L50.8,68v-1.8h-1V74.6z"/>
</g>
<g>
	<path class="st0" d="M61.8,66v-2.7h-1.3v2.5h-1.7v0.8h1.7v5.8c0,1.5,0.6,1.9,2,1.9h1v-0.8h-1c-0.8,0-1-0.4-1-1v-5.6h1.9V66H61.8z"
		/>
	<path class="st0" d="M63.7,74.5h-1.1c-1.6,0-2.2-0.5-2.2-2v-5.7h-1.7v-1.1h1.7v-2.5h1.5v2.7h1.6V67h-1.9v5.5c0,0.6,0.1,0.9,0.9,0.9
		h1.1v1.1H63.7z M59,66.5h1.7v6c0,1.3,0.5,1.7,1.9,1.7h0.9v-0.6h-0.9c-1,0-1.1-0.6-1.1-1.1v-5.8h1.9v-0.6h-1.6v-2.7h-1v2.5H59V66.5z
		"/>
</g>
<g>
	<path class="st0" d="M73,70.6c0.2-2.5-1-4.8-4.2-4.8c-2.4,0.1-4.3,2.2-4.2,4.6c0.1,2.3,1.9,4.1,4.2,4.2c2.5,0,3.7-1,4.2-2.9h-1.2
		c-0.3,1.3-1.6,2.2-2.9,2c-1.7,0-3.1-1.3-3.1-3c0-0.1,0-0.2,0-0.3v0.2L73,70.6L73,70.6z M68.9,66.6c1.6-0.1,3,1.1,3.1,2.6
		c0,0.1,0,0.2,0,0.3h-6.3C65.9,67.9,67.2,66.7,68.9,66.6z"/>
	<path class="st0" d="M68.9,74.7c-2.3-0.1-4.2-2-4.3-4.3c-0.1-2.5,1.8-4.6,4.3-4.7l0,0c1.4,0,2.5,0.4,3.2,1.2
		c0.8,0.9,1.2,2.2,1.1,3.7v0.1h-7.3c0,0.8,0.3,1.5,0.9,2s1.3,0.8,2.1,0.8c1.3,0.2,2.5-0.7,2.8-1.9v-0.1h1.5v0.2
		C72.7,73.7,71.3,74.7,68.9,74.7z M68.9,65.9c-2.3,0.1-4.2,2.1-4,4.5c0.1,2.2,1.8,3.9,4,4c2.3,0,3.5-0.8,4-2.7h-1
		c-0.4,1.3-1.6,2.2-3,2c-0.8,0-1.6-0.3-2.3-0.9c-0.6-0.6-1-1.4-1-2.2c0-0.1,0-0.2,0-0.4h0.3v0.1h7c0.1-1.4-0.3-2.6-1-3.4
		C71.2,66.3,70.2,65.9,68.9,65.9z M72.1,69.7h-6.5v-0.1c0.1-1.7,1.5-3,3.2-3c0.8-0.1,1.6,0.2,2.2,0.7s1,1.3,1.1,2.1
		C72.1,69.5,72.1,69.6,72.1,69.7L72.1,69.7z M65.9,69.4h6v-0.1c-0.1-0.7-0.4-1.4-1-1.9s-1.3-0.7-2-0.6l0,0
		C67.3,66.8,66.1,67.9,65.9,69.4z"/>
</g>
<g>
	<path class="st0" d="M74.5,66v8.2h1.2v-4.4c0-1.7,1.5-2.9,3.5-2.9v-1c-1.5-0.1-2.9,0.7-3.5,2l0,0V66H74.5z"/>
	<path class="st0" d="M75.8,74.3h-1.5v-8.4h1.5v1.6c0.7-1.1,2-1.7,3.3-1.7c0.1,0,0.1,0,0.2,0h0.1V67h-0.1c-2,0-3.4,1.2-3.4,2.8
		L75.8,74.3L75.8,74.3z M74.6,74h1v-4.3c0-1.7,1.5-3,3.5-3V66l0,0c-1.4,0-2.6,0.8-3.3,2l-0.2,0.5v-2.3h-1V74z"/>
</g>
<g>
	<path class="st0" d="M80.7,74.7H82v-5c-0.1-1.5,1-2.8,2.5-2.9c0.1,0,0.3,0,0.4,0c1.2-0.2,2.3,0.7,2.5,1.9c0,0.2,0,0.4,0,0.6v5.2
		h1.2V69c0-2-0.8-3.3-3.5-3.3c-1.3-0.1-2.5,0.5-3.1,1.7l0,0V66h-1.2L80.7,74.7z"/>
	<path class="st0" d="M82.1,74.9h-1.5v-9h1.5V67c0.7-0.9,1.8-1.5,3-1.4l0,0c2.5,0,3.6,1.1,3.6,3.5v5.6h-1.5v-5.3c0-0.2,0-0.4,0-0.6
		C87,67.7,86,66.9,84.8,67c-0.2,0-0.3,0-0.4,0c-1.4,0.1-2.5,1.4-2.4,2.8L82.1,74.9z M80.8,74.6h1v-4.8c-0.1-1.6,1.1-2.9,2.6-3
		c0.1,0,0.3,0,0.4,0c1.2-0.2,2.4,0.7,2.6,2c0,0.2,0,0.5,0,0.7v5.1h1v-5.3c0-2.2-1-3.2-3.4-3.2c-1.2-0.1-2.4,0.5-3,1.6L81.8,68v-1.8
		h-1V74.6z"/>
</g>
<g>
	<g>
		<path class="st0" d="M90.5,68.5c0-0.1,0-0.1,0-0.2l0,0V68.5z"/>
		<path class="st0" d="M90.6,68.5h-0.3v-0.3h0.3v0.1v0.1C90.6,68.4,90.6,68.5,90.6,68.5z"/>
	</g>
	<g>
		<path class="st0" d="M98.4,73.3c-0.3,0-0.6-0.2-0.6-0.5c0-0.1,0-0.1,0-0.2v-4.4c0-2.3-1.9-2.7-3.5-2.7c-2,0-3.4,1-3.7,2.7h0.8
			c0-1.3,1-1.9,2.5-1.9s2.5,0.2,2.5,1.7c0,0.8-0.4,1-1.5,1c-2.5,0.2-5,0.4-5,2.7c0,1.7,1.5,2.5,3.1,2.5c1.4,0.1,2.7-0.5,3.5-1.7
			c0,0.8,0.2,1.5,1.5,1.5h0.8v-0.8h-0.4V73.3z M96.8,71c0,1.7-1.7,2.7-3.3,2.7c-1,0.1-1.9-0.6-2-1.7c0-1.7,2.5-1.7,4.4-1.9
			c0.4,0,0.7-0.2,1-0.4L96.8,71z"/>
		<path class="st0" d="M93.3,74.5c-0.1,0-0.2,0-0.3,0l0,0c-1.6,0-3.2-0.8-3.2-2.6c0-2.4,2.6-2.6,5.1-2.8l0,0c1.1,0,1.3-0.2,1.3-0.9
			c0-1.3-0.8-1.5-2.4-1.5c-1.5,0-2.4,0.6-2.4,1.8v0.1h-1.1v-0.1c0.3-1.8,1.7-2.8,3.8-2.8c2.5,0,3.7,0.9,3.7,2.8v4.4
			c0,0.1,0,0.1,0,0.1c0,0.2,0.3,0.4,0.5,0.4l0,0H99v1.1h-1c-1.2,0-1.5-0.6-1.6-1.2C95.7,73.9,94.5,74.5,93.3,74.5z M93.8,66.3
			c1.3,0,2.6,0.1,2.6,1.8c0,1-0.6,1.1-1.6,1.1l0,0c-2.5,0.2-4.8,0.4-4.8,2.6c0,1.8,1.6,2.4,3,2.4c1.4,0.1,2.7-0.5,3.4-1.6l0.2-0.3
			v0.4c0,0.8,0.2,1.3,1.3,1.3h0.7v-0.6h-0.3c-0.4,0-0.7-0.2-0.8-0.6c0-0.1,0-0.1,0-0.2v-4.3c0-1.7-1.1-2.6-3.4-2.6
			c-1.9,0-3.2,0.9-3.6,2.5H91C91.3,67,92.2,66.3,93.8,66.3z M93.2,73.8c-1,0-1.9-0.8-2-1.8c0-1.6,2-1.8,3.8-1.9c0.2,0,0.5,0,0.7-0.1
			c0.4,0,0.7-0.1,1-0.4l0.2-0.2v1.5c0,1.8-1.8,2.8-3.5,2.8C93.4,73.8,93.3,73.8,93.2,73.8z M96.6,70c-0.3,0.2-0.6,0.3-0.9,0.3
			c-0.2,0-0.5,0-0.7,0.1c-1.7,0.2-3.5,0.3-3.5,1.7c0.1,0.9,0.9,1.6,1.9,1.5c1.6,0,3.2-1,3.2-2.6l0,0V70z"/>
	</g>
</g>
<g>
	<path class="st0" d="M102.2,66v-2.7H101v2.5h-1.6v0.8h1.7v5.8c0,1.5,0.6,1.9,2,1.9h1v-0.8h-1c-0.8,0-1-0.4-1-1v-5.6h1.9V66H102.2z"
		/>
	<path class="st0" d="M104.1,74.5H103c-1.6,0-2.2-0.5-2.2-2v-5.7h-1.7v-1.1h1.6v-2.5h1.5v2.7h1.7V67H102v5.5c0,0.6,0.1,0.9,0.9,0.9
		h1.1L104.1,74.5L104.1,74.5z M99.4,66.5h1.7v6c0,1.3,0.5,1.7,1.9,1.7h0.9v-0.6H103c-1,0-1.1-0.6-1.1-1.1v-5.8h1.9v-0.6H102v-2.7h-1
		v2.5h-1.6V66.5z"/>
</g>
<g>
	<rect x="105.7" y="62.6" class="st0" width="1.2" height="1.7"/>
	<path class="st0" d="M107.1,64.5h-1.5v-2h1.5V64.5z M105.8,64.2h1v-1.4h-1V64.2z"/>
</g>
<g>
	<rect x="105.7" y="66" class="st0" width="1.2" height="8.3"/>
	<path class="st0" d="M107.1,74.5h-1.5v-8.6h1.5V74.5z M105.8,74.2h1v-8.1h-1V74.2z"/>
</g>
<g>
	<path class="st0" d="M113.4,65.8c-0.1,0-0.3,0-0.4,0c-2.3-0.2-4.4,1.5-4.6,3.8c0,0.2,0,0.4,0,0.5c0,2.4,1.9,4.4,4.3,4.4
		c0.1,0,0.2,0,0.3,0c2.4,0.1,4.5-1.7,4.6-4.2C117.7,68,115.8,65.9,113.4,65.8z M113,73.7c-1.8,0.1-3.3-1.3-3.4-3.1
		c0-0.1,0-0.3,0-0.4c-0.1-1.8,1.3-3.4,3.1-3.5c0.1,0,0.1,0,0.2,0l0,0l0,0l0,0c2,0.1,3.5,1.8,3.3,3.7C116.3,72.2,114.8,73.6,113,73.7
		z"/>
	<path class="st0" d="M112.7,74.7L112.7,74.7c-1.3,0-2.4-0.5-3.2-1.4c-0.8-0.9-1.3-2-1.3-3.2c0-0.2,0-0.4,0-0.6
		c0.1-1.2,0.6-2.2,1.5-2.9c0.9-0.7,2-1.1,3.2-1c0.1,0,0.3,0,0.4,0l0,0c2.5,0.1,4.4,2.2,4.3,4.7c-0.1,1.2-0.6,2.3-1.5,3.1
		c-0.9,0.8-2.1,1.2-3.2,1.2C112.9,74.7,112.8,74.7,112.7,74.7z M112.6,65.9c-1,0-1.9,0.3-2.6,1c-0.8,0.7-1.4,1.7-1.4,2.8
		c0,0.2,0,0.4,0,0.5c0,1.1,0.4,2.2,1.2,3c0.8,0.8,1.8,1.3,2.9,1.3c0.1,0,0.2,0,0.3,0c1.1,0.1,2.2-0.3,3.1-1.1
		c0.8-0.8,1.3-1.8,1.4-2.9c0.1-2.3-1.7-4.3-4-4.5l0,0c-0.1,0-0.3,0-0.4,0C112.9,65.9,112.8,65.9,112.6,65.9z M112.9,73.8
		c-1.8,0-3.3-1.4-3.4-3.2c0-0.2,0-0.3,0-0.5c-0.1-1.9,1.4-3.5,3.3-3.6h0.1l0,0h0.1l0,0l0,0l0,0v0.1v-0.1c2,0.1,3.6,1.8,3.5,3.9
		c-0.1,1.9-1.6,3.4-3.5,3.5l0,0C113,73.8,112.9,73.8,112.9,73.8z M113,66.8c-0.1,0-0.1,0-0.2,0c-1.8,0.1-3.1,1.6-3,3.4
		c0,0.2,0,0.3,0,0.4c0.1,1.7,1.4,3,3.1,3h0.1c1.7-0.1,3.1-1.5,3.2-3.2C116.3,68.5,114.9,66.9,113,66.8z"/>
</g>
<g>
	<path class="st0" d="M119.3,74.8h1.2v-5c-0.1-1.5,1-2.8,2.5-2.9c0.1,0,0.3,0,0.4,0c1.2-0.2,2.3,0.7,2.5,1.9c0,0.2,0,0.4,0,0.6v5.2
		h1.3v-5.5c0-2-0.8-3.3-3.5-3.3c-1.3-0.1-2.5,0.5-3.1,1.7l0,0V66h-1.2v8.8H119.3z"/>
	<path class="st0" d="M120.6,74.9h-1.5v-9.1h1.5V67c0.7-0.9,1.8-1.5,3-1.4l0,0c2.5,0,3.7,1.1,3.7,3.5v5.6h-1.5v-5.3
		c0-0.2,0-0.4,0-0.6c-0.2-1.1-1.2-1.9-2.4-1.8c-0.1,0-0.3,0-0.4,0c-1.4,0.1-2.5,1.4-2.4,2.8C120.6,69.8,120.6,74.9,120.6,74.9z
		 M119.4,74.7h1v-4.9c-0.1-1.6,1.1-2.9,2.6-3c0.1,0,0.3,0,0.4,0c1.3-0.2,2.4,0.7,2.6,2c0,0.2,0,0.5,0,0.7v5.1h1v-5.3
		c0-2.2-1.1-3.2-3.4-3.2c-1.2-0.1-2.4,0.5-3,1.6l-0.2,0.4v-1.8h-1V74.7z"/>
</g>
<g>
	<g>
		<path class="st0" d="M129,68.5c0-0.1,0-0.1,0-0.2l0,0V68.5z"/>
		<path class="st0" d="M129.2,68.5h-0.3v-0.3h0.3v0.1C129.2,68.4,129.2,68.4,129.2,68.5L129.2,68.5z"/>
	</g>
	<g>
		<path class="st0" d="M137,73.3c-0.3,0-0.6-0.2-0.6-0.5c0-0.1,0-0.1,0-0.2v-4.4c0-2.3-1.9-2.7-3.5-2.7c-2,0-3.4,1-3.7,2.8h0.8
			c0-1.3,1-1.9,2.5-1.9s2.5,0.2,2.5,1.7c0,0.8-0.4,1-1.5,1c-2.5,0.2-5,0.4-5,2.7c0,1.7,1.5,2.5,3.1,2.5c1.4,0.1,2.7-0.5,3.5-1.7
			c0,0.8,0.2,1.5,1.5,1.5h0.8v-0.8H137z M135.3,71.1c0,1.7-1.7,2.7-3.3,2.7c-1,0.1-1.9-0.6-2-1.7c0-1.7,2.5-1.7,4.4-1.9
			c0.4,0,0.7-0.2,1-0.4L135.3,71.1z"/>
		<path class="st0" d="M131.9,74.5c-0.1,0-0.2,0-0.3,0l0,0c-1.6,0-3.2-0.8-3.2-2.6c0-2.4,2.6-2.6,5.1-2.8l0,0c1.1,0,1.3-0.2,1.3-0.9
			c0-1.3-0.8-1.5-2.4-1.5c-1.5,0-2.4,0.6-2.4,1.8v0.1h-1.1v-0.1c0.3-1.8,1.7-2.9,3.8-2.9c2.5,0,3.7,0.9,3.7,2.8v4.4
			c0,0.1,0,0.1,0,0.1c0,0.1,0.1,0.2,0.2,0.3c0.1,0.1,0.2,0.1,0.3,0.1l0,0h0.5v1.1h-1c-1.2,0-1.5-0.6-1.6-1.2
			C134.2,74,133.1,74.5,131.9,74.5z M132.4,66.3c1.3,0,2.6,0.1,2.6,1.8c0,1-0.6,1.1-1.6,1.1l0,0c-2.5,0.2-4.8,0.4-4.8,2.6
			c0,1.8,1.6,2.4,3,2.4c1.4,0.1,2.7-0.5,3.4-1.6l0.2-0.3v0.4c0,0.8,0.2,1.3,1.3,1.3h0.7v-0.6H137c-0.2,0-0.4,0-0.5-0.1
			s-0.2-0.3-0.3-0.4c0-0.1,0-0.1,0-0.2v-4.4c0-1.7-1.1-2.6-3.4-2.6c-1.9,0-3.3,0.9-3.6,2.5h0.5C129.8,67,130.8,66.3,132.4,66.3z
			 M131.8,73.9c-1,0-1.9-0.8-2-1.8c0-1.6,2-1.8,3.8-1.9c0.2,0,0.5,0,0.7-0.1c0.4,0,0.7-0.1,1-0.4l0.2-0.2V71c0,1.8-1.8,2.8-3.5,2.8
			C131.9,73.9,131.8,73.9,131.8,73.9z M135.2,70.1c-0.3,0.2-0.6,0.3-0.9,0.3c-0.2,0-0.5,0-0.7,0.1c-1.7,0.2-3.5,0.3-3.5,1.7
			c0.1,0.9,0.9,1.6,1.9,1.5c1.6,0,3.2-1,3.2-2.6l0,0V70.1z"/>
	</g>
</g>
<g>
	<rect x="138.8" y="62.6" class="st0" width="1.2" height="11.7"/>
	<path class="st0" d="M140.2,74.5h-1.5v-12h1.5V74.5z M138.9,74.2h1V62.8h-1V74.2z"/>
</g>
<g>
	<path class="st0" d="M151.7,65.6c-1.4-0.1-2.7,0.6-3.3,1.9v-4.8h-1v11.5h1v-1.7c0.6,1.3,1.9,2,3.3,1.9c2.4,0,4.4-2,4.4-4.4
		C156.1,67.5,154.2,65.6,151.7,65.6z M151.8,73.7c-2.5,0-3.3-1.9-3.3-3.5c0-1.7,0.8-3.5,3.3-3.5c2.3,0,3.1,1.9,3.1,3.5l0,0l0,0l0,0
		C154.9,71.8,154.1,73.7,151.8,73.7z"/>
	<path class="st0" d="M151.4,74.5c-1.1,0-2.2-0.6-2.9-1.5v1.3h-1.3V62.5h1.3V67c0.7-1,1.9-1.6,3.2-1.5c2.5,0,4.5,2,4.5,4.5
		c0,1.2-0.5,2.3-1.3,3.2c-0.8,0.9-2,1.3-3.2,1.3C151.6,74.5,151.5,74.5,151.4,74.5z M148.3,71.9l0.2,0.5c0.6,1.2,1.9,1.9,3.2,1.8
		c1.1,0,2.2-0.4,3-1.2c0.8-0.8,1.2-1.9,1.2-3c0-2.3-1.9-4.2-4.2-4.2l0,0c-1.3-0.1-2.6,0.6-3.2,1.8l-0.2,0.5v-5.3h-0.8V74h0.8V71.9z
		 M151.8,73.8c-2.5,0-3.5-1.9-3.5-3.7c0-1.8,0.9-3.7,3.5-3.7c2.4,0,3.2,2,3.3,3.7l0,0H155h0.1l0,0H155h0.1l0,0l0,0
		C155,71.8,154.2,73.8,151.8,73.8z M151.8,66.7c-3,0-3.2,2.6-3.2,3.4c0,1.7,0.8,3.4,3.2,3.4c2.2,0,3-1.8,3-3.4
		C154.8,68.6,154,66.8,151.8,66.7z M154.9,70.1L154.9,70.1z"/>
</g>
<g>
	<path class="st0" d="M165.7,70.6c0.2-2.5-1-4.8-4.2-4.8c-2.4-0.1-4.5,1.7-4.6,4.2c-0.1,2.4,1.7,4.5,4.2,4.6c0.1,0,0.3,0,0.4,0
		c2.5,0,3.7-1,4.2-2.9h-1.3c-0.2,1.2-1.2,2-2.9,2s-3.1-1.3-3.1-3c0-0.1,0-0.2,0-0.3v0.2L165.7,70.6L165.7,70.6z M161.6,66.6
		c1.6-0.1,3,1.1,3.1,2.6c0,0.1,0,0.2,0,0.3h-6.3C158.6,67.9,159.9,66.6,161.6,66.6z"/>
	<path class="st0" d="M161.4,74.6c-0.1,0-0.1,0-0.2,0c-2.5-0.1-4.4-2.2-4.3-4.7c0.1-1.2,0.6-2.3,1.5-3.1c0.9-0.8,2.1-1.2,3.2-1.2
		l0,0c1.4,0,2.5,0.4,3.2,1.2c0.8,0.9,1.2,2.2,1.1,3.7v0.1h-7.3c0.1,1.6,1.4,2.8,2.9,2.8c0,0,0,0,0.1,0c1.5,0,2.6-0.7,2.8-1.9v-0.1
		h1.5v0.2c-0.4,2-1.9,3-4.3,3C161.5,74.6,161.4,74.6,161.4,74.6z M161.4,65.9c-1.1,0-2.1,0.4-2.9,1.1c-0.8,0.8-1.3,1.8-1.4,2.9
		c-0.1,2.3,1.7,4.3,4,4.5c0.1,0,0.3,0,0.4,0c2.3,0,3.6-0.8,4-2.7h-1c-0.3,1.3-1.4,2-3,2h-0.1c-1.7,0-3.1-1.4-3.2-3.1
		c0-0.1,0-0.2,0-0.4h0.3v0.1h7c0.1-1.4-0.3-2.6-1-3.4s-1.7-1.2-3-1.2C161.5,65.9,161.4,65.9,161.4,65.9z M164.8,69.7h-6.5v-0.1
		c0.1-1.7,1.5-3,3.2-3c1.6-0.1,3.1,1.1,3.3,2.8C164.8,69.5,164.8,69.6,164.8,69.7L164.8,69.7z M158.6,69.4h6v-0.1
		c-0.1-1.4-1.3-2.5-2.8-2.5c-0.1,0-0.1,0-0.2,0l0,0C160,66.8,158.8,67.9,158.6,69.4z"/>
</g>
<g>
	<path class="st0" d="M169.5,66v-2.7h-1.3v2.5h-1.7v0.8h1.7v5.8c0,1.5,0.6,1.9,2,1.9h1v-0.8h-1c-0.8,0-1-0.4-1-1v-5.6h1.9V66H169.5z
		"/>
	<path class="st0" d="M171.4,74.5h-1.1c-1.6,0-2.2-0.5-2.2-2v-5.7h-1.7v-1.1h1.7v-2.5h1.5v2.7h1.6V67h-1.9v5.5
		c0,0.6,0.1,0.9,0.9,0.9h1.1L171.4,74.5L171.4,74.5z M166.7,66.5h1.7v6c0,1.3,0.5,1.7,1.9,1.7h0.9v-0.6h-0.9c-1,0-1.1-0.6-1.1-1.1
		v-5.8h1.9v-0.6h-1.6v-2.7h-1v2.5h-1.7L166.7,66.5L166.7,66.5z"/>
</g>
<g>
	<path class="st0" d="M174.9,66v-2.7h-1.2v2.5H172v0.8h1.7v5.8c0,1.5,0.6,1.9,2,1.9h1v-0.8h-1c-0.8,0-1-0.4-1-1v-5.6h1.9V66H174.9
		L174.9,66z"/>
	<path class="st0" d="M176.8,74.5h-1.1c-1.6,0-2.2-0.5-2.2-2v-5.7h-1.7v-1.1h1.7v-2.5h1.5v2.7h1.7V67h-1.9v5.5
		c0,0.6,0.1,0.9,0.9,0.9h1.1V74.5z M172.1,66.5h1.7v6c0,1.3,0.5,1.7,1.9,1.7h0.9v-0.6h-0.9c-1,0-1.1-0.6-1.1-1.1v-5.8h1.9v-0.6h-1.7
		v-2.7h-1v2.5h-1.7L172.1,66.5L172.1,66.5z"/>
</g>
<g>
	<polygon class="st0" points="178.4,64.3 179.7,64.3 179.7,62.6 178.4,62.6 	"/>
	<path class="st0" d="M179.8,64.5h-1.5v-2h1.5V64.5z M178.5,64.2h1v-1.4h-1V64.2z"/>
</g>
<g>
	<polygon class="st0" points="178.4,74.3 179.7,74.3 179.7,66 178.4,66 	"/>
	<path class="st0" d="M179.8,74.5h-1.5v-8.6h1.5V74.5z M178.5,74.2h1v-8.1h-1V74.2z"/>
</g>
<g>
	<path class="st0" d="M181.5,66v8.8h1.2v-5c-0.1-1.5,1-2.8,2.5-2.9c0.1,0,0.3,0,0.4,0c1.2-0.2,2.3,0.7,2.5,1.9c0,0.2,0,0.4,0,0.6
		v5.2h1.3v-5.5c0-2-0.8-3.3-3.5-3.3c-1.3-0.1-2.5,0.5-3.1,1.7l0,0V66C182.8,66,181.5,66,181.5,66z"/>
	<path class="st0" d="M182.9,74.9h-1.5v-9h1.5V67c0.7-0.9,1.8-1.5,3-1.4l0,0c2.5,0,3.7,1.1,3.7,3.5v5.6h-1.5v-5.3c0-0.2,0-0.4,0-0.6
		c-0.1-0.5-0.4-1-0.8-1.4c-0.4-0.3-1-0.5-1.5-0.4c-0.2,0-0.3,0-0.4,0c-0.7,0.1-1.3,0.4-1.8,0.9s-0.7,1.2-0.6,1.9L182.9,74.9
		L182.9,74.9z M181.7,74.6h1v-4.8c-0.1-1.6,1.1-2.9,2.6-3c0.1,0,0.3,0,0.4,0c0.6-0.1,1.2,0.1,1.7,0.4c0.5,0.4,0.8,0.9,0.9,1.5
		c0,0.2,0,0.5,0,0.7v5.1h1v-5.3c0-2.2-1.1-3.2-3.4-3.2c-1.2-0.1-2.4,0.5-3,1.6l-0.2,0.4v-1.8h-1V74.6z"/>
</g>
<g>
	<path class="st0" d="M198.6,66v1.5c-0.7-1-1.9-1.6-3.1-1.7c-2.2-0.2-4.1,1.4-4.4,3.6c0,0.2,0,0.4,0,0.6c0,2.5,1.2,4.4,4.4,4.4
		c1.3,0.1,2.5-0.6,3.1-1.7v1c0,2.1-1,3.1-3.1,3.1c-1.2,0-2.5-0.4-2.7-1.7h-1.2c0.2,1.7,2,2.5,4,2.5c3.1,0,4.2-1.5,4.2-4h0.2V66
		H198.6z M195.5,73.5c-0.1,0-0.1,0-0.2,0l0,0c-1.7,0-3.1-1.4-3.1-3.1c0-0.1,0-0.2,0-0.2c0-1.9,0.8-3.5,3.1-3.5s3.1,1.9,3.1,3.5
		C198.5,71.9,197.3,73.4,195.5,73.5z"/>
	<path class="st0" d="M195.5,77.8c-1.9,0-3.9-0.8-4.1-2.6v-0.1h1.5v0.1c0.2,1.4,1.9,1.6,2.6,1.6c2,0,3-1,3-3v-0.6
		c-0.7,0.9-1.8,1.4-3,1.4c-2.9,0-4.5-1.6-4.5-4.5c0-0.2,0-0.4,0-0.6c0.2-2.3,2.2-3.9,4.5-3.7c1.1,0,2.2,0.5,3,1.4V66h1.5v8h-0.2
		C199.8,76.6,198.4,77.8,195.5,77.8z M191.7,75.3c0.3,1.6,2.1,2.2,3.8,2.2c2.8,0,4-1.1,4-3.8v-0.1h0.2v-7.4h-1v1.7l-0.2-0.3
		c-0.7-1-1.8-1.6-3-1.6c-2.1-0.2-4,1.4-4.2,3.5c0,0.2,0,0.4,0,0.6c0,2.7,1.5,4.3,4.2,4.3c1.2,0.1,2.4-0.5,3-1.6l0.2-0.4v1.5
		c0,2.2-1.1,3.3-3.3,3.3c-1.6,0-2.6-0.6-2.8-1.7h-0.9V75.3z M195.3,73.6c-1.8,0-3.3-1.4-3.3-3.2c0-0.1,0-0.2,0-0.3
		c0-2.3,1.2-3.7,3.3-3.7c2.4,0,3.3,2,3.3,3.7c0.1,0.9-0.2,1.7-0.8,2.3c-0.6,0.7-1.4,1.1-2.2,1.1C195.5,73.6,195.4,73.6,195.3,73.6z
		 M195.3,66.8c-2.7,0-3,2.4-3,3.4c0,0.1,0,0.2,0,0.2c0,1.6,1.3,3,3,3c0.1,0,0.2,0,0.3,0l0,0c0.8-0.1,1.5-0.4,2-1s0.8-1.4,0.7-2.2
		C198.3,68.5,197.5,66.8,195.3,66.8z"/>
</g>
<g>
	<rect x="46.3" y="81.4" class="st0" width="1.3" height="1.6"/>
	<path class="st0" d="M47.7,83.2h-1.5v-1.9h1.5V83.2z M46.5,82.9h1v-1.4h-1V82.9z"/>
</g>
<g>
	<rect x="46.3" y="84.7" class="st0" width="1.3" height="8.3"/>
	<path class="st0" d="M47.7,93.2h-1.5v-8.6h1.5V93.2z M46.5,92.9h1v-8.1h-1V92.9z"/>
</g>
<g>
	<path class="st0" d="M49.7,93.1H51v-4.8c-0.1-1.5,1-2.8,2.5-2.9c0.1,0,0.3,0,0.4,0c1.2-0.2,2.3,0.7,2.5,1.9c0,0.2,0,0.4,0,0.6v5.2
		h1.2v-5.4c0-1.9-0.8-3.1-3.5-3.1c-1.3-0.1-2.5,0.5-3.1,1.6l0,0v-1.5h-1.3C49.7,84.7,49.7,93.1,49.7,93.1z"/>
	<path class="st0" d="M57.7,93.2h-1.5v-5.3c0-0.2,0-0.4,0-0.6c-0.2-1.1-1.2-1.9-2.3-1.8c-0.1,0-0.3,0-0.4,0
		c-1.4,0.1-2.5,1.3-2.4,2.8v4.9h-1.5v-8.6h1.5v1.2c0.7-0.9,1.8-1.4,3-1.3l0,0c2.5,0,3.7,1,3.7,3.2L57.7,93.2L57.7,93.2z M56.5,93h1
		v-5.3c0-2-1.1-2.9-3.4-2.9c-1.2-0.1-2.4,0.5-3,1.5l-0.2,0.4v-1.8h-1V93h1v-4.6c-0.1-1.6,1.1-2.9,2.7-3c0.1,0,0.3,0,0.4,0
		c1.3-0.2,2.4,0.7,2.6,2c0,0.2,0,0.4,0,0.7L56.5,93z"/>
</g>
<g>
	<path class="st0" d="M61.4,82.2h-1.3v2.5h-1.7v0.8h1.7v5.6c0,1.5,0.6,1.9,2,1.9h1v-0.9h-1c-0.6,0-0.8-0.4-0.8-1v-5.6h1.8v-0.8h-1.9
		v-2.5H61.4z"/>
	<path class="st0" d="M63.3,93.2h-1.1c-1.3,0-2.2-0.3-2.2-2v-5.5h-1.7v-1.1H60v-2.5h1.5v2.5h1.9v1.1h-1.8v5.5c0,0.6,0.2,0.9,0.7,0.9
		h1.1v1.1H63.3z M58.6,85.5h1.7v5.8c0,1.3,0.5,1.8,1.9,1.8H63v-0.6h-0.8c-0.6,0-1-0.4-1-1.1v-5.7H63v-0.6h-1.9v-2.5h-1v2.5h-1.7v0.4
		H58.6z"/>
</g>
<g>
	<path class="st0" d="M68.9,92.4c-1.7,0-3.1-1.3-3.1-3c0-0.1,0-0.2,0-0.4h7.3c0-2.3-1-4.6-4.2-4.6c-2.4,0-4.4,2-4.4,4.4
		s2,4.4,4.4,4.4c2.5,0,3.7-1,4.2-2.9h-1.2C71.5,91.7,70.2,92.6,68.9,92.4z M68.9,85.4c1.6,0,2.9,1.2,2.9,2.8v0.1h-6
		C65.9,86.7,67.2,85.4,68.9,85.4z"/>
	<path class="st0" d="M68.9,93.4c-2.5,0-4.5-2-4.5-4.5s2-4.5,4.5-4.5c3.9,0,4.3,3.3,4.3,4.7v0.1h-7.3c0,0.1,0,0.1,0,0.2
		c0,0.8,0.3,1.5,0.9,2.1c0.6,0.5,1.3,0.8,2,0.8c0,0,0,0,0.1,0l0,0c1.3,0.2,2.5-0.7,2.8-1.9v-0.1h1.5v0.2
		C72.7,92.4,71.3,93.4,68.9,93.4z M68.9,84.7c-2.3,0-4.2,1.9-4.2,4.2c0,2.3,1.9,4.2,4.2,4.2c2.3,0,3.5-0.8,4-2.7h-1
		c-0.4,1.3-1.6,2.2-3,2c0,0,0,0-0.1,0c-0.8,0-1.6-0.3-2.2-0.9s-1-1.4-1-2.2c0-0.1,0-0.2,0-0.4v-0.1h0.1h7.2
		C72.9,87.6,72.4,84.7,68.9,84.7z M71.9,88.4h-6.3v-0.1c0.1-1.7,1.5-3,3.3-3c0.8,0,1.6,0.3,2.1,0.8c0.6,0.5,0.9,1.3,0.9,2.1
		C71.9,88.2,71.9,88.3,71.9,88.4L71.9,88.4z M65.9,88.2h5.8l0,0c0-0.7-0.3-1.4-0.8-1.9s-1.2-0.8-1.9-0.7l0,0
		C67.3,85.5,66.1,86.7,65.9,88.2z"/>
</g>
<g>
	<path class="st0" d="M81.6,84.8v1.5c-0.6-1.1-1.7-1.7-2.9-1.7c-2.2-0.2-4.2,1.4-4.4,3.6c0,0.2,0,0.4,0,0.6c0,2.3,1.3,4.2,4.4,4.2
		c1.2,0,2.3-0.6,2.9-1.6v1c0,2.1-1,3.1-3.1,3.1c-1.2,0-2.5-0.4-2.7-1.7h-1.3c0.2,1.7,2,2.5,4,2.5c3.2,0,4.2-1.5,4.2-4h0.2v-7.5H81.6
		z M78.6,92c-0.1,0-0.2,0-0.3,0l0,0c-1.7,0-3.1-1.3-3.1-3c0-0.1,0-0.2,0-0.4c0-1.7,0.8-3.3,3.1-3.3s3.1,1.7,3.1,3.3
		C81.5,90.4,80.3,91.9,78.6,92z"/>
	<path class="st0" d="M78.4,96.3c-1.9,0-3.9-0.8-4.1-2.6v-0.1h1.6v0.1c0.2,1.4,1.9,1.6,2.6,1.6c2,0,3-1,3-3v-0.6
		c-0.7,0.9-1.7,1.4-2.8,1.3c-2.9,0-4.5-1.6-4.5-4.3c0-0.2,0-0.4,0-0.6c0.1-1.1,0.6-2.1,1.5-2.8c0.9-0.7,1.9-1,3-0.9
		c1.1,0,2.1,0.5,2.8,1.4v-1.2H83v7.8h-0.2C82.7,95.1,81.4,96.3,78.4,96.3z M74.6,93.8c0.3,1.6,2.1,2.2,3.8,2.2
		c2.9,0,4.1-1.2,4.1-3.8v-0.1h0.2v-7.3h-0.9v1.8l-0.2-0.4c-0.5-1-1.6-1.6-2.7-1.6h-0.1c-1-0.1-2,0.2-2.8,0.9
		c-0.8,0.7-1.3,1.6-1.4,2.6c0,0.2,0,0.4,0,0.6c0,2.6,1.6,4,4.3,4c0,0,0,0,0.1,0c1.1,0,2.2-0.6,2.8-1.6l0.2-0.4v1.5
		c0,2.2-1.1,3.3-3.3,3.3c-1.6,0-2.6-0.6-2.8-1.7H74.6z M78.2,92.2c-0.8,0-1.6-0.3-2.2-0.9s-1-1.4-1-2.2c0-0.1,0-0.2,0-0.4
		c0-1.7,0.9-3.4,3.3-3.4s3.3,1.8,3.3,3.5c0.1,0.8-0.2,1.7-0.7,2.3c-0.5,0.7-1.3,1.1-2.2,1.1l0,0c-0.1,0-0.2,0-0.3,0H78.2L78.2,92.2z
		 M78.2,85.5c-2.8,0-3,2.5-3,3.2c0,0.1,0,0.2,0,0.3c0,1.6,1.3,2.8,2.9,2.9l0,0h0.1c0.1,0,0.2,0,0.3,0l0,0c0.8-0.1,1.5-0.4,2-1
		s0.7-1.4,0.7-2.1C81.2,88,81,85.5,78.2,85.5z"/>
</g>
<g>
	<path class="st0" d="M84.5,84.8v8.1h1.2v-4.4c0-1.7,1.5-2.9,3.5-2.9v-1c-1.5-0.1-2.9,0.7-3.5,2l0,0v-1.9L84.5,84.8L84.5,84.8z"/>
	<path class="st0" d="M85.8,93h-1.5v-8.4h1.5v1.5c0.8-1.1,2.1-1.8,3.4-1.7h0.1v1.3h-0.1c-2,0-3.4,1.2-3.4,2.8V93z M84.6,92.7h1v-4.2
		c0-1.7,1.5-3,3.5-3v-0.8l0,0c-1.4,0-2.6,0.8-3.3,2l-0.2,0.5v-2.3h-1V92.7z"/>
</g>
<g>
	<rect x="90.5" y="81.4" class="st0" width="1.2" height="1.6"/>
	<path class="st0" d="M91.9,83.2h-1.5v-1.9h1.5V83.2z M90.6,82.9h1v-1.4h-1V82.9z"/>
</g>
<g>
	<rect x="90.5" y="84.7" class="st0" width="1.2" height="8.3"/>
	<path class="st0" d="M91.9,93.2h-1.5v-8.6h1.5V93.2z M90.6,92.9h1v-8.1h-1V92.9z"/>
</g>
<g>
	<path class="st0" d="M95.7,82.2h-1.2v2.5h-1.6v0.8h1.6v5.7c0,1.5,0.6,1.9,2,1.9h1v-0.9h-1c-0.6,0-0.8-0.4-0.8-1v-5.6h1.9v-0.8h-1.8
		L95.7,82.2L95.7,82.2z"/>
	<path class="st0" d="M97.7,93.2h-1.1c-1.6,0-2.2-0.5-2.2-2v-5.5h-1.6v-1.1h1.6v-2.5h1.5v2.6h1.8v1.1h-1.9v5.5
		c0,0.6,0.2,0.9,0.7,0.9h1.1L97.7,93.2L97.7,93.2z M93,85.4h1.6v5.8c0,1.3,0.5,1.8,1.9,1.8h0.9v-0.6h-0.9c-0.6,0-1-0.4-1-1.1v-5.7
		h1.9V85h-1.8v-2.6h-1v2.5H93V85.4z"/>
</g>
<g>
	<path class="st0" d="M102.2,93.1l-0.4,1c-0.4,0.6-0.6,1.2-1.7,1.2h-0.8v0.8h0.8c1.5,0,1.9-0.4,2.5-1.9l4.2-9.6h-1.3l-2.9,7.1
		l-3.1-7.1h-1L102.2,93.1z"/>
	<path class="st0" d="M100.1,96.3h-1v-1.1h1c0.8,0,1.1-0.4,1.4-0.9c0.1-0.1,0.1-0.2,0.2-0.3l0.4-0.9l-3.8-8.5h1.3l3,6.9l2.8-6.9h1.5
		l-4.2,9.8C102.1,95.8,101.6,96.3,100.1,96.3z M99.4,96h0.7c1.4,0,1.8-0.4,2.4-1.8l4.1-9.4h-1l-3,7.3l-3.2-7.3h-0.7l3.7,8.2
		l-0.4,1.1c-0.1,0.1-0.1,0.2-0.2,0.3c-0.3,0.5-0.6,1-1.6,1h-0.7V96H99.4z"/>
</g>
<g>
	<g>
		<path class="st0" d="M112.8,87.3c0-0.1,0-0.2,0-0.2l0,0V87.3z"/>
		<path class="st0" d="M112.9,87.3h-0.3v-0.4h0.3v0.2v0.1C113,87.2,112.9,87.2,112.9,87.3z"/>
	</g>
	<g>
		<path class="st0" d="M120.7,92.3c-0.3,0-0.6-0.2-0.6-0.5c0-0.1,0-0.1,0-0.2v-4.4c0-2.3-1.9-2.7-3.5-2.7c-2,0-3.4,0.8-3.7,2.5h0.8
			c0-1.2,1-1.9,2.5-1.9s2.5,0.2,2.5,1.7c0,0.8-0.4,1-1.5,1c-2.5,0.2-5,0.4-5,2.7c0,1.7,1.5,2.5,3.1,2.5c1.4,0.1,2.7-0.5,3.5-1.7
			c0,0.8,0.2,1.5,1.5,1.5h0.8v-0.6L120.7,92.3L120.7,92.3z M119.1,89.9c0,1.5-1.7,2.5-3.3,2.5c-1,0.1-1.9-0.7-2-1.7
			c0-1.7,2.5-1.7,4.4-1.9c0.4,0,0.7-0.2,1-0.4L119.1,89.9z"/>
		<path class="st0" d="M115.6,93.2c-0.1,0-0.2,0-0.3,0l0,0c-1.6,0-3.2-0.8-3.2-2.6c0-2.4,2.6-2.6,5.1-2.8c1,0,1.3-0.2,1.3-0.9
			c0-1.3-0.8-1.5-2.4-1.5c-1.5,0-2.4,0.6-2.4,1.7v0.1h-1.1V87c0.3-1.7,1.7-2.6,3.8-2.6c2.5,0,3.7,0.9,3.7,2.8v4.4c0,0.1,0,0.1,0,0.1
			c0,0.2,0.2,0.4,0.5,0.4l0,0h0.5V93h-1c-1.2,0-1.5-0.6-1.6-1.2C118,92.7,116.8,93.2,115.6,93.2z M116.1,85c1.3,0,2.6,0.1,2.6,1.8
			c0,1-0.6,1.1-1.6,1.1c-2.4,0.2-4.9,0.4-4.9,2.6c0,1.6,1.5,2.4,3,2.4c1.4,0.1,2.7-0.5,3.4-1.6L119,91v0.4c0,0.8,0.2,1.3,1.3,1.3
			h0.7v-0.3h-0.3c-0.4,0.1-0.7-0.2-0.8-0.6c0-0.1,0-0.1,0-0.2v-4.4c0-1.8-1.1-2.6-3.4-2.6c-2,0-3.2,0.8-3.5,2.2h0.5
			C113.6,85.7,114.6,85,116.1,85z M115.6,92.6c-1,0-1.9-0.8-2-1.8c0-1.6,2-1.8,3.8-1.9c0.2,0,0.5,0,0.7-0.1c0.4,0,0.7-0.2,0.9-0.4
			l0.2-0.2V90C119.2,91.6,117.4,92.6,115.6,92.6L115.6,92.6z M118.9,88.7c-0.3,0.2-0.6,0.3-0.9,0.3c-0.2,0-0.5,0-0.7,0.1
			c-1.7,0.2-3.6,0.3-3.6,1.7c0.1,0.9,0.9,1.6,1.8,1.6h0.1c1.6,0,3.2-1,3.2-2.4l0,0L118.9,88.7z"/>
	</g>
</g>
<g>
	<path class="st0" d="M128.3,87.2h1.3c-0.2-1.9-1.7-2.7-3.5-2.7c-1.7,0-3.5,0.6-3.5,2.3c0,1.5,1,1.9,2.3,2l1.5,0.2
		c1,0.2,2,0.4,2,1.5c0,1.2-1.5,1.7-2.5,1.7c-1.5,0-2.7-0.6-2.7-2h-1.3c0.2,2,1.7,2.9,4,2.9c1.7,0,3.7-0.6,3.7-2.5
		c0-1.5-1.5-2-2.7-2.3l-1.5-0.2c-0.6-0.2-1.9-0.6-1.9-1.5c0-1,1.3-1.5,2.3-1.5c1.2,0,2.5,0.6,2.5,1.9L128.3,87.2z"/>
	<path class="st0" d="M125.7,93.2c-2.5,0-3.9-1-4.1-3v-0.1h1.5v0.1c0,1.8,2,1.9,2.6,1.9c0.9,0,2.4-0.3,2.4-1.5
		c0-0.9-0.9-1.1-1.9-1.3l-1.5-0.2c-1.2-0.2-2.4-0.5-2.4-2.2c0-1.8,2-2.4,3.7-2.4c2.1,0,3.5,1,3.7,2.8v0.1h-1.5v-0.3
		c0-1.2-1.2-1.8-2.4-1.8c-0.9,0-2.2,0.4-2.2,1.3c0,0.7,1.2,1.1,1.8,1.3l1.4,0.2c1.8,0.4,2.8,1.2,2.8,2.4
		C129.6,92.5,127.5,93.2,125.7,93.2z M121.9,90.3c0.2,1.8,1.5,2.7,3.8,2.7c1.7,0,3.6-0.6,3.6-2.4c0-1.1-0.9-1.8-2.6-2.2l-1.5-0.2
		c-0.7-0.2-2-0.7-2-1.6c0-1,1.2-1.6,2.4-1.6c1.3,0,2.6,0.6,2.6,2v0.1h1c-0.3-2.1-2.3-2.5-3.4-2.5c-1.6,0-3.4,0.6-3.4,2.2
		c0,1.4,1.1,1.8,2.2,1.9l1.5,0.2c1,0.2,2.1,0.4,2.1,1.6c0,1.4-1.6,1.8-2.6,1.8c-1.7,0-2.8-0.8-2.8-2H121.9z"/>
</g>
<g>
	<path class="st0" d="M137.8,87c-0.2-1.9-1.7-2.7-3.5-2.7c-1.7,0-3.5,0.6-3.5,2.3c0,1.5,1.3,1.9,2.7,2.3l1.5,0.2c1,0.2,2,0.4,2,1.5
		c0,1.2-1.5,1.7-2.5,1.7c-1.5,0-2.7-0.6-2.7-2h-1.2c0.2,2,1.7,2.9,4,2.9c1.7,0,3.7-0.6,3.7-2.5c0-1.5-1.5-2-2.7-2.3l-1.5-0.2
		c-0.6-0.2-1.9-0.6-1.9-1.5c0-1,1.2-1.5,2.3-1.5c1.3,0,2.5,0.6,2.5,1.9L137.8,87z"/>
	<path class="st0" d="M134.5,93.2c-2.5,0-3.9-1-4.1-3v-0.1h1.5v0.1c0,1.4,1.3,1.9,2.6,1.9c0.8,0,2.4-0.3,2.4-1.5
		c0-0.9-0.9-1.1-1.9-1.3l-1.5-0.2c-1.3-0.4-2.8-0.8-2.8-2.4c0-1.8,2-2.4,3.7-2.4c2.1,0,3.5,1,3.7,2.8v0.1l-1.1,0.1v-0.1
		c0-1.2-1.2-1.7-2.4-1.7c-0.9,0-2.2,0.4-2.2,1.3c0,0.8,1.3,1.2,1.8,1.3l1.4,0.2c1.8,0.4,2.8,1.2,2.8,2.4
		C138.3,92.5,136.3,93.2,134.5,93.2z M130.7,90.3c0.2,1.8,1.5,2.7,3.8,2.7c1.7,0,3.6-0.6,3.6-2.4c0-1.1-0.9-1.8-2.6-2.2l-1.4-0.2
		c-0.6-0.2-2-0.6-2-1.6c0-1.1,1.3-1.6,2.4-1.6c1.2,0,2.5,0.6,2.6,1.9h0.6c-0.2-1.6-1.5-2.5-3.4-2.5c-1.6,0-3.4,0.6-3.4,2.2
		c0,1.3,1.1,1.7,2.6,2.2L135,89c1,0.2,2.1,0.4,2.1,1.6c0,1.4-1.7,1.8-2.6,1.8c-1.7,0-2.8-0.8-2.8-2L130.7,90.3L130.7,90.3z"/>
</g>
<g>
	<path class="st0" d="M144.1,84.5L144.1,84.5c-2.4,0.1-4.2,2.1-4.1,4.6c0.1,2.4,2.2,4.3,4.6,4.2c2.3-0.1,4.2-2,4.2-4.4
		C148.6,86.4,147.2,84.5,144.1,84.5z M144.3,92.4c-1.8,0-3.3-1.5-3.3-3.3c0-0.1,0-0.1,0-0.2c-0.2-1.8,1.1-3.3,2.9-3.5
		c0.1,0,0.3,0,0.4,0l0,0c2,0.1,3.4,1.9,3.3,3.8C147.4,90.9,146.1,92.3,144.3,92.4z"/>
	<path class="st0" d="M144.3,93.4c-2.4,0-4.4-1.9-4.5-4.3c-0.1-2.5,1.8-4.6,4.3-4.7h0.5l-0.1,0.1c2.7,0.1,4.3,1.8,4.3,4.5
		c0,2.4-1.9,4.4-4.3,4.5C144.4,93.4,144.4,93.4,144.3,93.4z M143.8,84.7c-2.2,0.2-3.9,2.2-3.8,4.4c0.1,2.3,2.1,4.2,4.4,4
		c2.3-0.1,4-2,4-4.2C148.4,86.2,146.7,84.7,143.8,84.7C143.9,84.7,143.8,84.7,143.8,84.7z M144.3,92.6c-1.9,0-3.5-1.5-3.5-3.5
		c0-0.1,0-0.2,0-0.2c-0.2-1.8,1.2-3.5,3-3.6c0.1,0,0.2,0,0.4,0l0,0l0,0c2,0.2,3.5,1.9,3.4,4C147.6,91,146.1,92.4,144.3,92.6
		L144.3,92.6L144.3,92.6z M144.2,85.5c-0.1,0-0.2,0-0.3,0c-0.8,0.1-1.6,0.5-2.1,1.1s-0.8,1.4-0.7,2.3c0,0.1,0,0.2,0,0.2
		c0,1.8,1.4,3.2,3.2,3.2l0,0c1.7-0.1,3-1.5,3.2-3.2c0.1-1.9-1.3-3.5-3.1-3.7l0,0L144.2,85.5L144.2,85.5z"/>
</g>
<g>
	<path class="st0" d="M158.2,87.3c-0.2-1.9-1.7-2.9-3.7-2.9c-2.4-0.1-4.5,1.7-4.6,4.2s1.7,4.5,4.2,4.6c0.1,0,0.3,0,0.4,0
		c1.9,0.2,3.7-1.2,4-3.1h-1.2c-0.1,1.4-1.3,2.4-2.7,2.3c-2-0.1-3.5-1.8-3.3-3.7c0.1-1.8,1.5-3.3,3.3-3.3c1.3,0,2.4,0.8,2.7,2
		L158.2,87.3z"/>
	<path class="st0" d="M154.8,93.2c-0.1,0-0.2,0-0.3,0s-0.3,0-0.4,0c-2.5-0.1-4.4-2.2-4.3-4.7c0.1-1.2,0.6-2.3,1.5-3.1
		c0.9-0.8,2.1-1.2,3.2-1.2c2.2,0,3.7,1.1,3.9,3v0.1h-1.3v-0.1c-0.3-1.1-1.3-1.9-2.5-1.9h-0.1c-1.7,0.1-3.1,1.5-3.2,3.2
		c0,0.9,0.3,1.8,0.9,2.5c0.6,0.7,1.4,1.1,2.4,1.1c1.3,0.1,2.5-0.9,2.6-2.2v-0.1h1.5v0.1C158.3,91.9,156.7,93.2,154.8,93.2z
		 M154.5,93c1.8,0.2,3.5-1.1,3.8-2.9h-1c-0.2,1.4-1.4,2.4-2.9,2.3c-1-0.1-1.9-0.5-2.5-1.2c-0.7-0.7-1-1.7-0.9-2.7
		c0.1-1.9,1.6-3.4,3.5-3.5c1.3,0,2.5,0.8,2.8,2h0.8c-0.2-1.7-1.6-2.7-3.6-2.7c-1.2,0-2.2,0.3-3.1,1.1c-0.8,0.8-1.3,1.8-1.4,2.9
		c-0.1,2.3,1.7,4.3,4,4.5C154.2,93,154.3,93,154.5,93z"/>
</g>
<g>
	<rect x="160.1" y="81.4" class="st0" width="1.2" height="1.6"/>
	<path class="st0" d="M161.5,83.2H160v-1.9h1.5V83.2z M160.2,82.9h1v-1.4h-1V82.9z"/>
</g>
<g>
	<rect x="160.1" y="84.7" class="st0" width="1.2" height="8.3"/>
	<path class="st0" d="M161.5,93.2H160v-8.6h1.5V93.2z M160.2,92.9h1v-8.1h-1V92.9z"/>
</g>
<g>
	<g>
		<path class="st0" d="M163.2,87.3c0-0.1,0-0.2,0-0.2l0,0V87.3z"/>
		<path class="st0" d="M163.4,87.3h-0.3v-0.4h0.3V87v0.1C163.4,87.2,163.4,87.2,163.4,87.3z"/>
	</g>
	<g>
		<path class="st0" d="M171.1,92.3c-0.3,0-0.6-0.2-0.6-0.5c0-0.1,0-0.1,0-0.2v-4.4c0-2.3-1.9-2.7-3.5-2.7c-2,0-3.4,0.8-3.7,2.5h0.8
			c0-1.2,1-1.9,2.5-1.9s2.5,0.2,2.5,1.7c0,0.8-0.4,1-1.5,1c-2.5,0.2-5,0.4-5,2.7c0,1.7,1.5,2.5,3.1,2.5c1.4,0.1,2.7-0.5,3.5-1.7
			c0,0.8,0.2,1.5,1.5,1.5h0.8v-0.6L171.1,92.3L171.1,92.3z M169.5,90c0,1.5-1.7,2.5-3.3,2.5c-1,0.1-1.9-0.7-2-1.7
			c0-1.7,2.5-1.7,4.4-1.9c0.4,0,0.7-0.2,1-0.4L169.5,90z"/>
		<path class="st0" d="M166.1,93.2c-0.1,0-0.2,0-0.3,0l0,0c-1.6,0-3.2-0.8-3.2-2.6c0-2.4,2.6-2.6,5.1-2.8c1.1,0,1.3-0.2,1.3-0.9
			c0-1.3-0.8-1.5-2.4-1.5c-1.5,0-2.4,0.6-2.4,1.7v0.1h-1.1V87c0.3-1.7,1.7-2.6,3.8-2.6c2.5,0,3.7,0.9,3.7,2.8v4.4c0,0.1,0,0.1,0,0.1
			c0,0.2,0.2,0.4,0.5,0.4l0,0h0.5V93h-1c-1.2,0-1.5-0.6-1.6-1.2C168.4,92.7,167.3,93.2,166.1,93.2z M166.6,85c1.3,0,2.6,0.1,2.6,1.8
			c0,1-0.6,1.1-1.6,1.1c-2.5,0.2-4.9,0.4-4.9,2.6c0,1.8,1.6,2.4,3,2.4c1.4,0.1,2.7-0.5,3.4-1.6l0.2-0.3v0.4c0,0.8,0.2,1.3,1.3,1.3
			h0.7v-0.3H171c-0.4,0.1-0.7-0.2-0.8-0.6c0-0.1,0-0.1,0-0.2v-4.4c0-1.7-1.1-2.6-3.4-2.6c-2,0-3.2,0.8-3.5,2.2h0.5
			C164,85.7,165,85,166.6,85z M166,92.6c-1,0-1.9-0.8-2-1.8c0-1.6,2-1.8,3.8-1.9c0.2,0,0.5,0,0.7-0.1c0.4,0,0.7-0.2,1-0.4l0.2-0.2
			v1.7c0,1.6-1.8,2.6-3.5,2.6C166.1,92.6,166,92.6,166,92.6z M169.4,88.8c-0.3,0.2-0.6,0.3-0.9,0.3c-0.2,0-0.5,0-0.7,0.1
			c-1.7,0.2-3.6,0.3-3.6,1.7c0.1,0.9,0.9,1.6,1.8,1.6h0.1c1.6,0,3.2-1,3.2-2.4l0,0L169.4,88.8z"/>
	</g>
</g>
<g>
	<path class="st0" d="M174.7,82.2h-1.3v2.5h-1.7v0.8h1.7v5.6c0,1.5,0.6,1.9,2,1.9h1v-0.9h-1c-0.6,0-0.8-0.4-0.8-1v-5.6h2v-0.8h-1.9
		V82.2z"/>
	<path class="st0" d="M176.6,93.2h-1.1c-1.6,0-2.2-0.5-2.2-2v-5.5h-1.7v-1.1h1.7v-2.5h1.5l0.1,2.5h1.9v1.1h-2v5.5
		c0,0.6,0.2,0.9,0.7,0.9h1.1V93.2z M171.9,85.5h1.7v5.8c0,1.3,0.5,1.8,1.9,1.8h0.9v-0.6h-0.9c-0.6,0-1-0.4-1-1.1v-5.7h2v-0.6h-1.9
		l-0.1-2.5h-1v2.5h-1.7v0.4H171.9z"/>
</g>
<g>
	<polygon class="st0" points="178.4,83.1 179.7,83.1 179.7,81.4 178.4,81.4 	"/>
	<path class="st0" d="M179.8,83.2h-1.5v-1.9h1.5V83.2z M178.5,83h1v-1.4h-1V83z"/>
</g>
<g>
	<polygon class="st0" points="178.4,93.1 179.7,93.1 179.7,84.7 178.4,84.7 	"/>
	<path class="st0" d="M179.8,93.2h-1.5v-8.6h1.5V93.2z M178.5,93h1v-8.1h-1V93z"/>
</g>
<g>
	<path class="st0" d="M186.3,84.5c-0.2,0-0.4,0-0.5,0l0,0c-2.4,0.1-4.3,2.2-4.2,4.6s2.2,4.3,4.6,4.2c2.3-0.1,4.2-2,4.2-4.4
		C190.4,86.6,188.6,84.6,186.3,84.5z M185.7,92.5c-1.8,0-3.3-1.5-3.3-3.3c0-0.1,0-0.1,0-0.2c-0.2-1.8,1.1-3.3,2.9-3.5
		c0.2,0,0.3,0,0.5,0l0,0l0,0l0,0c2,0.2,3.4,1.9,3.3,3.8C188.8,90.9,187.5,92.3,185.7,92.5z"/>
	<path class="st0" d="M185.9,93.4c-2.4,0-4.4-1.9-4.5-4.3c-0.1-1.2,0.4-2.4,1.2-3.2c0.8-0.9,1.9-1.4,3.1-1.5c0.2,0,0.4,0,0.6,0l0,0
		c1.2,0,2.2,0.5,3,1.4s1.2,2,1.1,3.1c0,2.4-1.9,4.4-4.3,4.5C186.1,93.4,186,93.4,185.9,93.4z M186.1,84.7c-0.1,0-0.2,0-0.4,0
		c-1.2,0.1-2.2,0.5-3,1.4s-1.2,1.9-1.1,3.1c0.1,2.3,2,4,4.2,4c0.1,0,0.1,0,0.2,0c2.3-0.1,4-2,4-4.2c0-1.1-0.3-2.1-1.1-2.9
		C188.2,85.3,187.2,84.8,186.1,84.7L186.1,84.7C186.2,84.7,186.1,84.7,186.1,84.7z M185.7,92.6c-1.9,0-3.5-1.5-3.5-3.5
		c0-0.1,0-0.2,0-0.2c-0.1-0.9,0.2-1.7,0.7-2.4c0.6-0.7,1.4-1.1,2.3-1.2c0.2,0,0.3,0,0.5,0l0,0h0.1c2,0.2,3.5,1.9,3.3,3.9
		C189,91,187.5,92.5,185.7,92.6L185.7,92.6L185.7,92.6z M185.6,85.5c-0.1,0-0.2,0-0.3,0c-0.8,0.1-1.6,0.5-2.1,1.1s-0.8,1.4-0.7,2.3
		c0,0.1,0,0.2,0,0.2c0,1.8,1.4,3.2,3.2,3.2l0,0c1.7-0.1,3-1.5,3.2-3.2C189,87.2,187.6,85.6,185.6,85.5
		C185.7,85.5,185.6,85.5,185.6,85.5z M185.7,85.4L185.7,85.4L185.7,85.4z"/>
</g>
<g>
	<path class="st0" d="M191.9,93.1h1.3v-4.8c-0.1-1.5,1-2.8,2.5-2.9c0.1,0,0.2,0,0.4,0c1.2-0.2,2.3,0.7,2.5,1.9c0,0.2,0,0.4,0,0.6
		v5.2h1.2v-5.4c0-1.9-0.8-3.1-3.5-3.1c-1.3-0.1-2.5,0.5-3.1,1.7l0,0v-1.5h-1.3L191.9,93.1L191.9,93.1z"/>
	<path class="st0" d="M200,93.2h-1.5v-5.3c0-0.2,0-0.4,0-0.6c-0.2-1.1-1.2-1.9-2.4-1.8c-0.1,0-0.3,0-0.4,0c-0.7,0-1.3,0.4-1.8,0.9
		s-0.7,1.2-0.6,1.9v4.9h-1.5v-8.6h1.5v1.2c0.7-0.9,1.8-1.5,3-1.3l0,0c2.5,0,3.6,1,3.6,3.2L200,93.2L200,93.2z M198.7,93h1v-5.3
		c0-2-1.1-2.9-3.4-2.9c-1.2-0.1-2.4,0.5-3,1.6l-0.2,0.4v-1.9h-1V93h1v-4.7c-0.1-0.8,0.2-1.5,0.7-2.1s1.2-0.9,2-1c0.1,0,0.3,0,0.4,0
		c1.3-0.2,2.4,0.7,2.6,2c0,0.2,0,0.5,0,0.7L198.7,93z"/>
</g>
</svg>
