<?xml version="1.0" encoding="utf-8"?>
<!-- Generator: Adobe Illustrator 26.3.1, SVG Export Plug-In . SVG Version: 6.00 Build 0)  -->
<svg version="1.1" id="Layer_1" xmlns="http://www.w3.org/2000/svg" xmlns:xlink="http://www.w3.org/1999/xlink" x="0px" y="0px"
	 viewBox="0 0 172 160" style="enable-background:new 0 0 172 160;" xml:space="preserve">
<style type="text/css">
	.st0{fill:#7597AC;}
</style>
<path class="st0" d="M38.4,81.9L31,84.3l-13.2,18.5c-0.3,0.5-0.9,0.6-1.4,0.2c-0.1-0.1-0.2-0.1-0.2-0.2L0.9,83.2
	c-0.3-0.3-0.4-0.7-0.1-1.1c0-0.1,0.1-0.1,0.1-0.1l1-1.2c0.4-0.3,0.8-0.3,1.2-0.2l9,4.4L0.7,72.2l25.7-1.2l3,2.8L48,57.1
	c0.2-0.4,0.8-0.4,1.2,0c0.4,0.3,0.4,0.8,0.2,1.2L34.9,78.7L38.4,81.9z M130.2,79.1l-2.9,12.8h-2.2l-0.2-3.1c-1.1,1-2.3,1.8-3.7,2.4
	c-1.9,0.9-3.9,1.3-5.9,1.2c-2.7,0.1-5.3-0.9-7.1-2.8c-1.4-1.8-2-4.2-1.8-7.2c-0.9,2.2-2.3,4.2-4,5.9c-2.8,2.8-6.6,4.4-10.6,4.3
	c-3.9,0-6.7-1.2-8.4-3.7c-0.8-1.4-1.3-2.9-1.4-4.5c-0.8,1.9-2.1,3.6-3.7,4.9c-2.5,2.1-5.6,3.1-8.8,3.1c-2.5,0.1-4.9-0.8-6.7-2.4
	c-1.5-1.8-2.3-4.2-2.1-6.6c0,0.2-0.1,0.4-0.2,0.7H47.2c-0.4,1.4-0.3,3,0.4,4.3c0.8,1.1,2.1,1.8,3.5,1.6c1.6,0.1,3.1-0.4,4.3-1.4
	c0.6-0.6,1.2-1.3,1.6-2h3.1c-0.3,0.8-0.7,1.6-1.2,2.2c-0.6,0.8-1.2,1.4-2,2c-1.2,0.8-2.5,1.4-3.9,1.8c-0.9,0.2-1.8,0.2-2.7,0.2
	c-2.1,0.1-4-0.8-5.3-2.4c-1.2-1.6-1.6-3.9-0.8-6.7c0.5-2.7,1.8-5.1,3.8-6.9c1.9-1.8,4.4-2.7,7-2.6c1.3,0,2.5,0.3,3.7,0.8
	c0.9,0.5,1.6,1.3,2,2.2c0.4,0.8,0.6,1.7,0.6,2.6c0,0,0-0.1,0-0.1c0.7-3.3,2.4-6.4,4.9-8.8c2.6-2.4,6-3.7,9.6-3.7
	c3.3,0,5.5,0.8,6.9,2.4c1.4,1.5,2,3.5,1.6,5.5h-3.3c0-1.4-0.5-2.7-1.4-3.7c-1.3-1-2.9-1.5-4.5-1.4c-2.4,0-4.7,0.8-6.5,2.4
	c-2.1,2.1-3.5,4.8-4.1,7.8c-0.6,2.8-0.4,5.1,0.6,6.9s2.8,2.7,5.5,2.7c2.4,0,4.8-1.1,6.3-2.9c0.9-1.2,1.8-2.5,2.4-3.9h2.7
	c0-1,0.2-2.1,0.4-3.1c0.7-3.1,2.3-6,4.5-8.3c2.7-3,6.6-4.6,10.6-4.5c4.7,0,7.8,1.4,9.2,4.1c0.9,1.6,1.2,3.4,1.1,5.2
	c0.9-2.4,2.5-4.4,4.4-6c2.5-2.2,5.8-3.5,9.2-3.5c2.1,0,4.2,0.6,6.1,1.6c2.2,1.2,3.3,3.5,3.1,6.5h-3.5c0.1-1.5-0.5-2.9-1.6-3.9
	c-1.4-0.9-3-1.3-4.7-1.2c-2.4,0-4.7,0.9-6.5,2.4c-2,1.6-3.3,4.1-4.1,7.5c-0.6,2.3-0.5,4.7,0.4,6.9c1,1.8,2.8,2.7,5.9,2.7
	c2.2,0,4.3-0.6,6.1-1.8c2-1.5,3.3-3.7,3.7-6.1h-7.8l0.6-2.7L130.2,79.1z M57.8,78.9c-0.6-1.4-1.8-2-3.7-2c-1.4,0-2.8,0.5-3.9,1.4
	c-1.2,0.9-2,2.2-2.5,3.7H58C58.2,80.9,58.1,79.9,57.8,78.9L57.8,78.9z M103.1,72.8c-1.3-1.8-3.5-2.8-5.7-2.7
	c-2.6-0.1-5.1,0.9-6.9,2.7c-2.2,2-3.6,4.6-4.1,7.6C85.7,82.5,86,84.9,87,87c1,1.8,3.1,2.8,6.3,2.8c2.7,0.2,5.4-1,7.1-3.1
	c1.7-2.1,2.9-4.5,3.5-7.1C104.5,76.8,104.3,74.6,103.1,72.8L103.1,72.8z M171.4,91.9h-3.9l-1-7.1h-10l-4.3,7.1h-6.1
	c0-0.2-0.2-0.4-0.2-0.8c0-0.6,0.1-1.2,0.2-1.8l0.6-4.1c0.2-1.6-0.2-2.7-1.2-3.3c-1-0.3-2-0.4-3.1-0.4h-7.8l-1.8,10.6h-3.5l5.5-24.3
	h11.6c1.5-0.1,3.1,0.2,4.5,0.8c2,1,2.9,2.9,2.2,5.7c-0.2,1.3-0.8,2.5-1.6,3.5c-0.8,1-1.9,1.7-3.1,2.2c0.7,0.3,1.4,0.8,1.8,1.4
	c0.4,1,0.5,2,0.2,3.1l-0.6,3.3c-0.1,0.7-0.2,1.3-0.2,2c0,0.1,0,0.2,0,0.3l13.8-22.4h3.9L171.4,91.9z M149.8,74.6
	c0.4-1.6,0-2.9-1.2-3.5c-0.8-0.4-1.7-0.5-2.6-0.4h-8.4l-1.8,8.2h8c1.4,0,2.8-0.3,4.1-1C149,77.2,149.8,76,149.8,74.6z M165.9,82.1
	l-1.4-10.6l-6.3,10.6H165.9z"/>
</svg>
