<?xml version="1.0" encoding="utf-8"?>
<!-- Generator: Adobe Illustrator 26.3.1, SVG Export Plug-In . SVG Version: 6.00 Build 0)  -->
<svg version="1.1" id="Layer_1" xmlns="http://www.w3.org/2000/svg" xmlns:xlink="http://www.w3.org/1999/xlink" x="0px" y="0px"
	 viewBox="0 0 200 160" style="enable-background:new 0 0 200 160;" xml:space="preserve">
<style type="text/css">
	.st0{fill:#7597AC;}
</style>
<path class="st0" d="M49,82.2c0.1-0.2,0.3-0.5,0.4-0.7c2.6-5.6,0.2-12.3-5.4-14.9c-0.4-0.2-0.8-0.3-1.2-0.5c0-0.2-0.1-0.3-0.1-0.4
	c-2.1-5.8-8.5-8.9-14.3-6.8c-0.4,0.2-0.9,0.3-1.3,0.5c-0.3-0.1-0.5-0.3-0.8-0.4c-5.6-2.5-12.3,0-14.8,5.6c-0.1,0.3-0.3,0.6-0.4,0.9
	c-5.9,1.7-9.3,8-7.6,13.9c0.1,0.2,0.1,0.5,0.2,0.7c0.2,0.4,0.3,0.8,0.5,1.2C4.1,81.7,4,82,3.8,82.3c-2.5,5.7,0,12.3,5.7,14.8
	c0.3,0.1,0.6,0.2,0.9,0.4l0.2,0.6c2.2,5.8,8.6,8.8,14.4,6.6c0.4-0.1,0.7-0.3,1.1-0.5c5.4,3,12.2,1,15.2-4.4c0.3-0.6,0.6-1.2,0.8-1.8
	l0.5-0.1c5.9-2,9-8.4,7-14.3c0,0,0,0,0,0C49.5,83.2,49.2,82.7,49,82.2z M46.7,74c0.6,1.7,0.7,3.5,0.1,5.3c-0.9-0.8-1.8-1.5-2.9-2
	c-0.9-0.5-1.9-0.8-2.9-1c0.5-0.6,0.9-1.3,1.2-2c0.7-1.4,1-2.9,1.1-4.4C44.8,70.8,46.1,72.3,46.7,74z M39.5,95.4
	c-2.7,0.2-5.4-1-7-3.2c-0.2-0.3-0.4-0.5-0.5-0.8c-0.1-0.2-0.1-0.5-0.2-0.7c-0.1-0.4-0.3-0.8-0.5-1.2l-0.7-1.7l-1.1-3l4.9,2.1h0.1
	c0.3,0.1,0.6,0.2,0.8,0.4C38.2,88.8,39.9,92.1,39.5,95.4L39.5,95.4z M26.3,100.4c-2-1.8-3-4.4-2.6-7c0-0.3,0.1-0.6,0.2-0.9
	s0.2-0.4,0.4-0.7s0.3-0.8,0.5-1.1l0.7-1.8l1.2-2.8l1.1,2.8l1.3,3.4c0.4,1.7,0.2,3.5-0.5,5.1C28,98.7,27.2,99.7,26.3,100.4z
	 M13.2,94.9c-0.2-2.7,0.9-5.3,3-6.9c0.3-0.2,0.5-0.4,0.8-0.6l6.7-2.7l-1.2,3l-1.5,3.4C19.3,93.7,16.3,95.2,13.2,94.9L13.2,94.9z
	 M13.7,68.3h0.6c2.4,0,4.8,1.1,6.3,3c0.2,0.3,0.4,0.5,0.6,0.8l0.1,0.3c0,0.1,0.1,0.3,0.1,0.4c0.1,0.4,0.3,0.8,0.4,1.2l1.9,4.8
	L19,76.8h-0.1c-0.3-0.1-0.6-0.2-0.8-0.3C15,75,13.3,71.7,13.7,68.3L13.7,68.3z M24.8,66c0.5-1.1,1.3-2,2.2-2.8c1,0.9,1.7,2,2.2,3.2
	c0.6,1.5,0.7,3.1,0.3,4.7l-0.1,0.3l-0.2,0.3c-0.2,0.4-0.4,0.7-0.5,1.1l-2,4.6l-2.4-6C23.8,69.6,24,67.7,24.8,66z M40,68.8
	c0.1,1.4-0.1,2.8-0.8,4.1C38.7,74,38,75,37,75.8c-0.3,0.2-0.5,0.4-0.8,0.5l-6.5,2.5l2.5-6.1c0.9-1.6,2.4-2.9,4.2-3.5
	C37.6,68.8,38.8,68.7,40,68.8z M14,78.8c0.3,0,0.5,0,0.8,0c0.3,0,0.7,0.1,1,0.2l6.5,2.7l-4.7,2h-0.1c-0.3,0.1-0.6,0.2-0.9,0.3
	c-1.9,0.6-4,0.5-5.9-0.3c-1.1-0.5-2-1.2-2.8-2.1c0.8-0.9,1.9-1.6,3.1-2.1C12.1,79,13.1,78.9,14,78.8L14,78.8z M38.2,84.7
	c-0.3,0-0.7-0.1-1-0.2l-6.4-2.7l4.9-1.8h0.1c0.3-0.1,0.6-0.2,0.9-0.3c1.9-0.6,4-0.4,5.8,0.5c1,0.5,1.9,1.2,2.6,2
	C43.4,84.1,40.8,85,38.2,84.7L38.2,84.7z M35.5,62.2c1.5,0.7,2.7,1.9,3.5,3.3c-1.3,0-2.5,0.2-3.8,0.7c-0.9,0.3-1.8,0.8-2.6,1.3
	c-0.1-0.8-0.3-1.5-0.6-2.3c-0.5-1.3-1.2-2.5-2.1-3.5c0.7-0.2,1.4-0.3,2.1-0.3C33.3,61.4,34.4,61.7,35.5,62.2L35.5,62.2z M18.8,61.8
	c0.9-0.3,1.9-0.5,2.8-0.5c0.8,0,1.6,0.1,2.4,0.4c-0.9,0.9-1.6,1.9-2.1,3c-0.4,0.9-0.7,1.8-0.9,2.8c-1.8-1.4-4-2.2-6.2-2.2
	C15.7,63.6,17.1,62.4,18.8,61.8z M7,73c0.7-1.6,1.9-2.8,3.4-3.7c0,1.3,0.3,2.7,0.7,3.9c0.3,0.9,0.8,1.8,1.4,2.5
	c-0.8,0.1-1.7,0.3-2.5,0.6c-1.3,0.5-2.5,1.2-3.5,2.1C6,76.7,6.2,74.8,7,73z M6.6,89.8c-0.7-1.7-0.7-3.6-0.1-5.4
	c0.9,0.9,1.9,1.6,3.1,2.1c0.9,0.4,1.8,0.7,2.8,0.9c-0.5,0.7-0.9,1.4-1.3,2.2c-0.6,1.3-0.9,2.8-1,4.2C8.4,92.9,7.2,91.5,6.6,89.8z
	 M17.9,101.5c-1.6-0.7-2.9-1.9-3.7-3.4c2.3,0,4.5-0.7,6.3-2c0.3,2.2,1.3,4.2,2.8,5.9C21.5,102.5,19.5,102.3,17.9,101.5z M34.3,102
	c-1.6,0.6-3.4,0.6-5.1,0.1c0.9-0.9,1.6-2,2.2-3.2c0.4-0.8,0.6-1.7,0.8-2.6c0.6,0.4,1.2,0.8,1.8,1.1c1.4,0.7,2.9,1.1,4.4,1.1
	C37.5,100.2,36,101.4,34.3,102L34.3,102z M46.2,90.9c-0.7,1.5-1.9,2.7-3.4,3.5c0-1.3-0.2-2.5-0.7-3.8c-0.3-1-0.8-1.9-1.4-2.7
	c0.8-0.1,1.5-0.3,2.3-0.6c1.4-0.5,2.6-1.2,3.7-2.2C47.2,87,47,89.1,46.2,90.9z M79.2,56.7h5.9v23h-5.9V56.7z M145.8,75.7
	c1.5,2.9,5.1,2.7,5.1,2.7l-0.6,4.8C137.4,83.1,139,70.6,139,70.6V53.2h6v17.4C145,72.4,145.3,74.1,145.8,75.7L145.8,75.7z M76,74.2
	l0.8,4.7c-2.5,1-5.1,1.5-7.8,1.6c-6.8,0-12.2-5.5-12.2-12.2S62.3,56,69.1,56c0,0,0,0,0,0c2.7,0,5.4,0.5,8,1.5L75.7,62
	c-1.8-0.7-3.6-1.2-5.6-1.2c-4.1,0.2-7.3,3.6-7.2,7.7c0.1,3.9,3.3,7,7.2,7.2C72.2,75.7,74.2,75.2,76,74.2z M126.1,56
	c-6.4,0-11.6,5.5-11.6,12.2s5.2,12.2,11.6,12.2c1.8,0,3.6-0.1,5.4-0.5l-0.7-4.6c-1.2,0.3-2.4,0.4-3.6,0.3c-3.4-0.1-6.2-2.6-6.8-5.9
	h16.8C138.8,55.7,126.1,56,126.1,56z M120.4,65.7c0.6-3,2.3-5.4,6.7-5.4c4.4,0,4.4,5.4,4.4,5.4H120.4z M185.9,56
	c-6.4,0-11.6,5.5-11.6,12.2s5.2,12.2,11.6,12.2c1.8,0,3.6-0.1,5.4-0.5l-0.7-4.6c-1.2,0.3-2.4,0.4-3.6,0.3c-3.4-0.1-6.2-2.6-6.8-5.9
	H197C198.7,55.7,185.9,56,185.9,56z M180.2,65.7c0.6-3,2.3-5.4,6.7-5.4s4.4,5.4,4.4,5.4H180.2z M102.5,59c-3,0-5.9,1.4-7.9,3.8
	l-0.1-9.6h-5.9v29.5l5,0.5l0.3-3.3c1.9,2.2,4.7,3.4,7.6,3.4c6,0,11.9-4.2,11.9-12.1C113.4,63.5,108.5,59,102.5,59z M100.9,78.5
	c-2.7-0.1-5.1-1.8-6-4.3c-0.4-2.1-0.3-4.2,0.1-6.2c1-2.4,3.3-4,5.9-4.1c3.6,0,6.6,3.3,6.6,7.4S104.5,78.5,100.9,78.5L100.9,78.5z
	 M173.7,79.6c-0.5-1.3-1.1-5-0.9-11.5s-1.3-9-4.7-10.9s-9.3-0.6-9.3-0.6l0.7,4.2c7.3-1.3,7.5,3.2,7.5,3.9
	c-3.6-0.1-14.7,0.2-14.7,8.9c0,8.1,10.8,8.1,15,3.6l0.9,3.2L173.7,79.6z M161.8,76c-3.5-0.1-3.6-2.7-3.6-2.7c0-4.2,5.1-4.9,8.8-4.8
	v4.2C165.6,74.6,163.7,76.1,161.8,76z M57.7,95.5c-0.3-0.3-0.5-0.6-0.6-0.9c-0.1-0.4-0.2-0.8-0.2-1.2c0-0.4,0.1-0.8,0.2-1.2
	c0.1-0.3,0.4-0.7,0.6-0.9c0.3-0.3,0.6-0.5,0.9-0.6c0.6-0.2,1.2-0.3,1.7-0.2c0.2,0,0.4,0.1,0.6,0.2c0.2,0.1,0.3,0.2,0.5,0.3
	c0.1,0.1,0.3,0.2,0.4,0.4l0.1,0.1l-0.8,0.6L61,92c-0.1-0.2-0.3-0.3-0.5-0.4c-0.2-0.1-0.5-0.2-0.7-0.2c-0.3,0-0.5,0-0.8,0.2
	c-0.2,0.1-0.4,0.2-0.6,0.4c-0.2,0.2-0.3,0.4-0.4,0.6C58,92.9,58,93.1,58,93.4c0,0.3,0,0.5,0.1,0.8c0.1,0.2,0.2,0.4,0.4,0.6
	c0.2,0.2,0.4,0.3,0.6,0.4c0.2,0.1,0.5,0.2,0.8,0.2c0.3,0,0.5,0,0.7-0.2c0.2-0.1,0.4-0.3,0.5-0.5l0.1-0.1l0.9,0.6l-0.1,0.1
	c-0.2,0.3-0.5,0.6-0.9,0.7c-0.4,0.2-0.8,0.3-1.3,0.3c-0.4,0-0.8-0.1-1.2-0.2C58.3,96,58,95.8,57.7,95.5z M67.7,91.3
	c-0.3-0.3-0.6-0.5-0.9-0.6c-0.8-0.3-1.6-0.3-2.3,0c-0.3,0.1-0.7,0.3-0.9,0.6c-0.3,0.3-0.5,0.6-0.6,0.9c-0.3,0.8-0.3,1.6,0,2.3
	c0.1,0.3,0.3,0.7,0.6,0.9c0.3,0.3,0.6,0.5,0.9,0.6c0.8,0.3,1.6,0.3,2.3,0c0.3-0.1,0.7-0.3,0.9-0.6c0.3-0.3,0.5-0.6,0.6-0.9
	c0.2-0.4,0.2-0.8,0.2-1.2c0-0.4-0.1-0.8-0.2-1.2C68.1,91.9,67.9,91.6,67.7,91.3z M65.6,95.3c-0.3,0-0.5,0-0.8-0.2
	c-0.2-0.1-0.4-0.2-0.6-0.4c-0.2-0.2-0.3-0.4-0.4-0.6c-0.1-0.2-0.1-0.5-0.1-0.8c0-0.3,0-0.5,0.1-0.8c0.1-0.2,0.2-0.4,0.4-0.6
	c0.2-0.2,0.4-0.3,0.6-0.4c0.2-0.1,0.5-0.2,0.8-0.2c0.3,0,0.5,0,0.8,0.2c0.2,0.1,0.4,0.2,0.6,0.4c0.2,0.2,0.3,0.4,0.4,0.6
	c0.1,0.2,0.1,0.5,0.1,0.8c0,0.3,0,0.5-0.1,0.8c-0.1,0.2-0.2,0.4-0.4,0.6c-0.2,0.2-0.4,0.3-0.6,0.4C66.1,95.3,65.8,95.4,65.6,95.3
	L65.6,95.3z M70.8,93.8h0.5l1.3,2.3h1.3l-1.5-2.5c0.3-0.1,0.6-0.2,0.8-0.4c0.3-0.3,0.4-0.6,0.4-1c0-0.3,0-0.5-0.2-0.8
	c-0.1-0.2-0.3-0.4-0.4-0.5c-0.2-0.1-0.4-0.2-0.7-0.3c-0.2-0.1-0.5-0.1-0.8-0.1h-1.9v5.6h1.1L70.8,93.8L70.8,93.8z M70.8,91.6h0.7
	c0.1,0,0.3,0,0.4,0c0.1,0,0.2,0.1,0.3,0.1c0.1,0.1,0.1,0.1,0.2,0.2c0.1,0.1,0.1,0.2,0.1,0.3c0,0.1,0,0.2-0.1,0.3
	c-0.1,0.1-0.1,0.2-0.2,0.2c-0.1,0.1-0.2,0.1-0.3,0.1c-0.1,0-0.3,0-0.4,0h-0.7V91.6L70.8,91.6z M75.9,93.9h0.7c0.3,0,0.5,0,0.8-0.1
	c0.2-0.1,0.5-0.2,0.7-0.3c0.2-0.1,0.3-0.3,0.4-0.5c0.2-0.5,0.2-1,0-1.5c-0.1-0.2-0.2-0.4-0.4-0.5c-0.2-0.1-0.4-0.2-0.7-0.3
	c-0.3-0.1-0.5-0.1-0.8-0.1h-1.8v5.6h1L75.9,93.9L75.9,93.9z M75.9,91.6h0.6c0.1,0,0.3,0,0.4,0c0.1,0,0.2,0.1,0.3,0.1
	c0.1,0.1,0.2,0.1,0.2,0.2c0.1,0.1,0.1,0.2,0.1,0.3c0,0.1,0,0.2-0.1,0.3c0,0.1-0.1,0.2-0.2,0.2c-0.1,0.1-0.2,0.1-0.3,0.1
	c-0.2,0-0.3,0-0.5,0h-0.6L75.9,91.6L75.9,91.6z M85.2,94.6c0.1-0.4,0.2-0.8,0.2-1.2c0-0.4-0.1-0.8-0.2-1.2c-0.3-0.7-0.9-1.3-1.6-1.5
	c-0.8-0.3-1.6-0.3-2.3,0c-0.3,0.1-0.7,0.3-0.9,0.6c-0.3,0.3-0.5,0.6-0.6,0.9c-0.3,0.8-0.3,1.6,0,2.3c0.1,0.3,0.4,0.7,0.6,0.9
	c0.3,0.3,0.6,0.5,0.9,0.6c0.4,0.1,0.8,0.2,1.2,0.2c0.4,0,0.8-0.1,1.2-0.2c0.3-0.1,0.7-0.3,0.9-0.6C84.8,95.2,85,94.9,85.2,94.6
	L85.2,94.6z M82.5,95.3c-0.3,0-0.5,0-0.7-0.2c-0.2-0.1-0.4-0.2-0.6-0.4c-0.2-0.2-0.3-0.4-0.4-0.6c-0.1-0.2-0.1-0.5-0.1-0.8
	c0-0.3,0-0.5,0.1-0.8c0.1-0.2,0.2-0.4,0.4-0.6c0.2-0.2,0.3-0.3,0.6-0.4c0.5-0.2,1-0.2,1.5,0c0.2,0.1,0.4,0.2,0.6,0.4
	c0.2,0.2,0.3,0.4,0.4,0.6c0.1,0.2,0.1,0.5,0.1,0.8c0,0.3,0,0.5-0.1,0.8c-0.1,0.2-0.2,0.4-0.4,0.6c-0.2,0.2-0.4,0.3-0.6,0.4
	C83,95.3,82.7,95.4,82.5,95.3L82.5,95.3z M90.8,96.2l-1.5-2.5c0.3-0.1,0.6-0.2,0.8-0.4c0.3-0.3,0.4-0.6,0.4-1c0-0.3-0.1-0.5-0.2-0.8
	c-0.1-0.2-0.3-0.4-0.4-0.5c-0.2-0.1-0.4-0.2-0.7-0.3c-0.2-0.1-0.5-0.1-0.8-0.1h-1.8v5.6h1v-2.3h0.5l1.3,2.3L90.8,96.2z M87.7,91.6
	h0.7c0.1,0,0.3,0,0.4,0c0.1,0,0.2,0.1,0.3,0.1c0.1,0,0.2,0.1,0.2,0.2c0.1,0.1,0.1,0.2,0.1,0.3c0,0.1,0,0.2-0.1,0.3
	c-0.1,0.1-0.1,0.2-0.2,0.2c-0.1,0.1-0.2,0.1-0.3,0.1c-0.1,0-0.3,0-0.4,0h-0.7L87.7,91.6L87.7,91.6z M92.7,94.9H95l0.5,1.3h1.2
	l-2.4-5.6h-0.9L91,96.2h1.2L92.7,94.9z M93.1,93.9l0.8-1.9l0.8,1.9L93.1,93.9z M97.3,94.6c-0.1-0.4-0.2-0.8-0.2-1.2
	c0-0.4,0.1-0.8,0.2-1.2c0.1-0.3,0.4-0.7,0.6-0.9c0.3-0.3,0.6-0.5,0.9-0.6c0.6-0.2,1.2-0.3,1.7-0.2c0.2,0,0.4,0.1,0.6,0.2
	c0.2,0.1,0.3,0.2,0.5,0.3c0.1,0.1,0.3,0.2,0.4,0.4l0.1,0.1l-0.8,0.6l-0.1-0.1c-0.1-0.2-0.3-0.3-0.5-0.4c-0.2-0.1-0.5-0.2-0.7-0.2
	c-0.3,0-0.5,0-0.8,0.2c-0.2,0.1-0.4,0.2-0.6,0.4c-0.2,0.2-0.3,0.4-0.4,0.6c-0.1,0.2-0.1,0.5-0.1,0.8c0,0.3,0,0.5,0.1,0.8
	c0.1,0.2,0.2,0.4,0.4,0.6c0.2,0.2,0.4,0.3,0.6,0.4c0.2,0.1,0.5,0.2,0.8,0.2c0.3,0,0.5,0,0.7-0.2c0.2-0.1,0.4-0.3,0.5-0.5l0.1-0.1
	l0.8,0.6l-0.1,0.1c-0.2,0.3-0.5,0.6-0.9,0.7c-0.4,0.2-0.8,0.3-1.3,0.3c-0.4,0-0.8-0.1-1.2-0.2c-0.3-0.1-0.7-0.3-0.9-0.6
	C97.7,95.2,97.5,94.9,97.3,94.6L97.3,94.6z M103.2,90.6h1v5.6h-1V90.6z M108.4,96.3c0.4,0,0.8-0.1,1.2-0.2c0.3-0.1,0.7-0.3,0.9-0.6
	c0.3-0.3,0.5-0.6,0.6-0.9c0.2-0.4,0.2-0.8,0.2-1.2c0-0.4-0.1-0.8-0.2-1.2c-0.3-0.7-0.9-1.3-1.6-1.5c-0.4-0.1-0.8-0.2-1.2-0.2
	c-0.4,0-0.8,0.1-1.2,0.2c-0.3,0.1-0.7,0.3-0.9,0.6c-0.3,0.3-0.5,0.6-0.6,0.9c-0.3,0.8-0.3,1.6,0,2.3c0.1,0.3,0.3,0.7,0.6,0.9
	c0.3,0.3,0.6,0.5,0.9,0.6C107.6,96.2,108,96.3,108.4,96.3L108.4,96.3z M108.4,91.4c0.3,0,0.5,0,0.8,0.2c0.2,0.1,0.4,0.2,0.6,0.4
	c0.2,0.2,0.3,0.4,0.4,0.6c0.1,0.2,0.1,0.5,0.1,0.8c0,0.3,0,0.5-0.1,0.8c-0.1,0.2-0.2,0.4-0.4,0.6c-0.2,0.2-0.4,0.3-0.6,0.4
	c-0.2,0.1-0.5,0.2-0.8,0.2c-0.3,0-0.5,0-0.8-0.2c-0.2-0.1-0.4-0.2-0.6-0.4c-0.2-0.2-0.3-0.4-0.4-0.6c-0.1-0.2-0.1-0.5-0.1-0.8
	c0-0.3,0-0.5,0.1-0.8c0.1-0.2,0.2-0.4,0.4-0.6c0.2-0.2,0.4-0.3,0.6-0.4C107.9,91.5,108.2,91.5,108.4,91.4L108.4,91.4z M113.6,96.1
	h-1v-5.5h1.2l2.5,3.8v-3.8h1.1v5.6h-1.2l-2.5-3.9L113.6,96.1z M123.6,90.6h1v5.6h-1V90.6z M130,95.2c0.1-0.2,0.2-0.5,0.2-0.7
	c0-0.2,0-0.4-0.1-0.6c-0.1-0.2-0.1-0.3-0.3-0.4c-0.1-0.1-0.3-0.2-0.4-0.3h-0.1c0.1-0.1,0.2-0.2,0.3-0.3c0.2-0.2,0.3-0.5,0.3-0.8
	c0-0.2,0-0.5-0.2-0.7c-0.1-0.2-0.3-0.3-0.4-0.5c-0.2-0.1-0.4-0.2-0.6-0.2c-0.2-0.1-0.4-0.1-0.6-0.1h-2v5.6h1.9c0.3,0,0.5,0,0.8-0.1
	c0.2-0.1,0.5-0.2,0.7-0.3C129.8,95.7,130,95.5,130,95.2L130,95.2z M127.3,93.7h0.8c0.3,0,0.7,0.1,0.9,0.3c0.2,0.1,0.3,0.3,0.2,0.5
	c0,0.1,0,0.3-0.1,0.4c-0.1,0.1-0.1,0.2-0.2,0.2c-0.1,0.1-0.2,0.1-0.4,0.1c-0.1,0-0.3,0-0.4,0h-0.8L127.3,93.7z M128.9,92.4
	c0,0.1-0.1,0.1-0.2,0.2c-0.1,0.1-0.2,0.1-0.3,0.1c-0.1,0-0.2,0-0.4,0h-0.8v-1.2h0.7c0.3,0,0.5,0,0.8,0.2c0.2,0.1,0.3,0.3,0.2,0.5
	C129,92.3,129,92.4,128.9,92.4L128.9,92.4z M135.3,96.1h-3.8v-5.5h3.7v1h-2.6v1.2h2.5v0.9h-2.5v1.4h2.7V96.1z M139.4,96.1h1.3
	l-1.5-2.5c0.3-0.1,0.6-0.2,0.8-0.4c0.3-0.3,0.4-0.6,0.4-1c0-0.3-0.1-0.5-0.2-0.8c-0.1-0.2-0.3-0.4-0.5-0.5c-0.2-0.1-0.4-0.2-0.6-0.3
	c-0.2-0.1-0.5-0.1-0.8-0.1h-1.8v5.6h1.1v-2.3h0.5L139.4,96.1z M137.6,91.5h0.7c0.1,0,0.3,0,0.4,0c0.1,0,0.2,0.1,0.3,0.1
	c0.1,0,0.2,0.1,0.2,0.2c0.1,0.1,0.1,0.2,0.1,0.3c0,0.2-0.1,0.4-0.3,0.5c-0.1,0.1-0.2,0.1-0.3,0.1c-0.1,0-0.3,0-0.4,0h-0.7
	L137.6,91.5L137.6,91.5z M142.2,95.4c0.3,0.3,0.6,0.5,0.9,0.6c0.4,0.1,0.8,0.2,1.2,0.2c0.4,0,0.8-0.1,1.2-0.2
	c0.3-0.1,0.7-0.3,0.9-0.6c0.3-0.3,0.5-0.6,0.6-0.9c0.1-0.4,0.2-0.8,0.2-1.2c0-0.4-0.1-0.8-0.2-1.2c-0.1-0.3-0.4-0.7-0.6-0.9
	c-0.3-0.3-0.6-0.5-0.9-0.6c-0.4-0.1-0.8-0.2-1.2-0.2c-0.4,0-0.8,0.1-1.2,0.2c-0.3,0.1-0.7,0.3-0.9,0.6c-0.3,0.3-0.5,0.6-0.6,0.9
	c-0.1,0.4-0.2,0.8-0.2,1.2c0,0.4,0.1,0.8,0.2,1.2C141.7,94.9,142,95.2,142.2,95.4L142.2,95.4z M144.3,91.4c0.3,0,0.5,0,0.8,0.2
	c0.2,0.1,0.4,0.2,0.6,0.4c0.2,0.2,0.3,0.4,0.4,0.6c0.1,0.2,0.1,0.5,0.1,0.8c0,0.3,0,0.5-0.1,0.8c-0.1,0.2-0.2,0.4-0.4,0.6
	c-0.2,0.2-0.4,0.3-0.6,0.4c-0.2,0.1-0.5,0.2-0.8,0.2c-0.3,0-0.5,0-0.7-0.2c-0.2-0.1-0.4-0.2-0.6-0.4c-0.2-0.2-0.3-0.4-0.4-0.6
	c-0.1-0.2-0.1-0.5-0.1-0.8c0-0.3,0-0.5,0.1-0.8c0.1-0.2,0.2-0.4,0.4-0.6c0.2-0.2,0.3-0.3,0.6-0.4C143.8,91.5,144.1,91.5,144.3,91.4
	L144.3,91.4z M150.1,90.6l-2.4,5.6h1.2l0.5-1.3h2.3l0.5,1.3h1.2l-2.3-5.5L150.1,90.6z M151.3,94h-1.5l0.7-1.9L151.3,94z M155.3,96.2
	h-1v-5.6h1.4l1.5,3.8l1.4-3.8h1.4v5.6h-1.1v-3.8l-1.5,3.8h-0.7l-1.5-3.7V96.2z M162.6,95.2h2.7v1h-3.8v-5.6h3.7v1h-2.6v1.2h2.4v0.9
	h-2.5L162.6,95.2z M170,93.3c0.3-0.3,0.4-0.6,0.4-1c0-0.3-0.1-0.5-0.2-0.8c-0.1-0.2-0.3-0.4-0.5-0.5c-0.2-0.1-0.4-0.2-0.6-0.3
	c-0.2-0.1-0.5-0.1-0.8-0.1h-1.8v5.6h1.1v-2.4h0.5l1.3,2.3h1.3l-1.5-2.5C169.5,93.7,169.8,93.5,170,93.3z M167.6,91.6h0.7
	c0.1,0,0.3,0,0.4,0c0.1,0,0.2,0.1,0.3,0.1c0.1,0,0.2,0.1,0.2,0.2c0.1,0.1,0.1,0.2,0.1,0.3c0,0.2-0.1,0.4-0.3,0.5
	c-0.1,0.1-0.2,0.1-0.3,0.1c-0.1,0-0.3,0-0.4,0h-0.7L167.6,91.6z M171.6,90.7h1.1v5.6h-1.1V90.7z M174.1,94.7
	c-0.1-0.4-0.2-0.8-0.2-1.2c0-0.4,0.1-0.8,0.2-1.2c0.1-0.3,0.4-0.7,0.6-0.9c0.3-0.3,0.6-0.5,0.9-0.6c0.6-0.2,1.2-0.3,1.7-0.2
	c0.2,0,0.4,0.1,0.6,0.2c0.2,0.1,0.3,0.2,0.5,0.3c0.1,0.1,0.3,0.2,0.4,0.4l0.1,0.1l-0.8,0.6L178,92c-0.1-0.2-0.3-0.3-0.5-0.4
	c-0.2-0.1-0.5-0.2-0.7-0.2c-0.3,0-0.5,0-0.8,0.2c-0.2,0.1-0.4,0.2-0.6,0.4c-0.2,0.2-0.3,0.4-0.4,0.6c-0.1,0.2-0.1,0.5-0.1,0.8
	c0,0.3,0,0.5,0.1,0.8c0.1,0.2,0.2,0.4,0.4,0.6c0.2,0.2,0.4,0.3,0.6,0.4c0.2,0.1,0.5,0.2,0.8,0.2c0.3,0,0.5,0,0.7-0.2
	c0.2-0.1,0.4-0.3,0.5-0.5l0.1-0.1l0.9,0.6l-0.1,0.1c-0.2,0.3-0.5,0.6-0.9,0.7c-0.4,0.2-0.8,0.3-1.3,0.3c-0.4,0-0.8-0.1-1.2-0.2
	C174.9,95.8,174.4,95.3,174.1,94.7L174.1,94.7z M181.6,90.7l-2.4,5.6h1.2l0.5-1.3h2.3l0.5,1.3h1.2l-2.4-5.6H181.6z M182.7,94h-1.5
	l0.8-1.9L182.7,94z M189.4,90.7h1.1v5.6h-1.2l-2.5-3.9v3.9h-1.1v-5.6h1.2l2.5,3.8L189.4,90.7z M193,94.9h2.3l0.5,1.3h1.2l-2.4-5.6
	h-0.9l-2.4,5.6h1.2L193,94.9z M193.4,93.9l0.8-1.9l0.7,1.9H193.4z M61.2,101.8c-0.3-0.2-0.6-0.4-1-0.5c-0.3-0.1-0.7-0.1-1-0.2h-2
	v5.6h2c0.4,0,0.7-0.1,1-0.2c0.4-0.1,0.7-0.3,1-0.5c0.3-0.2,0.5-0.5,0.7-0.9c0.2-0.4,0.3-0.8,0.3-1.2c0-0.4-0.1-0.9-0.3-1.3
	C61.7,102.3,61.5,102,61.2,101.8z M58.2,102.1H59c0.3,0,0.6,0,0.8,0.1c0.2,0.1,0.5,0.2,0.6,0.3c0.2,0.1,0.3,0.3,0.4,0.6
	c0.1,0.3,0.1,0.5,0.1,0.8c0,0.3,0,0.5-0.1,0.8c-0.1,0.2-0.2,0.4-0.4,0.6c-0.2,0.2-0.4,0.3-0.6,0.3c-0.3,0.1-0.5,0.1-0.8,0.1h-0.8
	L58.2,102.1L58.2,102.1z M64.1,105.7h2.7v1H63v-5.6h3.7v1h-2.6v1.2h2.5v1h-2.5V105.7z M70.8,105.7h2.3v1h-3.4v-5.6h1.1L70.8,105.7z
	 M78.2,101.8c-0.3-0.3-0.6-0.5-0.9-0.6c-0.4-0.2-0.8-0.2-1.2-0.2c-0.4,0-0.8,0.1-1.2,0.2c-0.3,0.1-0.7,0.3-0.9,0.6
	c-0.3,0.3-0.5,0.6-0.6,0.9c-0.1,0.4-0.2,0.8-0.2,1.2c0,0.4,0.1,0.8,0.2,1.2c0.3,0.7,0.8,1.2,1.6,1.5c0.7,0.3,1.6,0.3,2.3,0
	c0.7-0.3,1.3-0.8,1.6-1.5c0.2-0.4,0.2-0.8,0.2-1.2c0-0.4-0.1-0.8-0.2-1.2C78.7,102.4,78.5,102.1,78.2,101.8z M76.1,105.8
	c-0.3,0-0.5-0.1-0.8-0.2c-0.2-0.1-0.4-0.2-0.6-0.4c-0.2-0.2-0.3-0.4-0.4-0.6c-0.1-0.2-0.1-0.5-0.1-0.8c0-0.3,0-0.5,0.1-0.8
	c0.1-0.2,0.2-0.4,0.4-0.6c0.2-0.2,0.4-0.3,0.6-0.4c0.2-0.1,0.5-0.2,0.8-0.2c0.3,0,0.5,0,0.8,0.2c0.2,0.1,0.4,0.2,0.6,0.4
	c0.2,0.2,0.3,0.4,0.4,0.6c0.1,0.2,0.1,0.5,0.1,0.8c0,0.3,0,0.5-0.1,0.8c-0.1,0.2-0.2,0.4-0.4,0.6c-0.2,0.2-0.4,0.3-0.6,0.4
	C76.6,105.8,76.4,105.9,76.1,105.8L76.1,105.8z M79.1,101.1h4.4v1h-1.7v4.6h-1.1v-4.6h-1.7L79.1,101.1z M85.1,105.7h2.7v1h-3.8v-5.6
	h3.7v1h-2.6v1.2h2.5v1h-2.5L85.1,105.7z M92.1,103.7c0.3-0.3,0.4-0.6,0.4-1c0-0.3-0.1-0.5-0.2-0.8c-0.1-0.2-0.3-0.4-0.4-0.5
	c-0.2-0.1-0.4-0.2-0.7-0.3c-0.2-0.1-0.5-0.1-0.8-0.1h-1.8v5.6h1v-2.3h0.5l1.3,2.3h1.3l-1.5-2.5C91.7,104.2,92,104,92.1,103.7
	L92.1,103.7z M89.7,102h0.7c0.1,0,0.3,0,0.4,0c0.1,0,0.2,0.1,0.3,0.1c0.1,0,0.2,0.1,0.2,0.2c0.1,0.1,0.1,0.2,0.1,0.3
	c0,0.1,0,0.2-0.1,0.3c-0.1,0.1-0.1,0.2-0.2,0.2c-0.1,0.1-0.2,0.1-0.3,0.1c-0.1,0-0.3,0-0.4,0h-0.7L89.7,102L89.7,102z M93.4,101.1
	h1.1v5.6h-1L93.4,101.1z M97.3,101.1l-2.3,5.6h1.2l0.5-1.3H99l0.5,1.3h1.2l-2.4-5.6L97.3,101.1z M98.4,104.4H97l0.8-1.9L98.4,104.4z
	 M102,102.3c-0.1,0.1-0.1,0.2-0.1,0.3c0,0.1,0,0.2,0.1,0.3c0.1,0.1,0.1,0.1,0.2,0.2c0.1,0.1,0.2,0.1,0.3,0.2l0.4,0.2
	c0.2,0,0.4,0.1,0.5,0.2c0.2,0.1,0.4,0.2,0.5,0.3c0.2,0.1,0.3,0.3,0.4,0.5c0.1,0.2,0.2,0.5,0.2,0.7c0,0.3-0.1,0.5-0.2,0.8
	c-0.1,0.2-0.3,0.4-0.4,0.6c-0.2,0.1-0.4,0.3-0.6,0.3c-0.2,0.1-0.5,0.1-0.7,0.1c-0.3,0-0.7-0.1-1-0.2c-0.3-0.1-0.6-0.3-0.8-0.6
	l-0.1-0.1l0.8-0.7l0.1,0.2c0.1,0.2,0.3,0.3,0.4,0.4c0.3,0.2,0.6,0.2,0.9,0.1c0.1,0,0.2-0.1,0.3-0.1c0.1-0.1,0.2-0.1,0.2-0.2
	c0.1-0.1,0.1-0.2,0.1-0.3c0-0.1,0-0.2-0.1-0.3c-0.1-0.1-0.1-0.2-0.2-0.2c-0.1-0.1-0.2-0.1-0.4-0.2l-0.5-0.2
	c-0.2-0.1-0.3-0.1-0.5-0.2c-0.2-0.1-0.3-0.2-0.5-0.3c-0.2-0.1-0.3-0.3-0.4-0.5c-0.2-0.5-0.2-1,0-1.4c0.1-0.2,0.3-0.4,0.5-0.5
	c0.2-0.1,0.4-0.2,0.6-0.3c0.5-0.2,1.1-0.1,1.6,0.1c0.3,0.1,0.5,0.3,0.7,0.5l0.1,0.1l-0.8,0.7l-0.1-0.2c-0.1-0.1-0.2-0.2-0.4-0.3
	c-0.3-0.1-0.6-0.2-0.8-0.1c-0.1,0-0.2,0.1-0.3,0.1C102.1,102.1,102.1,102.2,102,102.3L102,102.3z M110.5,101.1h1.2l-2.1,3.2v2.4
	h-1.1v-2.4l-2.1-3.2h1.3l1.4,2.2L110.5,101.1z M115.5,101.1l-2.4,5.6h1.2l0.5-1.3h2.3l0.5,1.3h1.2l-2.4-5.6H115.5z M116.6,104.4
	h-1.5l0.8-1.9L116.6,104.4z M122.4,101.5c-0.2-0.1-0.4-0.2-0.6-0.3c-0.3-0.1-0.5-0.1-0.8-0.1h-1.8v5.6h1v-2.3h0.7
	c0.3,0,0.5,0,0.8-0.1c0.2-0.1,0.5-0.2,0.7-0.3c0.2-0.1,0.3-0.3,0.4-0.5c0.1-0.2,0.2-0.5,0.2-0.7c0.1-0.2,0.1-0.5,0-0.7
	c-0.1-0.2-0.3-0.4-0.4-0.5L122.4,101.5z M120.3,102h0.7c0.2,0,0.3,0,0.5,0c0.1,0,0.2,0.1,0.3,0.1c0.1,0.1,0.1,0.1,0.2,0.2
	c0,0.1,0.1,0.2,0.1,0.3c0,0.1,0,0.2-0.1,0.3c0,0.1-0.1,0.2-0.2,0.2c-0.1,0.1-0.2,0.1-0.3,0.1c-0.2,0-0.3,0-0.5,0h-0.6v-1.4
	L120.3,102z M127.1,101.1h1.1v3.5c0,0.3,0,0.6-0.1,0.8c-0.1,0.3-0.2,0.5-0.4,0.7c-0.2,0.2-0.4,0.4-0.7,0.5c-0.6,0.3-1.3,0.3-1.9,0
	c-0.5-0.2-0.9-0.7-1.1-1.2c-0.1-0.3-0.1-0.5-0.1-0.8v-3.5h1.2v3.4c0,0.2,0,0.3,0.1,0.5c0,0.1,0.1,0.3,0.2,0.4
	c0.1,0.1,0.2,0.2,0.3,0.3c0.2,0.1,0.4,0.1,0.6,0.1c0.2,0,0.4,0,0.5-0.1c0.1-0.1,0.3-0.2,0.3-0.3c0.1-0.1,0.2-0.3,0.2-0.4
	c0-0.2,0.1-0.3,0.1-0.5L127.1,101.1z M130.3,105.7h2.7v1h-3.8v-5.6h3.7v1h-2.6v1.2h2.5v1h-2.5V105.7z M134.8,102.3
	c-0.1,0.1-0.1,0.2-0.1,0.3c0,0.1,0,0.2,0.1,0.3c0,0.1,0.1,0.1,0.2,0.2c0.1,0.1,0.2,0.1,0.3,0.2l0.4,0.2c0.2,0,0.4,0.1,0.5,0.2
	c0.2,0.1,0.4,0.2,0.5,0.3c0.2,0.1,0.3,0.3,0.4,0.5c0.1,0.2,0.2,0.5,0.2,0.7c0,0.3-0.1,0.5-0.2,0.8c-0.1,0.2-0.3,0.4-0.4,0.6
	c-0.2,0.1-0.4,0.3-0.6,0.3c-0.2,0.1-0.5,0.1-0.7,0.1c-0.3,0-0.7-0.1-1-0.2c-0.3-0.1-0.6-0.3-0.8-0.6l-0.1-0.1l0.8-0.7l0.1,0.2
	c0.1,0.2,0.3,0.3,0.4,0.4c0.3,0.2,0.6,0.2,0.9,0.1c0.1,0,0.2-0.1,0.3-0.1c0.1-0.1,0.2-0.1,0.2-0.2c0.1-0.1,0.1-0.2,0.1-0.3
	c0-0.1,0-0.2-0.1-0.3c-0.1-0.1-0.1-0.2-0.2-0.2c-0.1-0.1-0.2-0.1-0.4-0.2l-0.5-0.2c-0.2,0-0.3-0.1-0.5-0.2c-0.2-0.1-0.3-0.2-0.5-0.3
	c-0.1-0.1-0.3-0.3-0.4-0.5c-0.2-0.5-0.2-1,0-1.4c0.1-0.2,0.3-0.4,0.5-0.5c0.2-0.1,0.4-0.2,0.6-0.3c0.5-0.2,1.1-0.1,1.6,0.1
	c0.3,0.1,0.5,0.3,0.7,0.5l0.1,0.1l-0.8,0.7l-0.1-0.2c-0.1-0.1-0.2-0.2-0.4-0.3c-0.3-0.1-0.6-0.2-0.8-0.1c-0.1,0-0.2,0.1-0.3,0.1
	c0,0.1,0,0.2,0,0.3L134.8,102.3z M142,102h-1.7v4.6h-1.1V102h-1.7v-1h4.4L142,102z M143.9,101l-2.4,5.6h1.2l0.5-1.3h2.3l0.5,1.3h1.2
	l-2.4-5.6H143.9z M145,104.4h-1.5l0.8-1.9L145,104.4z M148.5,102.2c-0.1,0.1-0.1,0.2-0.1,0.3c0,0.2,0.1,0.4,0.2,0.5
	c0.1,0.1,0.2,0.1,0.3,0.2l0.4,0.2c0.2,0,0.4,0.1,0.6,0.2c0.2,0.1,0.4,0.2,0.5,0.3c0.2,0.1,0.3,0.3,0.4,0.5c0.1,0.2,0.2,0.5,0.2,0.7
	c0,0.5-0.2,1-0.6,1.3c-0.2,0.1-0.4,0.3-0.6,0.3c-0.2,0.1-0.5,0.1-0.7,0.1c-0.3,0-0.7-0.1-1-0.2c-0.3-0.1-0.6-0.3-0.8-0.6l-0.1-0.1
	l0.8-0.7l0.1,0.2c0.1,0.2,0.3,0.3,0.4,0.4c0.3,0.2,0.6,0.2,0.9,0.1c0.1,0,0.2-0.1,0.3-0.1c0.1-0.1,0.2-0.1,0.2-0.2
	c0.1-0.1,0.1-0.2,0.1-0.3c0-0.1,0-0.2-0.1-0.3c-0.1-0.1-0.1-0.2-0.2-0.2c-0.1-0.1-0.2-0.1-0.4-0.2l-0.5-0.2
	c-0.2-0.1-0.3-0.1-0.5-0.2c-0.2-0.1-0.3-0.2-0.5-0.3c-0.1-0.1-0.3-0.3-0.4-0.5c-0.2-0.5-0.2-1,0.1-1.4c0.1-0.2,0.3-0.4,0.5-0.5
	c0.2-0.1,0.4-0.2,0.6-0.3c0.5-0.2,1.1-0.1,1.6,0.1c0.3,0.1,0.5,0.3,0.7,0.5l0.1,0.1l-0.8,0.7l-0.1-0.2c-0.1-0.1-0.2-0.2-0.4-0.3
	c-0.3-0.1-0.6-0.2-0.8-0.1c-0.1,0-0.2,0.1-0.3,0.1c-0.1,0.1-0.1,0.2-0.1,0.3L148.5,102.2z M158,101.7c-0.3-0.2-0.6-0.4-1-0.5
	c-0.3-0.1-0.7-0.2-1.1-0.2h-2v5.6h2c0.4,0,0.7-0.1,1.1-0.2c0.4-0.1,0.7-0.3,1-0.5c0.3-0.2,0.5-0.5,0.7-0.9c0.2-0.4,0.3-0.8,0.3-1.2
	c0-0.4-0.1-0.9-0.3-1.3c-0.1-0.3-0.3-0.6-0.6-0.8L158,101.7z M155.1,102h0.9c0.3,0,0.6,0,0.8,0.1c0.2,0.1,0.5,0.2,0.6,0.3
	c0.2,0.2,0.3,0.3,0.4,0.6c0.1,0.2,0.2,0.5,0.1,0.8c0,0.3,0,0.5-0.1,0.8c-0.1,0.2-0.2,0.4-0.4,0.6c-0.2,0.2-0.4,0.3-0.6,0.3
	c-0.3,0.1-0.5,0.1-0.8,0.1h-0.8v-3.5L155.1,102z M160.9,105.6h2.7v1H160v-5.6h3.7v1H161v1.2h2.5v1H161L160.9,105.6z M167.6,105.6
	h2.7v1h-3.8v-5.6h3.7v1h-2.6v1.2h2.5v1h-2.5V105.6z M172.1,102.2c0,0.1-0.1,0.2-0.1,0.3c0,0.1,0,0.2,0.1,0.3c0,0.1,0.1,0.1,0.2,0.2
	c0.1,0.1,0.2,0.1,0.3,0.2l0.4,0.2c0.2,0,0.4,0.1,0.5,0.2c0.2,0.1,0.4,0.2,0.5,0.3c0.2,0.1,0.3,0.3,0.4,0.5c0.1,0.2,0.2,0.5,0.2,0.7
	c0,0.3-0.1,0.5-0.2,0.8c-0.1,0.2-0.3,0.4-0.4,0.6c-0.2,0.1-0.4,0.3-0.6,0.3c-0.6,0.2-1.2,0.1-1.8-0.1c-0.3-0.1-0.6-0.3-0.8-0.6
	l-0.1-0.1l0.8-0.7l0.1,0.2c0.1,0.2,0.3,0.3,0.4,0.4c0.3,0.2,0.6,0.2,0.9,0.1c0.1,0,0.2-0.1,0.3-0.1c0.1-0.1,0.2-0.1,0.2-0.2
	c0.1-0.1,0.1-0.2,0.1-0.3c0-0.1,0-0.2-0.1-0.3c-0.1-0.1-0.1-0.2-0.2-0.2c-0.1-0.1-0.2-0.1-0.4-0.2l-0.5-0.2
	c-0.2-0.1-0.4-0.1-0.5-0.2c-0.2-0.1-0.3-0.2-0.5-0.3c-0.2-0.1-0.3-0.3-0.4-0.5c-0.2-0.5-0.2-1,0-1.4c0.1-0.2,0.3-0.4,0.5-0.5
	c0.2-0.1,0.4-0.2,0.6-0.3c0.5-0.2,1.1-0.1,1.6,0.1c0.3,0.1,0.5,0.3,0.7,0.5l0.1,0.1l-0.8,0.7l-0.1-0.2c-0.1-0.1-0.2-0.2-0.4-0.3
	c-0.3-0.1-0.6-0.2-0.8-0.1c-0.1,0-0.2,0.1-0.3,0.1c0,0.1,0,0.2,0,0.3L172.1,102.2z M179.3,102h-1.7v4.6h-1.1V102H175v-1h4.4
	L179.3,102z M181.1,101l-2.4,5.6h1.3l0.5-1.3h2.3l0.5,1.3h1.2l-2.4-5.6H181.1z M182.3,104.3h-1.4l0.8-1.9L182.3,104.3z M188.8,101.7
	c-0.3-0.2-0.6-0.4-1-0.5c-0.3-0.1-0.7-0.1-1.1-0.2h-2v5.6h2c0.4,0,0.7-0.1,1.1-0.2c0.4-0.1,0.7-0.3,1-0.5c0.3-0.2,0.5-0.5,0.7-0.9
	c0.2-0.4,0.3-0.8,0.3-1.2c0-0.4-0.1-0.9-0.3-1.3c-0.1-0.3-0.3-0.5-0.6-0.7L188.8,101.7z M185.9,102h0.8c0.3,0,0.6,0,0.8,0.1
	c0.2,0.1,0.5,0.2,0.6,0.3c0.2,0.2,0.3,0.3,0.4,0.6c0.1,0.2,0.2,0.5,0.1,0.8c0,0.3,0,0.5-0.1,0.8c-0.1,0.2-0.2,0.4-0.4,0.6
	c-0.2,0.2-0.4,0.3-0.6,0.3c-0.3,0.1-0.5,0.1-0.8,0.1H186v-3.5L185.9,102z M195.4,101.7c-0.3-0.3-0.6-0.5-0.9-0.6
	c-0.4-0.1-0.8-0.2-1.2-0.2c-0.4,0-0.8,0.1-1.2,0.2c-0.3,0.1-0.7,0.3-0.9,0.6c-0.3,0.3-0.5,0.6-0.6,0.9c-0.3,0.8-0.3,1.6,0,2.4
	c0.1,0.3,0.3,0.7,0.6,0.9c0.3,0.3,0.6,0.5,0.9,0.6c0.8,0.3,1.6,0.3,2.3,0c0.4-0.1,0.7-0.3,0.9-0.6c0.3-0.3,0.5-0.6,0.6-0.9
	c0.2-0.4,0.2-0.8,0.2-1.2c0-0.4-0.1-0.8-0.2-1.2c-0.1-0.3-0.3-0.6-0.5-0.8L195.4,101.7z M193.3,105.7c-0.3,0-0.5-0.1-0.8-0.2
	c-0.2-0.1-0.4-0.2-0.6-0.4c-0.2-0.2-0.3-0.4-0.4-0.6c-0.1-0.2-0.1-0.5-0.1-0.8c0-0.3,0-0.5,0.1-0.8c0.1-0.2,0.2-0.4,0.4-0.6
	c0.2-0.2,0.4-0.3,0.6-0.4c0.5-0.2,1-0.2,1.5,0c0.2,0.1,0.4,0.2,0.6,0.4c0.2,0.2,0.3,0.4,0.4,0.6c0.1,0.2,0.1,0.5,0.1,0.8
	c0,0.3,0,0.5-0.1,0.8c-0.1,0.2-0.2,0.4-0.4,0.6c-0.2,0.2-0.4,0.3-0.6,0.4c-0.2,0.2-0.4,0.3-0.6,0.3L193.3,105.7z M95.3,99.3l0.5,1
	l-1.9,0.8l-0.3-0.8L95.3,99.3z M108.2,90.3l-0.3-0.8l1.7-1l0.5,0.9L108.2,90.3z"/>
</svg>
