<?xml version="1.0" encoding="utf-8"?>
<!-- Generator: Adobe Illustrator 26.3.1, SVG Export Plug-In . SVG Version: 6.00 Build 0)  -->
<svg version="1.1" id="Layer_1" xmlns="http://www.w3.org/2000/svg" xmlns:xlink="http://www.w3.org/1999/xlink" x="0px" y="0px"
	 viewBox="0 0 200 160" style="enable-background:new 0 0 200 160;" xml:space="preserve">
<style type="text/css">
	.st0{fill:#7597AC;}
</style>
<path class="st0" d="M38.4,43.8c4.9,0.2,9.6,1.4,14,3.6c4,1.8,7.5,4.5,10.4,7.7c4.7,4.9,7.9,11.1,9.2,17.8c0,0.2,0,0.5,0.2,0.6l0,0
	c0-0.1-0.1-0.2-0.2-0.2c-1.7-3.2-5.2-5-8.8-4.6c-3.6,0.4-6.6,3-7.5,6.5c-0.4,1.4-0.5,2.8-0.4,4.2c-0.1,1.5,0.1,3.1,0.4,4.6
	c1,4.7,5.7,7.7,10.4,6.7c2.5-0.5,4.7-2.2,5.9-4.4c0-0.1,0.1-0.2,0.2-0.2c0,0,0,0,0,0c-0.2,0.8-0.4,1.7-0.4,2.5
	c-1.6,6.8-5.1,12.9-10.2,17.6c-5.1,4.7-11.4,8-18.2,9.4c-3.7,0.7-7.5,0.8-11.3,0.4c-7.7-1-14.8-4.4-20.3-9.8
	c-5.2-4.9-8.8-11.4-10.2-18.4c-0.4-2-0.6-4-0.6-6.1v-3.8c0-0.8,0.2-1.5,0.2-2.3c0.2-1,0.2-1.9,0.4-2.9l0,0c0,0.2,0,0.2,0.2,0.4
	l5.6,15.1C7.7,88.8,8,89.4,8.3,90c0.2,0.4,0.6,0.6,1,0.6h1.2c0.5,0,0.9-0.2,1.1-0.6c0.2-0.5,0.5-1,0.6-1.5
	c2.3-6.1,4.6-12.1,6.7-18.2c0.4-1,0.4-1-0.6-1.2c-0.6-0.2-0.6-0.2-1,0.4C15,76,12.5,82.3,10.2,88.8c0,0.2-0.2,0.4-0.4,0.4
	c-0.2,0-0.4-0.2-0.4-0.4c-2.3-6.3-4.8-12.5-7.1-19v-0.4c1-3.3,2.5-6.5,4.4-9.4c3.7-5.3,8.6-9.7,14.4-12.5c4.4-2.1,9.1-3.3,14-3.6
	H38.4z M38.4,79.6l0.2-0.2c1.9-2.3,3.6-4.6,5.4-6.9l1.9-2.5c0.2-0.4,0.2-0.4,0-0.8c-0.2-0.2-0.4-0.2-0.4-0.4c-0.4-0.4-0.4-0.4-0.8,0
	c-2.1,2.5-4,5-6.1,7.7c-0.4,0.4-0.8,1-1.2,1.5l-0.2-0.2c-1.7-2.1-3.1-4.2-4.8-6.1c-0.8-1-1.5-1.9-2.3-2.9c-0.2-0.4-0.4-0.4-0.6-0.2
	L29,69c-0.4,0.4-0.4,0.4,0,1c1.9,2.3,3.5,4.6,5.4,6.9c0.6,0.8,1.2,1.6,1.9,2.3c0,0.1-0.1,0.2-0.2,0.2c-1.3,1.7-2.5,3.3-4,5
	c-1,1.5-2.3,2.9-3.4,4.4c-0.2,0.1-0.2,0.4-0.1,0.5c0,0,0.1,0.1,0.1,0.1l0.6,0.6c0.1,0.2,0.4,0.2,0.5,0.1c0,0,0.1-0.1,0.1-0.1
	l0.2-0.2c1.7-2.3,3.3-4.4,5.2-6.7c0.6-0.8,1.2-1.6,1.9-2.3l0.2,0.2c1.7,2.3,3.3,4.4,5.2,6.7c0.6,0.7,1.2,1.5,1.7,2.3
	c0.4,0.4,0.4,0.4,0.8,0c0.2-0.2,0.4-0.2,0.4-0.4c0.4-0.4,0.4-0.4,0-0.8c-1.7-2.1-3.3-4.4-5.2-6.5C39.7,81.4,39.1,80.5,38.4,79.6z
	 M24.6,79.6V69.1c0-0.2-0.2-0.4-0.4-0.4h-0.6c-0.6,0-0.6,0-0.6,0.6v20.5c0,0.4,0.2,0.4,0.4,0.4H24c0.6,0,0.6,0,0.6-0.6L24.6,79.6z
	 M49.9,79.6v10c0,0.8,0,0.8,0.8,0.8s0.8,0,0.8-0.8V70c0-1,0-1-1-1c-0.6,0-0.6,0-0.6,0.6L49.9,79.6z M71.6,77.3
	c0-0.4-0.2-0.6-0.2-0.8c-0.6-3.8-4.1-6.3-7.9-5.7c-0.2,0-0.3,0.1-0.5,0.1c-3.1,0.7-5.4,3.3-5.6,6.5c-0.2,1.8-0.2,3.6,0,5.4
	c0.2,3.9,3.6,6.9,7.5,6.6c2.9-0.2,5.5-2.1,6.3-5c0.4-1.4,0.5-2.9,0.4-4.4L71.6,77.3z M169.1,83.6c1.9,2.9,3.8,5.6,5.4,8.6
	c0.4,0.4,0.9,0.6,1.5,0.6c0.2,0,0.4,0,0.4-0.4v-9.6c0-0.4,0-0.4-0.4-0.4c-0.2,0-0.4,0-0.4,0.4v9.2c-0.4-0.4-0.6-0.8-0.8-1.3
	c-1.7-2.7-3.3-5.2-5-7.9c-0.2-0.2-0.4-0.2-0.6-0.2h-0.6c-0.4,0-0.4,0-0.4,0.4v9.6c0,0.4,0,0.4,0.4,0.4s0.4,0,0.4-0.4v-9
	C169.1,83.8,169.1,84,169.1,83.6z M93.5,92.1c-1.9-2.9-3.6-5.7-5.8-8.8c-0.4-0.8-0.4-0.8-1.2-0.8c-0.4,0-0.4,0-0.4,0.4v9.6l0.2,0.2
	c0.4,0.2,0.6,0,0.6-0.4v-9c0.1,0,0.2,0.1,0.2,0.2c1.9,3.1,3.8,6.1,5.7,9c0.2,0.3,0.5,0.4,0.8,0.4h0.4c0.4,0,0.4,0,0.4-0.4v-9.4
	c0-0.4,0-0.4-0.4-0.4s-0.4,0-0.4,0.4L93.5,92.1L93.5,92.1z M175.6,71c0.8,1,1.7,2.1,2.3,2.9c0.2,0.2,0.4,0.4,0.4,0.6
	c0.2,0.2,0,0.4-0.2,0.6c-0.1,0.2-0.4,0.2-0.5,0.1c0,0-0.1-0.1-0.1-0.1c-1-1.2-2-2.5-2.9-3.8c-0.2-0.2-0.4-0.4-0.6-0.4h-2.1v4
	c0,0.2-0.2,0.4-0.4,0.4c-0.2,0-0.4,0-0.4-0.4v-9.4c0-0.6,0.2-0.6,0.6-0.6h3.4c1.5-0.1,2.9,1,3.1,2.5c0.3,1.6-0.7,3.1-2.3,3.5
	C175.8,71,175.7,71,175.6,71z M172,70.2h3.6c0.6,0,1.1-0.3,1.5-0.8c0.6-1,0.3-2.4-0.7-3c-0.3-0.2-0.7-0.3-1.2-0.3h-3.4
	C172,67.4,172.1,68.8,172,70.2z M84.9,71c1,1.2,1.9,2.3,2.9,3.6c0.2,0.4,0.2,0.4,0,0.6c-0.1,0.2-0.4,0.2-0.5,0.1
	c0,0-0.1-0.1-0.1-0.1c-1-1.2-1.9-2.5-2.9-3.8c-0.2-0.2-0.4-0.4-0.6-0.4h-2.1v3.8c0,0.4-0.2,0.4-0.4,0.4s-0.4,0-0.4-0.4v-9.6
	c0-0.2,0-0.6,0.4-0.6h4c2.3,0.2,3.1,2.1,2.7,4c-0.2,1.2-1.1,2-2.3,2.1C85.3,71,85.1,71,84.9,71z M81.3,70.2h3.6
	c1.3-0.2,1.7-0.8,1.9-2.1c0-1.2-0.6-2.1-1.7-2.1c-1.2-0.2-2.5,0-3.8-0.2C81.3,65.8,81.3,70.2,81.3,70.2z M110.2,71.8
	c0,0.5-0.2,1-0.4,1.5c-0.5,0.9-1.5,1.5-2.5,1.5c-1.6,0.1-3-1-3.3-2.5c-0.2-0.5-0.3-1.1-0.2-1.7c-0.1-1,0.1-2,0.4-2.9
	c0.4-1.2,1.6-2,2.9-1.9c1.3-0.1,2.5,0.7,2.9,1.9c0.2,0.4,0.4,0.4,0.8,0.2c0.2-0.2,0.2-0.2,0.2-0.4c-0.3-0.6-0.7-1.2-1.2-1.7
	c-1.9-1.5-4.7-1.1-6.1,0.8c-0.3,0.5-0.6,1-0.8,1.5c-0.3,1.1-0.4,2.2-0.2,3.3c0.1,2.2,1.8,4,4,4.2c1.9,0.3,3.7-0.9,4.2-2.7
	c0.2-0.8,0.2-1.7,0.2-2.5c0-0.2-0.2-0.4-0.4-0.4h-2.9c-0.6,0-0.6,0-0.6,0.6c0,0.2,0,0.2,0.2,0.2h2.5
	C109.8,71.2,109.9,71.6,110.2,71.8L110.2,71.8z M151.8,89.6c-0.1,0.5-0.4,1.1-0.8,1.5c-1.5,1.2-3.7,0.9-4.9-0.6
	c-0.3-0.3-0.4-0.7-0.6-1.1c-0.2-1.3-0.2-2.7,0-4c0.2-1,0.9-1.9,1.9-2.3c1.2-0.4,3.6-0.4,4.4,1.7c0.2,0.4,0.4,0.4,0.8,0.2
	c0.2-0.2,0.2-0.2,0.2-0.4c-0.3-0.6-0.7-1.2-1.3-1.7c-2-1.4-4.8-0.9-6.2,1.1c-0.2,0.3-0.3,0.5-0.5,0.8c-0.4,0.9-0.5,1.9-0.4,2.9
	c0,0.8,0.2,1.6,0.4,2.3c0.8,2,2.9,3.2,5,2.7c1.6-0.1,2.8-1.4,2.9-2.9v-2.1l-0.2-0.2h-3.1l-0.2,0.2c-0.2,0.4,0,0.8,0.4,0.8h2.5
	C152.2,89.2,152.2,89.8,151.8,89.6L151.8,89.6z M158.2,70.2c-0.1-1,0.1-2,0.4-2.9c0.9-2.2,3.5-3.2,5.6-2.2c1.3,0.6,2.3,1.8,2.5,3.2
	c0.2,1.3,0.2,2.7,0,4c-0.5,2-2.3,3.4-4.4,3.3c-2.1-0.2-3.8-1.9-4-4C158.3,71.1,158.2,70.7,158.2,70.2L158.2,70.2z M166,70.2
	c0-0.6,0-1.1-0.2-1.7c-0.1-1.6-1.5-2.9-3.1-2.9c-1.6-0.1-3.1,0.9-3.6,2.5c-0.2,1.1-0.2,2.2,0,3.3c0.2,1.6,1.5,2.8,3.1,2.9
	c1.6,0,2.9-1,3.4-2.5C165.9,71.4,166.1,70.8,166,70.2L166,70.2z M111,83.8h5.2v-0.6c0-0.2-0.2-0.2-0.4-0.2h-5.2
	c-0.8,0-0.8,0-0.8,0.8V93c0,0.2,0,0.4,0.4,0.4h5.8l0.2-0.2v-0.6c0-0.2-0.2-0.2-0.4-0.2h-5.2v-4h5c0.4,0,0.4,0,0.4-0.4s0-0.4-0.4-0.4
	h-5.2v-3.8H111z M93.3,66h4.8c0.2,0,0.3-0.1,0.4-0.2v-0.6c0-0.2-0.2-0.2-0.4-0.2h-5.4C92,65,92,65,92,65.6v9.2c0,0.6,0,0.6,0.6,0.6
	h5.6c0.2,0,0.3-0.1,0.4-0.2c0.2-0.4,0-0.8-0.4-0.8h-5.2v-4h5.6v-0.6c0-0.2-0.2-0.2-0.4-0.2h-5.2v-3.7C93.3,65.8,93.3,65.8,93.3,66z
	 M158.5,83.8h4.8c0.4,0,0.4,0,0.4-0.4s0-0.4-0.4-0.4h-5.4c-0.6,0-0.6,0-0.6,0.6v9.2c0,0.6,0,0.6,0.6,0.6h5.6c0.2,0,0.3-0.1,0.4-0.2
	c0.2-0.4,0-0.8-0.4-0.8h-5.2v-4h5.6v-0.6c0-0.2-0.2-0.2-0.4-0.2h-5.2v-3.7L158.5,83.8z M193.8,83.6h4.8c0.4,0,0.4,0,0.4-0.4
	s0-0.4-0.4-0.4h-5.4c-0.6,0-0.6,0-0.6,0.6v9.2c0,0.6,0,0.6,0.6,0.6h5.4c0.4,0,0.4,0,0.4-0.4s0-0.4-0.4-0.4h-5.2v-4h5.6v-0.6
	c0-0.2-0.2-0.2-0.4-0.2h-5.2v-3.7C193.5,83.7,193.7,83.7,193.8,83.6L193.8,83.6z M141.5,65c1.1,0,1.1,0,1.3,0.8c1,2.9,2.1,5.8,3.3,9
	v0.4c-0.2,0.2-0.4,0.2-0.6,0.2l-0.2-0.2c-0.4-1-0.8-2.1-1.1-3.1c0-0.2-0.2-0.4-0.4-0.4h-4.4c-0.2,0-0.4,0-0.4,0.2
	c-0.4,1-0.8,2-1,3.1c-0.2,0.4-0.2,0.4-0.6,0.2s-0.4-0.2-0.2-0.6l3.1-8.8l0,0C140.5,65,140.5,65,141.5,65z M143.6,70.8v-0.2
	c-0.6-1.5-1-2.9-1.7-4.4c0-0.2-0.2-0.4-0.4-0.4c-0.2,0-0.4,0-0.4,0.4c-0.3,0.9-0.6,1.7-1.1,2.5c-0.2,0.7-0.5,1.4-0.8,2.1H143.6z
	 M122.9,65.2c0-0.4-0.2-0.4-0.4-0.4c-0.4,0-0.4,0-0.4,0.4v6.7c-0.1,1.2-0.9,2.2-2.1,2.5c-1.1,0.4-2.4,0.2-3.3-0.6
	c-0.7-0.7-1.1-1.7-1-2.7v-5.7c0-0.4,0-0.4-0.4-0.4s-0.4,0-0.4,0.4v6.5c0.3,2.3,2.3,3.9,4.6,3.6c0.1,0,0.3,0,0.4-0.1
	c1.9-0.4,3.2-2.1,3.1-4L122.9,65.2L122.9,65.2z M180.4,89.6c0.1,2.2,1.9,3.9,4.2,3.8c0.2,0,0.4,0,0.7-0.1c1.4-0.2,2.6-1.2,3.1-2.5
	c0-0.2,0-0.4-0.2-0.4c-0.4-0.2-0.4,0-0.6,0.2s-0.2,0.4-0.4,0.6c-0.7,1-1.9,1.5-3.1,1.2c-1.2-0.3-2.2-1.3-2.5-2.5
	c-0.2-1.3-0.2-2.7,0-4c0.1-0.7,0.4-1.4,1-1.9c1.4-1.1,3.4-0.9,4.5,0.5c0.2,0.2,0.3,0.5,0.5,0.8c0.2,0.2,0.4,0.4,0.6,0.2
	c0.4-0.2,0.4-0.2,0.2-0.6c-0.6-1.4-2-2.4-3.6-2.3c-1.6-0.1-3,0.7-3.8,2.1c-0.5,1-0.7,2.1-0.6,3.1L180.4,89.6z M102.9,83.8h2.9
	c0.4,0,0.4-0.2,0.4-0.4s0-0.4-0.4-0.4h-7.5c-0.4,0-0.4,0.2-0.4,0.4s0,0.4,0.4,0.4h3.3v9c0,0.4,0,0.4,0.4,0.4s0.4,0,0.4-0.4v-9H102.9
	z M152.4,66h2.7c0.4,0,0.4-0.2,0.4-0.4s0-0.4-0.4-0.4h-7.5c-0.4,0-0.4,0.2-0.4,0.4s0,0.4,0.4,0.4h3.4v9.2l0.2,0.2
	c0.3,0,0.6-0.2,0.6-0.5c0-0.1,0-0.1,0-0.2v-9C152,65.8,152,65.8,152.4,66z M185.8,69.6c-1.3-1.7-2.5-3.1-3.8-4.6
	c0-0.2-0.2-0.2-0.4,0c-0.4,0.4-0.6,0.4-0.2,0.8c1.2,1.5,2.3,2.9,3.6,4.4c0.2,0.2,0.2,0.4,0.2,0.8v4c0,0.4,0,0.4,0.4,0.4
	s0.4,0,0.4-0.4v-4c0-0.4,0.2-0.7,0.4-1c1.3-1.5,2.3-2.9,3.6-4.4c0.2-0.1,0.2-0.4,0.1-0.5c0,0-0.1-0.1-0.1-0.1
	c-0.4-0.2-0.4-0.2-0.6,0c-0.3,0.3-0.6,0.6-0.8,1C187.7,67.2,186.8,68.4,185.8,69.6L185.8,69.6z M121.1,91.7v-8.6
	c0-0.4,0-0.4-0.4-0.4s-0.4,0-0.4,0.4v9.4c0,0.4,0,0.6,0.6,0.6h5.4c0.4,0,0.4-0.2,0.4-0.4s0-0.4-0.4-0.4h-5.2V91.7z M128.6,74.1v-8.8
	l-0.2-0.2c-0.4-0.2-0.6,0-0.6,0.4V75c-0.2,0.2,0,0.4,0.4,0.4h5.6l0.2-0.2c0.2-0.4,0-0.8-0.4-0.8h-5.2
	C128.4,74.3,128.4,74.2,128.6,74.1C128.6,74.1,128.6,74.1,128.6,74.1z M130.9,92.3v-9l-0.2-0.2c-0.4-0.2-0.6,0-0.6,0.4V93
	c0,0.2,0.2,0.4,0.4,0.4h5.6c0.2,0,0.3-0.1,0.4-0.2c0.2-0.4,0-0.8-0.4-0.8L130.9,92.3L130.9,92.3z M140.5,83.1c0-0.2,0-0.4-0.4-0.4
	s-0.4,0-0.4,0.4v9.6c0,0.4,0,0.4,0.4,0.4s0.4,0,0.4-0.4V83.1z M81.4,83.1c0-0.4,0-0.4-0.4-0.4s-0.4,0-0.4,0.4v9.6
	c0,0.4,0,0.4,0.4,0.4s0.4,0,0.4-0.4V83.1z"/>
</svg>
